AnekTamil-ExpandedLight.ufo
<glyph name="exclam" format="2">
  <advance width="546.74"/>
  <unicode hex="0021"/>
  <outline>
    <contour>
      <point x="330.77" y="385.02" type="line"/>
      <point x="345.31" y="1278.0" type="line"/>
      <point x="200.95999999999998" y="1278.0" type="line"/>
      <point x="216.03" y="385.02" type="line"/>
    </contour>
    <contour>
      <point x="272.9" y="-19.3" type="curve" smooth="yes"/>
      <point x="341.11" y="-19.3"/>
      <point x="374.83" y="14.070000000000002"/>
      <point x="374.83" y="71.33000000000001" type="curve" smooth="yes"/>
      <point x="374.83" y="75.33000000000001" type="line" smooth="yes"/>
      <point x="374.83" y="132.12"/>
      <point x="341.11" y="165.02"/>
      <point x="272.9" y="165.02" type="curve" smooth="yes"/>
      <point x="207.16" y="165.02"/>
      <point x="172.44" y="132.12"/>
      <point x="172.44" y="75.33000000000001" type="curve" smooth="yes"/>
      <point x="172.44" y="71.33000000000001" type="line" smooth="yes"/>
      <point x="172.44" y="14.070000000000002"/>
      <point x="207.16" y="-19.3"/>
    </contour>
  </outline>
</glyph>
<glyph name="numbersign" format="2">
  <advance width="1537.26"/>
  <unicode hex="0023"/>
  <outline>
    <contour>
      <point x="314.29999999999995" y="0.0" type="line"/>
      <point x="427.61999999999995" y="0.0" type="line"/>
      <point x="637.62" y="1278.0" type="line"/>
      <point x="524.3" y="1278.0" type="line"/>
    </contour>
    <contour>
      <point x="88.75" y="333.43" type="line"/>
      <point x="1370.1" y="333.43" type="line"/>
      <point x="1370.1" y="431.15" type="line"/>
      <point x="88.75" y="431.15" type="line"/>
    </contour>
    <contour>
      <point x="905.29" y="0.0" type="line"/>
      <point x="1019.6099999999999" y="0.0" type="line"/>
      <point x="1224.0200000000002" y="1278.0" type="line"/>
      <point x="1110.1699999999998" y="1278.0" type="line"/>
    </contour>
    <contour>
      <point x="170.1" y="850.55" type="line"/>
      <point x="1448.51" y="850.55" type="line"/>
      <point x="1448.51" y="948.8000000000001" type="line"/>
      <point x="170.1" y="948.8000000000001" type="line"/>
    </contour>
  </outline>
</glyph>
<glyph name="dollar" format="2">
  <advance width="1456.24"/>
  <unicode hex="0024"/>
  <anchor x="724.59" y="0.0" name="bottom"/>
  <anchor x="724.59" y="1278.0" name="top"/>
  <outline>
    <contour>
      <point x="778.7" y="1230.83" type="line"/>
      <point x="778.7" y="1537.05" type="line"/>
      <point x="652.6" y="1537.05" type="line"/>
      <point x="652.6" y="1230.83" type="line"/>
    </contour>
    <contour>
      <point x="778.7" y="-260.99000000000007" type="line"/>
      <point x="778.7" y="53.0" type="line"/>
      <point x="652.6" y="53.0" type="line"/>
      <point x="652.6" y="-260.99000000000007" type="line"/>
    </contour>
    <component base="S"/>
  </outline>
</glyph>
<glyph name="percent" format="2">
  <advance width="1811.98"/>
  <unicode hex="0025"/>
  <outline>
    <contour>
      <point x="325.39" y="0.0" type="line"/>
      <point x="463.38" y="0.0" type="line"/>
      <point x="1488.18" y="1278.0" type="line"/>
      <point x="1350.72" y="1278.0" type="line"/>
    </contour>
    <contour>
      <point x="1372.79" y="-28.42" type="curve" smooth="yes"/>
      <point x="1577.4" y="-28.42"/>
      <point x="1699.8799999999999" y="90.28999999999999"/>
      <point x="1699.8799999999999" y="288.95" type="curve" smooth="yes"/>
      <point x="1699.8799999999999" y="294.54" type="line" smooth="yes"/>
      <point x="1699.8799999999999" y="492.67"/>
      <point x="1576.8700000000001" y="610.8499999999999"/>
      <point x="1372.79" y="610.8499999999999" type="curve" smooth="yes"/>
      <point x="1169.65" y="610.8499999999999"/>
      <point x="1046.76" y="491.08"/>
      <point x="1046.76" y="294.54" type="curve" smooth="yes"/>
      <point x="1046.76" y="288.95" type="line" smooth="yes"/>
      <point x="1046.76" y="90.28999999999999"/>
      <point x="1168.18" y="-28.42"/>
    </contour>
    <contour>
      <point x="1372.79" y="63.46999999999999" type="curve" smooth="yes"/>
      <point x="1238.2299999999998" y="63.46999999999999"/>
      <point x="1154.31" y="144.51"/>
      <point x="1154.31" y="288.95000000000005" type="curve" smooth="yes"/>
      <point x="1154.31" y="293.48" type="line" smooth="yes"/>
      <point x="1154.31" y="437.39000000000004"/>
      <point x="1236.76" y="519.49"/>
      <point x="1372.79" y="519.49" type="curve" smooth="yes"/>
      <point x="1507.8799999999999" y="519.49"/>
      <point x="1591.27" y="437.39000000000004"/>
      <point x="1591.27" y="293.48" type="curve" smooth="yes"/>
      <point x="1591.27" y="288.95000000000005" type="line" smooth="yes"/>
      <point x="1591.27" y="144.51"/>
      <point x="1509.35" y="63.46999999999999"/>
    </contour>
    <contour>
      <point x="438.13" y="667.6800000000001" type="curve" smooth="yes"/>
      <point x="641.27" y="667.6800000000001"/>
      <point x="765.2199999999999" y="787.45"/>
      <point x="765.2199999999999" y="984.52" type="curve" smooth="yes"/>
      <point x="765.2199999999999" y="990.1099999999999" type="line" smooth="yes"/>
      <point x="765.2199999999999" y="1188.24"/>
      <point x="642.7399999999999" y="1306.95"/>
      <point x="438.13" y="1306.95" type="curve" smooth="yes"/>
      <point x="233.05" y="1306.95"/>
      <point x="112.1" y="1188.24"/>
      <point x="112.1" y="990.1099999999999" type="curve" smooth="yes"/>
      <point x="112.1" y="984.52" type="line" smooth="yes"/>
      <point x="112.1" y="786.3900000000001"/>
      <point x="233.05" y="667.6800000000001"/>
    </contour>
    <contour>
      <point x="438.13" y="759.04" type="curve" smooth="yes"/>
      <point x="303.1" y="759.04"/>
      <point x="218.65" y="840.14"/>
      <point x="218.65" y="984.52" type="curve" smooth="yes"/>
      <point x="218.65" y="990.11" type="line" smooth="yes"/>
      <point x="218.65" y="1133.49"/>
      <point x="302.1" y="1215.5900000000001"/>
      <point x="438.13" y="1215.5900000000001" type="curve" smooth="yes"/>
      <point x="573.2199999999999" y="1215.5900000000001"/>
      <point x="656.61" y="1133.49"/>
      <point x="656.61" y="990.11" type="curve" smooth="yes"/>
      <point x="656.61" y="984.52" type="line" smooth="yes"/>
      <point x="656.61" y="840.14"/>
      <point x="574.6899999999999" y="759.04"/>
    </contour>
  </outline>
</glyph>
<glyph name="ampersand" format="2">
  <advance width="1656.9499999999998"/>
  <unicode hex="0026"/>
  <outline>
    <contour>
      <point x="1482.09" y="0.0" type="curve"/>
      <point x="1650.15" y="0.0" type="line"/>
      <point x="1650.15" y="13.540000000000001" type="line"/>
      <point x="1524.33" y="111.43"/>
      <point x="1433.4299999999998" y="179.26999999999998"/>
      <point x="1298.55" y="280.51" type="curve"/>
      <point x="1250.45" y="316.6" type="line"/>
      <point x="583.6199999999999" y="777.07" type="line" smooth="yes"/>
      <point x="492.97" y="839.7800000000001"/>
      <point x="424.63" y="895.71"/>
      <point x="424.63" y="990.51" type="curve" smooth="yes"/>
      <point x="424.63" y="992.04" type="line" smooth="yes"/>
      <point x="424.63" y="1111.1200000000001"/>
      <point x="510.9" y="1187.9199999999998"/>
      <point x="751.37" y="1187.9199999999998" type="curve" smooth="yes"/>
      <point x="953.11" y="1187.9199999999998"/>
      <point x="1114.8799999999999" y="1133.4599999999998"/>
      <point x="1228.48" y="1071.35" type="curve"/>
      <point x="1211.82" y="1191.79" type="line"/>
      <point x="1120.28" y="1243.9599999999998"/>
      <point x="961.52" y="1301.77"/>
      <point x="735.35" y="1301.77" type="curve" smooth="yes"/>
      <point x="416.0" y="1301.77"/>
      <point x="281.34000000000003" y="1188.1200000000001"/>
      <point x="281.34000000000003" y="1003.17" type="curve" smooth="yes"/>
      <point x="281.34000000000003" y="999.05" type="line" smooth="yes"/>
      <point x="281.34000000000003" y="883.5799999999999"/>
      <point x="342.45000000000005" y="805.99"/>
      <point x="448.52000000000004" y="733.92" type="curve"/>
      <point x="470.71000000000004" y="710.49" type="line"/>
      <point x="1175.04" y="226.12" type="line"/>
      <point x="1200.0" y="210.57999999999998" type="line"/>
      <point x="1253.57" y="170.65"/>
      <point x="1436.1499999999999" y="34.0"/>
    </contour>
    <contour>
      <point x="686.24" y="-25.77" type="curve" smooth="yes"/>
      <point x="945.9499999999999" y="-25.77"/>
      <point x="1132.94" y="56.93"/>
      <point x="1275.1200000000001" y="200.33" type="curve"/>
      <point x="1307.9700000000003" y="231.59" type="line"/>
      <point x="1423.27" y="359.94"/>
      <point x="1507.4599999999998" y="539.5899999999999"/>
      <point x="1543.52" y="756.42" type="curve"/>
      <point x="1406.71" y="756.42" type="line"/>
      <point x="1373.65" y="567.79"/>
      <point x="1307.3" y="419.46"/>
      <point x="1211.78" y="303.53000000000003" type="curve"/>
      <point x="1183.23" y="272.33000000000004" type="line"/>
      <point x="1065.5400000000002" y="152.71"/>
      <point x="901.8" y="87.55"/>
      <point x="696.13" y="87.55" type="curve" smooth="yes"/>
      <point x="423.24" y="87.55"/>
      <point x="273.27000000000004" y="200.77"/>
      <point x="273.27000000000004" y="385.96000000000004" type="curve" smooth="yes"/>
      <point x="273.27000000000004" y="394.90000000000003" type="line" smooth="yes"/>
      <point x="273.27000000000004" y="544.52"/>
      <point x="356.14" y="633.8499999999999"/>
      <point x="524.63" y="697.95" type="curve"/>
      <point x="443.1" y="777.42" type="line"/>
      <point x="228.39000000000001" y="695.01"/>
      <point x="131.57" y="569.42"/>
      <point x="131.57" y="380.18" type="curve" smooth="yes"/>
      <point x="131.57" y="371.18" type="line" smooth="yes"/>
      <point x="131.57" y="127.36"/>
      <point x="324.1" y="-25.77"/>
    </contour>
  </outline>
</glyph>
<glyph name="quotesingle" format="2">
  <advance width="419.21999999999997"/>
  <unicode hex="0027"/>
  <outline>
    <contour>
      <point x="261.65000000000003" y="805.04" type="line"/>
      <point x="276.25000000000006" y="1321.35" type="line"/>
      <point x="142.97" y="1321.35" type="line"/>
      <point x="156.51" y="805.04" type="line"/>
    </contour>
  </outline>
</glyph>
<glyph name="parenleft" format="2">
  <advance width="741.57"/>
  <unicode hex="0028"/>
  <outline>
    <contour>
      <point x="323.37" y="568.8199999999999" type="line" smooth="yes"/>
      <point x="323.37" y="865.63"/>
      <point x="431.25" y="1134.34"/>
      <point x="645.37" y="1347.53" type="curve"/>
      <point x="499.72999999999996" y="1347.53" type="line"/>
      <point x="294.32" y="1137.5800000000002"/>
      <point x="190.56" y="872.05"/>
      <point x="190.56" y="568.82" type="curve" smooth="yes"/>
      <point x="190.56" y="548.8799999999999" type="line" smooth="yes"/>
      <point x="190.56" y="236.47"/>
      <point x="291.67" y="-28.939999999999998"/>
      <point x="497.60999999999996" y="-240.01000000000002" type="curve"/>
      <point x="645.37" y="-240.01000000000002" type="line"/>
      <point x="430.72" y="-23.35"/>
      <point x="323.37" y="247.48"/>
      <point x="323.37" y="548.8800000000001" type="curve" smooth="yes"/>
    </contour>
  </outline>
</glyph>
<glyph name="parenright" format="2">
  <advance width="741.5699999999999"/>
  <unicode hex="0029"/>
  <outline>
    <contour>
      <point x="418.2" y="568.8199999999999" type="curve" smooth="yes"/>
      <point x="418.2" y="548.8800000000001" type="line" smooth="yes"/>
      <point x="418.2" y="247.48"/>
      <point x="310.85" y="-23.35"/>
      <point x="96.2" y="-240.01000000000002" type="curve"/>
      <point x="243.96" y="-240.01000000000002" type="line"/>
      <point x="449.90000000000003" y="-28.939999999999998"/>
      <point x="551.01" y="236.47"/>
      <point x="551.01" y="548.8799999999999" type="curve" smooth="yes"/>
      <point x="551.01" y="568.82" type="line" smooth="yes"/>
      <point x="551.01" y="872.05"/>
      <point x="447.25" y="1137.5800000000002"/>
      <point x="241.84" y="1347.53" type="curve"/>
      <point x="96.2" y="1347.53" type="line"/>
      <point x="310.32" y="1134.34"/>
      <point x="418.2" y="865.63"/>
    </contour>
  </outline>
</glyph>
<glyph name="asterisk" format="2">
  <advance width="897.97"/>
  <unicode hex="002A"/>
  <outline>
    <contour>
      <point x="259.39" y="623.0" type="line"/>
      <point x="452.07" y="875.22" type="line"/>
      <point x="446.37" y="875.22" type="line"/>
      <point x="639.64" y="623.0" type="line"/>
      <point x="731.7099999999999" y="693.99" type="line"/>
      <point x="515.72" y="922.96" type="line"/>
      <point x="515.78" y="916.79" type="line"/>
      <point x="818.93" y="985.77" type="line"/>
      <point x="789.7900000000001" y="1094.38" type="line"/>
      <point x="490.17" y="992.0200000000001" type="line"/>
      <point x="493.46000000000004" y="987.73" type="line"/>
      <point x="510.05999999999995" y="1278.0" type="line"/>
      <point x="388.38" y="1278.0" type="line"/>
      <point x="405.97999999999996" y="987.73" type="line"/>
      <point x="407.8" y="992.0200000000001" type="line"/>
      <point x="108.17999999999999" y="1094.38" type="line"/>
      <point x="79.03999999999999" y="985.77" type="line"/>
      <point x="382.65999999999997" y="916.79" type="line"/>
      <point x="381.71999999999997" y="922.96" type="line"/>
      <point x="166.2" y="693.99" type="line"/>
    </contour>
  </outline>
</glyph>
<glyph name="plus" format="2">
  <advance width="1343.5800000000002"/>
  <unicode hex="002B"/>
  <outline>
    <contour>
      <point x="729.98" y="94.99000000000001" type="line"/>
      <point x="729.98" y="1124.53" type="line"/>
      <point x="614.07" y="1124.53" type="line"/>
      <point x="614.07" y="94.99000000000001" type="line"/>
    </contour>
    <contour>
      <point x="152.75" y="556.72" type="line"/>
      <point x="1190.83" y="556.72" type="line"/>
      <point x="1190.83" y="662.8" type="line"/>
      <point x="152.75" y="662.8" type="line"/>
    </contour>
  </outline>
</glyph>
<glyph name="comma" format="2">
  <advance width="426.07000000000005"/>
  <unicode hex="002C"/>
  <outline>
    <contour>
      <point x="284.2" y="267.03000000000003" type="curve"/>
      <point x="155.04" y="267.03000000000003" type="line"/>
      <point x="160.51" y="229.85"/>
      <point x="162.98" y="193.26"/>
      <point x="162.98" y="152.14" type="curve" smooth="yes"/>
      <point x="162.98" y="-7.389999999999997"/>
      <point x="129.04" y="-129.57000000000002"/>
      <point x="37.63999999999999" y="-253.98000000000002" type="curve"/>
      <point x="133.78" y="-286.04999999999995" type="line"/>
      <point x="252.01999999999998" y="-151.4"/>
      <point x="293.72999999999996" y="-13.979999999999999"/>
      <point x="293.72999999999996" y="157.32" type="curve" smooth="yes"/>
      <point x="293.72999999999996" y="202.26"/>
      <point x="288.26" y="242.85"/>
    </contour>
  </outline>
</glyph>
<glyph name="hyphen" format="2">
  <advance width="1077.93"/>
  <unicode hex="002D"/>
  <outline>
    <contour>
      <point x="161.62" y="473.25" type="line"/>
      <point x="916.3100000000001" y="473.25" type="line"/>
      <point x="916.3100000000001" y="580.39" type="line"/>
      <point x="161.62" y="580.39" type="line"/>
    </contour>
  </outline>
</glyph>
<glyph name="period" format="2">
  <advance width="455.89"/>
  <unicode hex="002E"/>
  <outline>
    <contour>
      <point x="227.21" y="-19.3" type="curve" smooth="yes"/>
      <point x="295.41999999999996" y="-19.3"/>
      <point x="329.14000000000004" y="14.070000000000002"/>
      <point x="329.14000000000004" y="71.33000000000001" type="curve" smooth="yes"/>
      <point x="329.14000000000004" y="75.33000000000001" type="line" smooth="yes"/>
      <point x="329.14000000000004" y="132.12"/>
      <point x="295.41999999999996" y="165.02"/>
      <point x="227.21" y="165.02" type="curve" smooth="yes"/>
      <point x="161.47" y="165.02"/>
      <point x="126.75" y="132.12"/>
      <point x="126.75" y="75.33000000000001" type="curve" smooth="yes"/>
      <point x="126.75" y="71.33000000000001" type="line" smooth="yes"/>
      <point x="126.75" y="14.070000000000002"/>
      <point x="161.47" y="-19.3"/>
    </contour>
  </outline>
</glyph>
<glyph name="slash" format="2">
  <advance width="1113.36"/>
  <unicode hex="002F"/>
  <outline>
    <contour>
      <point x="47.55" y="-232.66000000000003" type="line"/>
      <point x="184.3" y="-232.66000000000003" type="line"/>
      <point x="1065.81" y="1325.48" type="line"/>
      <point x="929.59" y="1325.48" type="line"/>
    </contour>
  </outline>
</glyph>
<glyph name="zero" format="2">
  <advance width="1513.6200000000001"/>
  <unicode hex="0030"/>
  <outline>
    <contour>
      <point x="756.3100000000001" y="-27.360000000000003" type="curve" smooth="yes"/>
      <point x="1168.8" y="-27.360000000000003"/>
      <point x="1380.4599999999998" y="209.11"/>
      <point x="1380.4599999999998" y="628.59" type="curve"/>
      <point x="1380.4599999999998" y="647.4699999999999" type="line"/>
      <point x="1380.4599999999998" y="1065.4199999999998"/>
      <point x="1168.8" y="1304.36"/>
      <point x="756.3100000000001" y="1304.36" type="curve" smooth="yes"/>
      <point x="344.82000000000005" y="1304.36"/>
      <point x="133.16" y="1065.4199999999998"/>
      <point x="133.16" y="647.4699999999999" type="curve"/>
      <point x="133.16" y="628.59" type="line"/>
      <point x="133.16" y="209.11"/>
      <point x="345.35" y="-27.360000000000003"/>
    </contour>
    <contour>
      <point x="756.3100000000001" y="87.02" type="curve" smooth="yes"/>
      <point x="433.42" y="87.02"/>
      <point x="273.79999999999995" y="284.99"/>
      <point x="273.79999999999995" y="628.06" type="curve" smooth="yes"/>
      <point x="273.79999999999995" y="647.47" type="line" smooth="yes"/>
      <point x="273.79999999999995" y="991.4799999999999"/>
      <point x="432.35999999999996" y="1189.98"/>
      <point x="756.3100000000001" y="1189.98" type="curve" smooth="yes"/>
      <point x="1081.2600000000002" y="1189.98"/>
      <point x="1239.8200000000002" y="992.0099999999999"/>
      <point x="1239.8200000000002" y="647.47" type="curve" smooth="yes"/>
      <point x="1239.8200000000002" y="628.06" type="line" smooth="yes"/>
      <point x="1239.8200000000002" y="284.99"/>
      <point x="1081.2600000000002" y="87.02"/>
    </contour>
  </outline>
</glyph>
<glyph name="one" format="2">
  <advance width="844.5"/>
  <unicode hex="0031"/>
  <outline>
    <contour>
      <point x="501.01" y="0.0" type="line"/>
      <point x="637.0" y="0.0" type="line"/>
      <point x="637.0" y="1278.0" type="line"/>
      <point x="492.97" y="1278.0" type="line"/>
      <point x="83.99000000000001" y="1080.5" type="line"/>
      <point x="77.28" y="957.88" type="line"/>
      <point x="486.47999999999996" y="1152.96" type="line"/>
      <point x="501.01" y="1152.96" type="line"/>
    </contour>
  </outline>
</glyph>
<glyph name="two" format="2">
  <advance width="1294.95"/>
  <unicode hex="0032"/>
  <outline>
    <contour>
      <point x="98.34" y="0.0" type="line"/>
      <point x="1186.2" y="0.0" type="line"/>
      <point x="1186.2" y="114.38000000000001" type="line"/>
      <point x="236.17000000000002" y="114.38000000000001" type="line"/>
      <point x="292.86" y="88.07000000000001" type="line"/>
      <point x="292.86" y="123.91000000000001" type="line"/>
      <point x="686.96" y="362.2" type="line" smooth="yes"/>
      <point x="966.13" y="530.83"/>
      <point x="1156.44" y="668.24"/>
      <point x="1156.44" y="902.8699999999999" type="curve" smooth="yes"/>
      <point x="1156.44" y="911.99" type="line" smooth="yes"/>
      <point x="1156.44" y="1163.41"/>
      <point x="974.96" y="1301.71"/>
      <point x="642.94" y="1301.71" type="curve" smooth="yes"/>
      <point x="407.07" y="1301.71"/>
      <point x="230.71" y="1224.49"/>
      <point x="119.06" y="1157.38" type="curve"/>
      <point x="102.99" y="1029.17" type="line"/>
      <point x="234.93" y="1110.63"/>
      <point x="411.99" y="1185.74"/>
      <point x="623.98" y="1185.74" type="curve" smooth="yes"/>
      <point x="885.24" y="1185.74"/>
      <point x="1015.8" y="1081.1699999999998"/>
      <point x="1015.8" y="901.39" type="curve" smooth="yes"/>
      <point x="1015.8" y="895.86" type="line" smooth="yes"/>
      <point x="1015.8" y="697.67"/>
      <point x="829.4899999999999" y="583.04"/>
      <point x="586.34" y="432.89000000000004" type="curve" smooth="yes"/>
      <point x="98.34" y="134.85000000000002" type="line"/>
    </contour>
  </outline>
</glyph>
<glyph name="three" format="2">
  <advance width="1373.4099999999999"/>
  <unicode hex="0033"/>
  <outline>
    <contour>
      <point x="661.6299999999999" y="-25.24" type="curve" smooth="yes"/>
      <point x="1058.83" y="-25.24"/>
      <point x="1251.9599999999998" y="120.35"/>
      <point x="1251.9599999999998" y="349.48" type="curve" smooth="yes"/>
      <point x="1251.9599999999998" y="365.77000000000004" type="line" smooth="yes"/>
      <point x="1251.9599999999998" y="552.29"/>
      <point x="1136.9899999999998" y="657.69"/>
      <point x="877.3599999999999" y="673.47" type="curve"/>
      <point x="872.08" y="658.52" type="line"/>
      <point x="872.0799999999999" y="672.13" type="line"/>
      <point x="1128.46" y="685.26"/>
      <point x="1236.08" y="796.59"/>
      <point x="1236.08" y="958.76" type="curve" smooth="yes"/>
      <point x="1236.08" y="972.23" type="line" smooth="yes"/>
      <point x="1236.08" y="1181.3600000000001"/>
      <point x="1062.24" y="1301.77"/>
      <point x="690.22" y="1301.77" type="curve" smooth="yes"/>
      <point x="432.82" y="1301.77"/>
      <point x="247.59" y="1236.43"/>
      <point x="141.51999999999998" y="1177.1399999999999" type="curve"/>
      <point x="126.45" y="1056.7" type="line"/>
      <point x="251.57" y="1124.69"/>
      <point x="444.47" y="1187.92"/>
      <point x="674.97" y="1187.92" type="curve" smooth="yes"/>
      <point x="972.29" y="1187.92"/>
      <point x="1095.44" y="1106.1200000000001"/>
      <point x="1095.44" y="958.45" type="curve" smooth="yes"/>
      <point x="1095.44" y="947.63" type="line" smooth="yes"/>
      <point x="1095.44" y="816.07"/>
      <point x="998.17" y="723.1"/>
      <point x="719.64" y="720.51" type="curve" smooth="yes"/>
      <point x="366.49" y="716.8599999999999" type="line"/>
      <point x="366.49" y="609.6" type="line"/>
      <point x="718.7" y="607.01" type="line" smooth="yes"/>
      <point x="1008.99" y="604.9499999999999"/>
      <point x="1109.73" y="517.33"/>
      <point x="1109.73" y="368.53999999999996" type="curve" smooth="yes"/>
      <point x="1109.73" y="355.19" type="line" smooth="yes"/>
      <point x="1109.73" y="195.41"/>
      <point x="971.47" y="92.85000000000001"/>
      <point x="656.3299999999999" y="92.85000000000001" type="curve" smooth="yes"/>
      <point x="432.51" y="92.85000000000001"/>
      <point x="242.75" y="152.08"/>
      <point x="118.92" y="214.43" type="curve"/>
      <point x="133.99" y="83.57000000000001" type="line"/>
      <point x="226.29" y="41.69"/>
      <point x="417.23" y="-25.24"/>
    </contour>
  </outline>
</glyph>
<glyph name="four" format="2">
  <advance width="1391.22"/>
  <unicode hex="0034"/>
  <outline>
    <contour>
      <point x="978.6700000000001" y="0.0" type="line"/>
      <point x="1111.48" y="0.0" type="line"/>
      <point x="1111.48" y="1278.0" type="line"/>
      <point x="871.0899999999999" y="1278.0" type="line"/>
      <point x="74.28999999999999" y="428.12" type="line"/>
      <point x="74.28999999999999" y="281.44" type="line"/>
      <point x="1358.98" y="281.44" type="line"/>
      <point x="1358.98" y="394.82" type="line"/>
      <point x="169.83999999999997" y="394.82" type="line"/>
      <point x="223.41" y="333.78000000000003" type="line"/>
      <point x="223.41" y="412.88" type="line"/>
      <point x="943.03" y="1179.34" type="line"/>
      <point x="980.73" y="1179.34" type="line"/>
      <point x="978.6700000000001" y="929.63" type="line"/>
    </contour>
  </outline>
</glyph>
<glyph name="five" format="2">
  <advance width="1434.3"/>
  <unicode hex="0035"/>
  <outline>
    <contour>
      <point x="729.6899999999999" y="-21.299999999999997" type="curve" smooth="yes"/>
      <point x="1131.3799999999999" y="-21.299999999999997"/>
      <point x="1317.67" y="151.70999999999998"/>
      <point x="1317.67" y="406.36" type="curve" smooth="yes"/>
      <point x="1317.67" y="420.89" type="line" smooth="yes"/>
      <point x="1317.67" y="676.5400000000001"/>
      <point x="1155.03" y="824.66"/>
      <point x="831.04" y="824.66" type="curve" smooth="yes"/>
      <point x="570.24" y="824.66"/>
      <point x="409.6" y="727.73"/>
      <point x="315.03000000000003" y="603.86" type="curve"/>
      <point x="316.9" y="602.92" type="line"/>
      <point x="318.9" y="839.51" type="line"/>
      <point x="318.9" y="1165.15" type="line"/>
      <point x="1263.14" y="1165.15" type="line"/>
      <point x="1263.14" y="1278.0" type="line"/>
      <point x="187.09" y="1278.0" type="line"/>
      <point x="187.09" y="540.52" type="line"/>
      <point x="303.42" y="516.03" type="line"/>
      <point x="416.87" y="643.3499999999999"/>
      <point x="571.2099999999999" y="713.4"/>
      <point x="791.17" y="713.4" type="curve" smooth="yes"/>
      <point x="1054.2399999999998" y="713.4"/>
      <point x="1180.21" y="604.31"/>
      <point x="1180.21" y="419.36" type="curve" smooth="yes"/>
      <point x="1180.21" y="409.42" type="line" smooth="yes"/>
      <point x="1180.21" y="218.06"/>
      <point x="1036.66" y="96.79"/>
      <point x="723.33" y="96.79" type="curve" smooth="yes"/>
      <point x="485.34" y="96.79"/>
      <point x="300.21" y="158.73000000000002"/>
      <point x="176.15" y="222.96" type="curve"/>
      <point x="192.16" y="92.57" type="line"/>
      <point x="292.15999999999997" y="41.870000000000005"/>
      <point x="470.23" y="-21.299999999999997"/>
    </contour>
  </outline>
</glyph>
<glyph name="six" format="2">
  <advance width="1459.38"/>
  <unicode hex="0036"/>
  <outline>
    <contour>
      <point x="772.13" y="-23.950000000000003" type="curve" smooth="yes"/>
      <point x="1138.2099999999998" y="-23.950000000000003"/>
      <point x="1342.6299999999999" y="132.64"/>
      <point x="1342.6299999999999" y="403.53000000000003" type="curve" smooth="yes"/>
      <point x="1342.6299999999999" y="418.59" type="line" smooth="yes"/>
      <point x="1342.6299999999999" y="669.89"/>
      <point x="1168.57" y="814.07"/>
      <point x="841.3399999999999" y="814.07" type="curve" smooth="yes"/>
      <point x="516.01" y="814.07"/>
      <point x="335.74" y="655.58"/>
      <point x="274.8" y="476.31000000000006" type="curve"/>
      <point x="253.08000000000004" y="476.31000000000006" type="line"/>
      <point x="278.38" y="389.19" type="line"/>
      <point x="351.73" y="566.4399999999999"/>
      <point x="528.5300000000001" y="707.5200000000001"/>
      <point x="802.24" y="707.5200000000001" type="curve" smooth="yes"/>
      <point x="1080.97" y="707.5200000000001"/>
      <point x="1205.17" y="596.01"/>
      <point x="1205.17" y="416.47" type="curve" smooth="yes"/>
      <point x="1205.17" y="407.0" type="line" smooth="yes"/>
      <point x="1205.17" y="209.05"/>
      <point x="1054.3200000000002" y="90.42999999999999"/>
      <point x="774.78" y="90.42999999999999" type="curve" smooth="yes"/>
      <point x="464.11" y="90.42999999999999"/>
      <point x="264.62" y="269.28"/>
      <point x="264.62" y="603.41" type="curve"/>
      <point x="264.62" y="623.2900000000001" type="line" smooth="yes"/>
      <point x="264.62" y="984.25"/>
      <point x="443.49" y="1186.86"/>
      <point x="791.63" y="1186.86" type="curve" smooth="yes"/>
      <point x="1015.57" y="1186.86"/>
      <point x="1140.87" y="1139.45"/>
      <point x="1264.9899999999998" y="1074.04" type="curve"/>
      <point x="1249.39" y="1198.66" type="line"/>
      <point x="1144.44" y="1250.0700000000002"/>
      <point x="1004.84" y="1300.71"/>
      <point x="778.38" y="1300.71" type="curve" smooth="yes"/>
      <point x="351.12" y="1300.71"/>
      <point x="126.63" y="1048.12"/>
      <point x="126.63" y="623.29" type="curve" smooth="yes"/>
      <point x="126.63" y="602.8800000000001" type="line" smooth="yes"/>
      <point x="126.63" y="205.64"/>
      <point x="377.87" y="-23.950000000000003"/>
    </contour>
  </outline>
</glyph>
<glyph name="seven" format="2">
  <advance width="1265.49"/>
  <unicode hex="0037"/>
  <outline>
    <contour>
      <point x="331.53999999999996" y="0.0" type="line"/>
      <point x="488.31" y="0.0" type="line"/>
      <point x="1184.26" y="1163.62" type="line"/>
      <point x="1184.26" y="1278.0" type="line"/>
      <point x="84.99000000000001" y="1278.0" type="line"/>
      <point x="84.99000000000001" y="1165.15" type="line"/>
      <point x="1034.08" y="1165.15" type="line"/>
    </contour>
  </outline>
</glyph>
<glyph name="eight" format="2">
  <advance width="1529.6499999999999"/>
  <unicode hex="0038"/>
  <outline>
    <contour>
      <point x="764.53" y="-31.890000000000004" type="curve" smooth="yes"/>
      <point x="1214.23" y="-31.890000000000004"/>
      <point x="1400.3200000000002" y="109.07000000000001"/>
      <point x="1400.3200000000002" y="329.59" type="curve" smooth="yes"/>
      <point x="1400.3200000000002" y="346.53" type="line" smooth="yes"/>
      <point x="1400.3200000000002" y="544.1600000000001"/>
      <point x="1233.14" y="649.3399999999999"/>
      <point x="1026.1200000000001" y="671.47" type="curve"/>
      <point x="1026.1200000000001" y="678.65" type="line"/>
      <point x="1212.26" y="688.31"/>
      <point x="1377.9099999999999" y="782.7199999999999"/>
      <point x="1377.9099999999999" y="960.4100000000001" type="curve" smooth="yes"/>
      <point x="1377.9099999999999" y="978.8199999999999" type="line" smooth="yes"/>
      <point x="1377.9099999999999" y="1189.3500000000001"/>
      <point x="1170.97" y="1306.24"/>
      <point x="764.53" y="1306.24" type="curve" smooth="yes"/>
      <point x="358.68" y="1306.24"/>
      <point x="151.73999999999998" y="1189.3500000000001"/>
      <point x="151.73999999999998" y="978.8199999999999" type="curve" smooth="yes"/>
      <point x="151.73999999999998" y="960.4100000000001" type="line" smooth="yes"/>
      <point x="151.73999999999998" y="781.7199999999999"/>
      <point x="316.92" y="688.31"/>
      <point x="503.53" y="678.65" type="curve"/>
      <point x="503.53" y="671.47" type="line"/>
      <point x="297.04" y="649.34"/>
      <point x="129.33" y="544.69"/>
      <point x="129.33" y="346.53" type="curve" smooth="yes"/>
      <point x="129.33" y="329.59" type="line" smooth="yes"/>
      <point x="129.33" y="102.71"/>
      <point x="324.43" y="-31.890000000000004"/>
    </contour>
    <contour>
      <point x="767.1800000000001" y="77.72" type="curve" smooth="yes"/>
      <point x="433.52" y="77.72"/>
      <point x="270.50000000000006" y="170.23000000000002"/>
      <point x="270.50000000000006" y="339.25" type="curve" smooth="yes"/>
      <point x="270.50000000000006" y="355.01000000000005" type="line" smooth="yes"/>
      <point x="270.50000000000006" y="519.38"/>
      <point x="433.28" y="610.95"/>
      <point x="759.76" y="617.84" type="curve"/>
      <point x="1091.6000000000001" y="610.42"/>
      <point x="1259.15" y="521.5"/>
      <point x="1259.15" y="355.01000000000005" type="curve" smooth="yes"/>
      <point x="1259.15" y="339.25" type="line" smooth="yes"/>
      <point x="1259.15" y="171.82000000000002"/>
      <point x="1098.25" y="77.72"/>
    </contour>
    <contour>
      <point x="769.8299999999999" y="715.9699999999999" type="curve"/>
      <point x="445.75" y="721.2700000000001"/>
      <point x="289.79" y="805.61"/>
      <point x="289.79" y="951.28" type="curve" smooth="yes"/>
      <point x="289.79" y="966.1" type="line" smooth="yes"/>
      <point x="289.79" y="1119.71"/>
      <point x="448.52" y="1200.87"/>
      <point x="764.53" y="1200.87" type="curve" smooth="yes"/>
      <point x="1081.6599999999999" y="1200.87"/>
      <point x="1239.86" y="1119.71"/>
      <point x="1239.86" y="965.0400000000001" type="curve" smooth="yes"/>
      <point x="1239.86" y="950.22" type="line" smooth="yes"/>
      <point x="1239.86" y="804.02"/>
      <point x="1078.13" y="721.2700000000001"/>
    </contour>
  </outline>
</glyph>
<glyph name="nine" format="2">
  <advance width="1455.44"/>
  <unicode hex="0039"/>
  <outline>
    <contour>
      <point x="695.37" y="1300.71" type="curve" smooth="yes"/>
      <point x="319.41" y="1300.71"/>
      <point x="116.75" y="1143.59"/>
      <point x="116.75" y="875.11" type="curve" smooth="yes"/>
      <point x="116.75" y="859.52" type="line" smooth="yes"/>
      <point x="116.75" y="606.46"/>
      <point x="293.46" y="461.75"/>
      <point x="620.04" y="461.75" type="curve" smooth="yes"/>
      <point x="938.78" y="461.75"/>
      <point x="1121.41" y="610.84"/>
      <point x="1183.6399999999999" y="781.1800000000001" type="curve"/>
      <point x="1211.72" y="781.1800000000001" type="line"/>
      <point x="1181.0600000000002" y="867.77" type="line"/>
      <point x="1102.71" y="698.2700000000001"/>
      <point x="928.26" y="568.3000000000001"/>
      <point x="662.3199999999999" y="568.3000000000001" type="curve" smooth="yes"/>
      <point x="389.01" y="568.3000000000001"/>
      <point x="254.73999999999998" y="674.51"/>
      <point x="254.73999999999998" y="863.7600000000001" type="curve" smooth="yes"/>
      <point x="254.73999999999998" y="873.6999999999999" type="line" smooth="yes"/>
      <point x="254.73999999999998" y="1068.24"/>
      <point x="402.36" y="1186.33"/>
      <point x="693.25" y="1186.33" type="curve" smooth="yes"/>
      <point x="1018.56" y="1186.33"/>
      <point x="1190.94" y="1011.54"/>
      <point x="1190.94" y="642.12" type="curve"/>
      <point x="1190.94" y="623.77" type="line" smooth="yes"/>
      <point x="1190.94" y="276.34000000000003"/>
      <point x="1013.25" y="89.9"/>
      <point x="633.22" y="89.9" type="curve" smooth="yes"/>
      <point x="431.82" y="89.9"/>
      <point x="300.81" y="138.31"/>
      <point x="184.34" y="198.78" type="curve"/>
      <point x="200.41" y="71.50999999999999" type="line"/>
      <point x="296.65000000000003" y="25.63"/>
      <point x="429.13" y="-23.42"/>
      <point x="644.8800000000001" y="-23.42" type="curve" smooth="yes"/>
      <point x="1100.26" y="-23.42"/>
      <point x="1329.46" y="209.82"/>
      <point x="1329.46" y="620.06" type="curve" smooth="yes"/>
      <point x="1329.46" y="640.0" type="line" smooth="yes"/>
      <point x="1329.46" y="1072.47"/>
      <point x="1110.63" y="1300.71"/>
    </contour>
  </outline>
</glyph>
<glyph name="less" format="2">
  <advance width="1380.8000000000002"/>
  <unicode hex="003C"/>
  <outline>
    <contour>
      <point x="253.65000000000003" y="620.11" type="line"/>
      <point x="1190.83" y="885.52" type="line"/>
      <point x="1190.83" y="1005.55" type="line"/>
      <point x="152.75" y="702.35" type="line"/>
      <point x="152.75" y="513.46" type="line"/>
      <point x="1190.83" y="209.20000000000002" type="line"/>
      <point x="1190.83" y="329.76" type="line"/>
      <point x="253.65000000000003" y="596.76" type="line"/>
    </contour>
  </outline>
</glyph>
<glyph name="equal" format="2">
  <advance width="1370.98"/>
  <unicode hex="003D"/>
  <outline>
    <contour>
      <point x="169.1" y="312.60999999999996" type="line"/>
      <point x="1201.88" y="312.60999999999996" type="line"/>
      <point x="1201.88" y="419.75" type="line"/>
      <point x="169.1" y="419.75" type="line"/>
    </contour>
    <contour>
      <point x="169.1" y="799.89" type="line"/>
      <point x="1201.88" y="799.89" type="line"/>
      <point x="1201.88" y="907.03" type="line"/>
      <point x="169.1" y="907.03" type="line"/>
    </contour>
  </outline>
</glyph>
<glyph name="greater" format="2">
  <advance width="1380.8000000000002"/>
  <unicode hex="003E"/>
  <outline>
    <contour>
      <point x="1127.1499999999999" y="620.11" type="line"/>
      <point x="1127.1499999999999" y="596.76" type="line"/>
      <point x="189.97" y="329.76" type="line"/>
      <point x="189.97" y="209.20000000000002" type="line"/>
      <point x="1228.05" y="513.46" type="line"/>
      <point x="1228.05" y="702.35" type="line"/>
      <point x="189.97" y="1005.55" type="line"/>
      <point x="189.97" y="885.52" type="line"/>
    </contour>
  </outline>
</glyph>
<glyph name="question" format="2">
  <advance width="1276.5700000000002"/>
  <unicode hex="003F"/>
  <outline>
    <contour>
      <point x="405.25" y="311.39000000000004" type="line"/>
      <point x="526.64" y="311.39000000000004" type="line"/>
      <point x="526.64" y="562.26" type="line"/>
      <point x="484.98" y="519.41" type="line"/>
      <point x="631.36" y="522.4100000000001" type="line"/>
      <point x="986.05" y="528.9399999999999"/>
      <point x="1160.06" y="660.81"/>
      <point x="1160.06" y="912.23" type="curve" smooth="yes"/>
      <point x="1160.06" y="928.17" type="line" smooth="yes"/>
      <point x="1160.06" y="1167.8300000000002"/>
      <point x="996.6899999999999" y="1299.77"/>
      <point x="632.7399999999999" y="1299.77" type="curve" smooth="yes"/>
      <point x="384.99" y="1299.77"/>
      <point x="197.57999999999998" y="1218.43"/>
      <point x="98.11" y="1154.44" type="curve"/>
      <point x="81.97999999999999" y="1038.24" type="line"/>
      <point x="214.64000000000001" y="1117.17"/>
      <point x="405.21999999999997" y="1187.45"/>
      <point x="619.49" y="1187.45" type="curve" smooth="yes"/>
      <point x="913.68" y="1187.45"/>
      <point x="1023.42" y="1091.8300000000002"/>
      <point x="1023.42" y="923.4" type="curve" smooth="yes"/>
      <point x="1023.42" y="910.5799999999999" type="line" smooth="yes"/>
      <point x="1023.42" y="725.0400000000001"/>
      <point x="890.39" y="622.83"/>
      <point x="584.25" y="616.83" type="curve" smooth="yes"/>
      <point x="405.25" y="613.3" type="line"/>
    </contour>
    <contour>
      <point x="465.71" y="-19.830000000000002" type="curve" smooth="yes"/>
      <point x="532.86" y="-19.830000000000002"/>
      <point x="566.58" y="11.950000000000001"/>
      <point x="566.58" y="67.09" type="curve" smooth="yes"/>
      <point x="566.58" y="71.09" type="line" smooth="yes"/>
      <point x="566.58" y="125.75999999999999"/>
      <point x="532.86" y="157.07000000000002"/>
      <point x="465.71" y="157.07000000000002" type="curve" smooth="yes"/>
      <point x="399.96999999999997" y="157.07000000000002"/>
      <point x="366.31" y="125.75999999999999"/>
      <point x="366.31" y="71.09" type="curve" smooth="yes"/>
      <point x="366.31" y="67.09" type="line" smooth="yes"/>
      <point x="366.31" y="11.950000000000001"/>
      <point x="399.96999999999997" y="-19.830000000000002"/>
    </contour>
  </outline>
</glyph>
<glyph name="at" format="2">
  <advance width="2063.66"/>
  <unicode hex="0040"/>
  <outline>
    <contour>
      <point x="947.5" y="77.52000000000001" type="curve" smooth="yes"/>
      <point x="1152.95" y="77.52000000000001"/>
      <point x="1274.68" y="187.85"/>
      <point x="1314.6899999999998" y="326.59000000000003" type="curve"/>
      <point x="1349.19" y="326.59000000000003" type="line"/>
      <point x="1327.0" y="428.77000000000004" type="line"/>
      <point x="1288.6499999999999" y="287.92"/>
      <point x="1158.74" y="183.07"/>
      <point x="1002.3100000000001" y="183.07" type="curve" smooth="yes"/>
      <point x="842.0" y="183.07"/>
      <point x="748.7299999999999" y="260.64"/>
      <point x="748.7299999999999" y="424.54" type="curve" smooth="yes"/>
      <point x="748.7299999999999" y="427.53999999999996"/>
      <point x="748.73" y="430.07000000000005"/>
      <point x="748.73" y="433.07000000000005" type="curve" smooth="yes"/>
      <point x="751.1999999999999" y="643.43"/>
      <point x="856.7" y="787.81"/>
      <point x="1062.65" y="787.81" type="curve" smooth="yes"/>
      <point x="1215.51" y="787.81"/>
      <point x="1333.0" y="703.76"/>
      <point x="1332.47" y="524.5600000000001" type="curve" smooth="yes"/>
      <point x="1332.47" y="517.5600000000001"/>
      <point x="1332.47" y="510.03000000000003"/>
      <point x="1332.47" y="502.49999999999994" type="curve"/>
      <point x="1378.6699999999998" y="624.6600000000001" type="line"/>
      <point x="1341.23" y="624.6600000000001" type="line"/>
      <point x="1334.4399999999998" y="790.2"/>
      <point x="1223.3000000000002" y="889.6500000000001"/>
      <point x="1028.79" y="889.6500000000001" type="curve" smooth="yes"/>
      <point x="764.56" y="889.6500000000001"/>
      <point x="622.04" y="699.0500000000001"/>
      <point x="619.5699999999999" y="417.99999999999994" type="curve" smooth="yes"/>
      <point x="619.57" y="415.0"/>
      <point x="619.57" y="411.0"/>
      <point x="619.57" y="408.0" type="curve" smooth="yes"/>
      <point x="619.57" y="192.10999999999999"/>
      <point x="749.39" y="77.52000000000001"/>
    </contour>
    <contour>
      <point x="1287.12" y="95.34" type="line"/>
      <point x="1410.92" y="118.66" type="line"/>
      <point x="1483.62" y="867.5899999999999" type="line"/>
      <point x="1363.4099999999999" y="867.5899999999999" type="line"/>
      <point x="1362.4099999999999" y="857.94" type="line"/>
      <point x="1342.0" y="623.6" type="line"/>
      <point x="1341.06" y="599.7099999999999" type="line"/>
      <point x="1317.5300000000002" y="374.82" type="line"/>
      <point x="1317.0" y="349.51" type="line"/>
    </contour>
    <contour>
      <point x="1378.49" y="192.53" type="curve"/>
      <point x="1287.12" y="95.34" type="line"/>
      <point x="1326.07" y="89.34"/>
      <point x="1353.49" y="89.87"/>
      <point x="1398.5500000000002" y="89.87" type="curve" smooth="yes"/>
      <point x="1738.49" y="89.87"/>
      <point x="1947.27" y="244.57999999999998"/>
      <point x="1947.27" y="622.59" type="curve" smooth="yes"/>
      <point x="1947.27" y="626.71"/>
      <point x="1947.27" y="630.83"/>
      <point x="1947.27" y="634.4200000000001" type="curve" smooth="yes"/>
      <point x="1945.8" y="1070.66"/>
      <point x="1646.2" y="1316.49"/>
      <point x="1105.4199999999998" y="1316.49" type="curve" smooth="yes"/>
      <point x="492.40999999999997" y="1316.49"/>
      <point x="136.21" y="980.3100000000001"/>
      <point x="133.74" y="392.24999999999994" type="curve" smooth="yes"/>
      <point x="133.73999999999998" y="388.19"/>
      <point x="133.74" y="384.13"/>
      <point x="133.74" y="379.54" type="curve" smooth="yes"/>
      <point x="133.74" y="-108.01"/>
      <point x="439.58" y="-367.89000000000004"/>
      <point x="993.13" y="-367.89000000000004" type="curve" smooth="yes"/>
      <point x="1317.83" y="-367.89000000000004"/>
      <point x="1555.99" y="-304.84000000000003"/>
      <point x="1730.3000000000002" y="-193.51000000000002" type="curve"/>
      <point x="1753.14" y="-74.79" type="line"/>
      <point x="1577.88" y="-202.77"/>
      <point x="1324.35" y="-272.28999999999996"/>
      <point x="1009.97" y="-272.28999999999996" type="curve" smooth="yes"/>
      <point x="513.58" y="-272.28999999999996"/>
      <point x="248.12" y="-48.26"/>
      <point x="248.11999999999998" y="382.66" type="curve" smooth="yes"/>
      <point x="248.12" y="385.19"/>
      <point x="248.11999999999998" y="389.25"/>
      <point x="248.12000000000003" y="392.31000000000006" type="curve" smooth="yes"/>
      <point x="250.05999999999997" y="923.91"/>
      <point x="552.22" y="1223.07"/>
      <point x="1099.18" y="1223.07" type="curve" smooth="yes"/>
      <point x="1579.6799999999998" y="1223.07"/>
      <point x="1830.9499999999998" y="1015.1500000000001"/>
      <point x="1832.8899999999999" y="634.89" type="curve" smooth="yes"/>
      <point x="1832.89" y="631.3000000000001"/>
      <point x="1832.8899999999999" y="626.1800000000001"/>
      <point x="1832.89" y="622.59" type="curve" smooth="yes"/>
      <point x="1832.89" y="315.46"/>
      <point x="1683.8" y="188.0"/>
      <point x="1451.1999999999998" y="188.0" type="curve" smooth="yes"/>
      <point x="1413.61" y="188.0"/>
      <point x="1397.6100000000001" y="189.47"/>
    </contour>
  </outline>
</glyph>
<glyph name="A" format="2">
  <advance width="1571.3400000000001"/>
  <unicode hex="0041"/>
  <anchor x="785.6700000000001" y="0.0" name="bottom"/>
  <anchor x="1549.5900000000001" y="2.6500000000000004" name="ogonek"/>
  <anchor x="785.6700000000001" y="1278.0" name="top"/>
  <outline>
    <contour>
      <point x="63.449999999999996" y="0.0" type="line"/>
      <point x="205.62" y="0.0" type="line"/>
      <point x="770.26" y="1188.76" type="line"/>
      <point x="803.2" y="1188.76" type="line"/>
      <point x="1365.7199999999998" y="0.0" type="line"/>
      <point x="1507.89" y="0.0" type="line"/>
      <point x="895.5100000000001" y="1278.0" type="line"/>
      <point x="677.9499999999999" y="1278.0" type="line"/>
    </contour>
    <contour>
      <point x="365.27" y="397.71" type="line"/>
      <point x="1206.0700000000002" y="397.71" type="line"/>
      <point x="1206.0700000000002" y="509.0899999999999" type="line"/>
      <point x="365.27" y="509.0899999999999" type="line"/>
    </contour>
  </outline>
</glyph>
<glyph name="B" format="2">
  <advance width="1602.36"/>
  <unicode hex="0042"/>
  <anchor x="802.2399999999999" y="0.0" name="bottom"/>
  <anchor x="802.2399999999999" y="1278.0" name="top"/>
  <outline>
    <contour>
      <point x="302.23" y="0.0" type="line"/>
      <point x="1054.3400000000001" y="0.0" type="line" smooth="yes"/>
      <point x="1347.31" y="0.0"/>
      <point x="1478.3799999999999" y="134.06"/>
      <point x="1478.3799999999999" y="340.78000000000003" type="curve" smooth="yes"/>
      <point x="1478.3799999999999" y="359.6" type="line" smooth="yes"/>
      <point x="1478.3799999999999" y="553.89"/>
      <point x="1366.8" y="669.6999999999999"/>
      <point x="1145.25" y="682.95" type="curve"/>
      <point x="1136.79" y="681.14" type="line"/>
      <point x="1339.0400000000002" y="688.56"/>
      <point x="1437.44" y="797.7800000000001"/>
      <point x="1437.44" y="954.0" type="curve" smooth="yes"/>
      <point x="1437.44" y="971.3499999999999" type="line" smooth="yes"/>
      <point x="1437.44" y="1160.83"/>
      <point x="1313.08" y="1278.0"/>
      <point x="1025.3999999999999" y="1278.0" type="curve" smooth="yes"/>
      <point x="302.23" y="1278.0" type="line"/>
      <point x="302.23" y="1167.68" type="line"/>
      <point x="1018.63" y="1167.68" type="line" smooth="yes"/>
      <point x="1215.35" y="1167.68"/>
      <point x="1299.92" y="1082.94"/>
      <point x="1299.92" y="948.1500000000001" type="curve" smooth="yes"/>
      <point x="1299.92" y="934.27" type="line" smooth="yes"/>
      <point x="1299.92" y="804.5400000000001"/>
      <point x="1215.3500000000001" y="714.92"/>
      <point x="1028.03" y="714.92" type="curve" smooth="yes"/>
      <point x="302.23" y="714.92" type="line"/>
      <point x="302.23" y="606.72" type="line"/>
      <point x="1040.57" y="606.72" type="line" smooth="yes"/>
      <point x="1251.52" y="606.72"/>
      <point x="1337.68" y="515.1"/>
      <point x="1337.68" y="366.08000000000004" type="curve" smooth="yes"/>
      <point x="1337.68" y="350.72999999999996" type="line" smooth="yes"/>
      <point x="1337.68" y="205.59"/>
      <point x="1248.5800000000002" y="111.91000000000001"/>
      <point x="1045.45" y="111.91000000000001" type="curve" smooth="yes"/>
      <point x="302.23" y="111.91000000000001" type="line"/>
    </contour>
    <contour>
      <point x="208.97" y="0.0" type="line"/>
      <point x="343.37" y="0.0" type="line"/>
      <point x="343.37" y="1278.0" type="line"/>
      <point x="208.97" y="1278.0" type="line"/>
    </contour>
  </outline>
</glyph>
<glyph name="C" format="2">
  <advance width="1510.3899999999999"/>
  <unicode hex="0043"/>
  <anchor x="817.5799999999999" y="0.0" name="bottom"/>
  <anchor x="817.5799999999999" y="1278.0" name="top"/>
  <outline>
    <contour>
      <point x="843.5999999999999" y="-27.36" type="curve" smooth="yes"/>
      <point x="1089.0500000000002" y="-27.36"/>
      <point x="1267.63" y="51.15"/>
      <point x="1370.4" y="121.61" type="curve"/>
      <point x="1382.82" y="248.29000000000002" type="line"/>
      <point x="1257.29" y="162.01"/>
      <point x="1083.5300000000002" y="88.61000000000001"/>
      <point x="852.73" y="88.61000000000001" type="curve" smooth="yes"/>
      <point x="467.77" y="88.61000000000001"/>
      <point x="268.33000000000004" y="286.29"/>
      <point x="268.33000000000004" y="631.1199999999999" type="curve" smooth="yes"/>
      <point x="268.33000000000004" y="651.0600000000001" type="line" smooth="yes"/>
      <point x="268.33000000000004" y="994.7700000000001"/>
      <point x="468.3" y="1190.45"/>
      <point x="836.61" y="1190.45" type="curve" smooth="yes"/>
      <point x="1073.83" y="1190.45"/>
      <point x="1246.2900000000002" y="1114.5800000000002"/>
      <point x="1369.35" y="1030.71" type="curve"/>
      <point x="1355.93" y="1156.92" type="line"/>
      <point x="1255.04" y="1225.97"/>
      <point x="1077.52" y="1305.3600000000001"/>
      <point x="830.19" y="1305.3600000000001" type="curve" smooth="yes"/>
      <point x="373.87" y="1305.3600000000001"/>
      <point x="126.1" y="1066.0600000000002"/>
      <point x="126.1" y="650.53" type="curve" smooth="yes"/>
      <point x="126.1" y="630.59" type="line" smooth="yes"/>
      <point x="126.1" y="212.41"/>
      <point x="374.93" y="-27.36"/>
    </contour>
  </outline>
</glyph>
<glyph name="D" format="2">
  <advance width="1626.07"/>
  <unicode hex="0044"/>
  <anchor x="796.12" y="0.0" name="bottom"/>
  <anchor x="813.3" y="639.0" name="center"/>
  <anchor x="796.12" y="1278.0" name="top"/>
  <outline>
    <contour>
      <point x="310.05" y="0.0" type="line"/>
      <point x="812.78" y="0.0" type="line" smooth="yes"/>
      <point x="1258.91" y="0.0"/>
      <point x="1501.03" y="226.0"/>
      <point x="1501.03" y="630.06" type="curve" smooth="yes"/>
      <point x="1501.03" y="650.53" type="line" smooth="yes"/>
      <point x="1501.03" y="1053.53"/>
      <point x="1258.91" y="1278.0"/>
      <point x="812.78" y="1278.0" type="curve" smooth="yes"/>
      <point x="301.7" y="1278.0" type="line"/>
      <point x="301.7" y="1166.09" type="line"/>
      <point x="809.07" y="1166.09" type="line" smooth="yes"/>
      <point x="1167.54" y="1166.09"/>
      <point x="1359.33" y="981.53"/>
      <point x="1359.33" y="650.0" type="curve" smooth="yes"/>
      <point x="1359.33" y="630.06" type="line" smooth="yes"/>
      <point x="1359.33" y="299.46999999999997"/>
      <point x="1167.54" y="111.91000000000001"/>
      <point x="809.07" y="111.91000000000001" type="curve" smooth="yes"/>
      <point x="310.05" y="111.91000000000001" type="line"/>
    </contour>
    <contour>
      <point x="208.97" y="0.0" type="line"/>
      <point x="345.96000000000004" y="0.0" type="line"/>
      <point x="345.96000000000004" y="1278.0" type="line"/>
      <point x="208.97" y="1278.0" type="line"/>
    </contour>
  </outline>
</glyph>
<glyph name="E" format="2">
  <advance width="1467.83"/>
  <unicode hex="0045"/>
  <anchor x="776.29" y="0.0" name="bottom"/>
  <anchor x="1359.71" y="2.6500000000000004" name="ogonek"/>
  <anchor x="776.29" y="1278.0" name="top"/>
  <anchor x="20.0" y="1278.0" name="topleft"/>
  <outline>
    <contour>
      <point x="208.97" y="0.0" type="line"/>
      <point x="343.37" y="0.0" type="line"/>
      <point x="343.37" y="1278.0" type="line"/>
      <point x="208.97" y="1278.0" type="line"/>
    </contour>
    <contour>
      <point x="225.14" y="0.0" type="line"/>
      <point x="1328.14" y="0.0" type="line"/>
      <point x="1328.14" y="111.91000000000001" type="line"/>
      <point x="225.14" y="111.91000000000001" type="line"/>
    </contour>
    <contour>
      <point x="279.72999999999996" y="595.72" type="line"/>
      <point x="1292.08" y="595.72" type="line"/>
      <point x="1292.08" y="706.0400000000001" type="line"/>
      <point x="279.72999999999996" y="706.0400000000001" type="line"/>
    </contour>
    <contour>
      <point x="225.14000000000001" y="1166.09" type="line"/>
      <point x="1316.0200000000002" y="1166.09" type="line"/>
      <point x="1316.0200000000002" y="1278.0" type="line"/>
      <point x="225.14000000000001" y="1278.0" type="line"/>
    </contour>
  </outline>
</glyph>
<glyph name="F" format="2">
  <advance width="1407.77"/>
  <unicode hex="0046"/>
  <anchor x="704.65" y="0.0" name="bottom"/>
  <anchor x="704.65" y="1278.0" name="top"/>
  <outline>
    <contour>
      <point x="208.97" y="0.0" type="line"/>
      <point x="344.37" y="0.0" type="line"/>
      <point x="344.37" y="1278.0" type="line"/>
      <point x="208.97" y="1278.0" type="line"/>
    </contour>
    <contour>
      <point x="279.72999999999996" y="549.2299999999999" type="line"/>
      <point x="1266.9599999999998" y="549.2299999999999" type="line"/>
      <point x="1266.9599999999998" y="661.14" type="line"/>
      <point x="279.72999999999996" y="661.14" type="line"/>
    </contour>
    <contour>
      <point x="225.14000000000001" y="1166.09" type="line"/>
      <point x="1286.49" y="1166.09" type="line"/>
      <point x="1286.49" y="1278.0" type="line"/>
      <point x="225.14000000000001" y="1278.0" type="line"/>
    </contour>
  </outline>
</glyph>
<glyph name="G" format="2">
  <advance width="1676.24"/>
  <unicode hex="0047"/>
  <anchor x="838.12" y="0.0" name="bottom"/>
  <anchor x="838.12" y="1278.0" name="top"/>
  <outline>
    <contour>
      <point x="816.62" y="-27.360000000000003" type="curve" smooth="yes"/>
      <point x="1152.83" y="-27.360000000000003"/>
      <point x="1312.98" y="127.67"/>
      <point x="1359.8600000000001" y="278.43" type="curve"/>
      <point x="1489.97" y="278.43" type="line"/>
      <point x="1489.97" y="689.62" type="line"/>
      <point x="865.59" y="689.62" type="line"/>
      <point x="865.59" y="579.77" type="line"/>
      <point x="1381.58" y="580.83" type="line"/>
      <point x="1359.22" y="630.33" type="line"/>
      <point x="1359.22" y="371.66" type="line"/>
      <point x="1302.81" y="218.51999999999998"/>
      <point x="1133.25" y="87.55"/>
      <point x="853.6" y="87.55" type="curve" smooth="yes"/>
      <point x="473.18" y="87.55"/>
      <point x="268.33000000000004" y="284.23"/>
      <point x="268.33000000000004" y="628.47" type="curve" smooth="yes"/>
      <point x="268.33000000000004" y="648.41" type="line" smooth="yes"/>
      <point x="268.33000000000004" y="994.4200000000001"/>
      <point x="475.95000000000005" y="1189.92"/>
      <point x="870.39" y="1189.92" type="curve" smooth="yes"/>
      <point x="1127.67" y="1189.92"/>
      <point x="1317.3100000000002" y="1114.05"/>
      <point x="1454.79" y="1030.18" type="curve"/>
      <point x="1440.31" y="1153.21" type="line"/>
      <point x="1325.06" y="1224.91"/>
      <point x="1131.36" y="1305.3600000000001"/>
      <point x="860.1999999999999" y="1305.3600000000001" type="curve" smooth="yes"/>
      <point x="381.58" y="1305.3600000000001"/>
      <point x="126.1" y="1062.59"/>
      <point x="126.1" y="646.8199999999999" type="curve" smooth="yes"/>
      <point x="126.1" y="627.41" type="line" smooth="yes"/>
      <point x="126.1" y="209.29000000000002"/>
      <point x="379.81" y="-27.360000000000003"/>
    </contour>
    <contour>
      <point x="1363.7499999999998" y="306.62" type="line"/>
      <point x="1357.1" y="0.0" type="line"/>
      <point x="1489.97" y="0.0" type="line"/>
      <point x="1489.97" y="306.62" type="line"/>
    </contour>
  </outline>
</glyph>
<glyph name="H" format="2">
  <advance width="1673.9"/>
  <unicode hex="0048"/>
  <anchor x="836.95" y="0.0" name="bottom"/>
  <anchor x="836.95" y="639.0" name="center"/>
  <anchor x="836.95" y="1278.0" name="top"/>
  <anchor x="20.0" y="1278.0" name="topleft"/>
  <outline>
    <contour>
      <point x="345.96" y="0.0" type="line"/>
      <point x="345.96" y="1278.0" type="line"/>
      <point x="208.97" y="1278.0" type="line"/>
      <point x="208.97" y="0.0" type="line"/>
    </contour>
    <contour>
      <point x="1464.93" y="0.0" type="line"/>
      <point x="1464.93" y="1278.0" type="line"/>
      <point x="1327.94" y="1278.0" type="line"/>
      <point x="1327.94" y="0.0" type="line"/>
    </contour>
    <contour>
      <point x="280.73" y="716.57" type="line"/>
      <point x="280.73" y="604.19" type="line"/>
      <point x="1390.22" y="604.19" type="line"/>
      <point x="1390.22" y="716.57" type="line"/>
    </contour>
  </outline>
</glyph>
<glyph name="I" format="2">
  <advance width="560.8100000000001"/>
  <unicode hex="0049"/>
  <anchor x="280.67" y="0.0" name="bottom"/>
  <anchor x="391.59999999999997" y="2.6500000000000004" name="ogonek"/>
  <anchor x="280.67" y="1278.0" name="top"/>
  <anchor x="20.0" y="1278.0" name="topleft"/>
  <outline>
    <contour>
      <point x="348.9" y="0.0" type="line"/>
      <point x="348.9" y="1278.0" type="line"/>
      <point x="211.91" y="1278.0" type="line"/>
      <point x="211.91" y="0.0" type="line"/>
    </contour>
  </outline>
</glyph>
<glyph name="J" format="2">
  <advance width="1163.85"/>
  <unicode hex="004A"/>
  <anchor x="583.6899999999999" y="0.0" name="bottom"/>
  <anchor x="896.0600000000001" y="1278.0" name="top"/>
  <outline>
    <contour>
      <point x="463.62" y="-12.71" type="curve" smooth="yes"/>
      <point x="828.75" y="-12.71"/>
      <point x="966.3499999999999" y="153.53"/>
      <point x="966.3499999999999" y="480.84" type="curve" smooth="yes"/>
      <point x="966.3499999999999" y="1278.0" type="line"/>
      <point x="829.36" y="1278.0" type="line"/>
      <point x="829.36" y="486.14000000000004" type="line" smooth="yes"/>
      <point x="829.36" y="228.36"/>
      <point x="727.14" y="105.38000000000001"/>
      <point x="451.31" y="105.38000000000001" type="curve" smooth="yes"/>
      <point x="324.67" y="105.38000000000001"/>
      <point x="200.08999999999997" y="131.38"/>
      <point x="90.1" y="180.37" type="curve"/>
      <point x="105.17" y="56.279999999999994" type="line"/>
      <point x="205.46" y="12.58"/>
      <point x="334.16" y="-12.71"/>
    </contour>
  </outline>
</glyph>
<glyph name="K" format="2">
  <advance width="1523.49"/>
  <unicode hex="004B"/>
  <anchor x="762.01" y="0.0" name="bottom"/>
  <anchor x="762.01" y="1278.0" name="top"/>
  <outline>
    <contour>
      <point x="1268.09" y="0.0" type="line"/>
      <point x="1455.05" y="0.0" type="line"/>
      <point x="670.4" y="677.25" type="line"/>
      <point x="670.4" y="635.76" type="line"/>
      <point x="1439.05" y="1278.0" type="line"/>
      <point x="1259.7400000000002" y="1278.0" type="line"/>
      <point x="571.0799999999999" y="708.81" type="line"/>
      <point x="330.13" y="708.81" type="line"/>
      <point x="330.13" y="594.78" type="line"/>
      <point x="568.55" y="594.78" type="line"/>
    </contour>
    <contour>
      <point x="208.97" y="0.0" type="line"/>
      <point x="345.43" y="0.0" type="line"/>
      <point x="345.43" y="1278.0" type="line"/>
      <point x="208.97" y="1278.0" type="line"/>
    </contour>
  </outline>
</glyph>
<glyph name="L" format="2">
  <advance width="1363.29"/>
  <unicode hex="004C"/>
  <anchor x="736.05" y="0.0" name="bottom"/>
  <anchor x="681.88" y="639.0" name="center"/>
  <anchor x="277.72999999999996" y="1278.0" name="top"/>
  <anchor x="935.96" y="1278.0" name="topright"/>
  <outline>
    <contour>
      <point x="345.96" y="0.0" type="line"/>
      <point x="345.96" y="1278.0" type="line"/>
      <point x="208.97" y="1278.0" type="line"/>
      <point x="208.97" y="0.0" type="line"/>
    </contour>
    <contour>
      <point x="279.73" y="112.97000000000001" type="line"/>
      <point x="279.73" y="0.0" type="line"/>
      <point x="1272.8300000000002" y="0.0" type="line"/>
      <point x="1272.8300000000002" y="112.97000000000001" type="line"/>
    </contour>
  </outline>
</glyph>
<glyph name="M" format="2">
  <advance width="1960.2"/>
  <unicode hex="004D"/>
  <anchor x="980.6" y="0.0" name="bottom"/>
  <anchor x="980.6" y="1278.0" name="top"/>
  <outline>
    <contour>
      <point x="166.92" y="0.0" type="line"/>
      <point x="302.85" y="0.0" type="line"/>
      <point x="344.78" y="595.42" type="line"/>
      <point x="382.12" y="1143.3000000000002" type="line"/>
      <point x="410.0" y="1143.3000000000002" type="line"/>
      <point x="902.2" y="158.41" type="line"/>
      <point x="1058.53" y="158.41" type="line"/>
      <point x="1549.67" y="1143.3000000000002" type="line"/>
      <point x="1577.02" y="1143.3000000000002" type="line"/>
      <point x="1614.8899999999999" y="594.42" type="line"/>
      <point x="1657.3500000000001" y="0.0" type="line"/>
      <point x="1793.28" y="0.0" type="line"/>
      <point x="1695.8799999999999" y="1278.0" type="line"/>
      <point x="1482.74" y="1278.0" type="line"/>
      <point x="989.48" y="286.75" type="line"/>
      <point x="970.19" y="286.75" type="line"/>
      <point x="477.99" y="1278.0" type="line"/>
      <point x="264.32000000000005" y="1278.0" type="line"/>
    </contour>
  </outline>
</glyph>
<glyph name="N" format="2">
  <advance width="1673.9"/>
  <unicode hex="004E"/>
  <anchor x="836.9499999999999" y="0.0" name="bottom"/>
  <anchor x="836.9499999999999" y="1278.0" name="top"/>
  <outline>
    <contour>
      <point x="417.88000000000005" y="1278.0" type="line"/>
      <point x="208.97" y="1278.0" type="line"/>
      <point x="208.97" y="0.0" type="line"/>
      <point x="345.96" y="0.0" type="line"/>
      <point x="345.96" y="567.13" type="line"/>
      <point x="341.25" y="1156.96" type="line"/>
      <point x="359.25" y="1156.96" type="line"/>
      <point x="1262.91" y="0.0" type="line"/>
      <point x="1464.93" y="0.0" type="line"/>
      <point x="1464.93" y="1278.0" type="line"/>
      <point x="1328.47" y="1278.0" type="line"/>
      <point x="1328.47" y="659.67" type="line"/>
      <point x="1333.18" y="130.58" type="line"/>
      <point x="1315.18" y="130.58" type="line"/>
    </contour>
  </outline>
</glyph>
<glyph name="O" format="2">
  <advance width="1674.73"/>
  <unicode hex="004F"/>
  <anchor x="837.6" y="0.0" name="bottom"/>
  <anchor x="837.6" y="639.0" name="center"/>
  <anchor x="1136.2" y="2.6500000000000004" name="ogonek"/>
  <anchor x="837.6" y="1278.0" name="top"/>
  <anchor x="20.0" y="1278.0" name="topleft"/>
  <anchor x="1340.1" y="1278.0" name="topright"/>
  <outline>
    <contour>
      <point x="837.13" y="-27.360000000000003" type="curve" smooth="yes"/>
      <point x="1295.6200000000001" y="-27.360000000000003"/>
      <point x="1548.6299999999999" y="210.35"/>
      <point x="1548.6299999999999" y="630.06" type="curve" smooth="yes"/>
      <point x="1548.6299999999999" y="648.9399999999999" type="line" smooth="yes"/>
      <point x="1549.1" y="1068.6499999999999"/>
      <point x="1295.6200000000001" y="1305.36"/>
      <point x="837.13" y="1305.36" type="curve" smooth="yes"/>
      <point x="379.11" y="1305.36"/>
      <point x="126.1" y="1068.6499999999999"/>
      <point x="126.1" y="648.9399999999999" type="curve" smooth="yes"/>
      <point x="126.1" y="630.06" type="line" smooth="yes"/>
      <point x="126.1" y="210.35"/>
      <point x="379.11" y="-27.360000000000003"/>
    </contour>
    <contour>
      <point x="837.13" y="87.02" type="curve" smooth="yes"/>
      <point x="464.65" y="87.02"/>
      <point x="268.33000000000004" y="285.82"/>
      <point x="268.33000000000004" y="629.53" type="curve" smooth="yes"/>
      <point x="268.33000000000004" y="649.47" type="line" smooth="yes"/>
      <point x="268.33000000000004" y="993.1200000000001"/>
      <point x="464.65" y="1190.98"/>
      <point x="837.13" y="1190.98" type="curve" smooth="yes"/>
      <point x="1209.5500000000002" y="1190.98"/>
      <point x="1406.3999999999999" y="993.1200000000001"/>
      <point x="1406.3999999999999" y="649.47" type="curve" smooth="yes"/>
      <point x="1406.3999999999999" y="629.53" type="line" smooth="yes"/>
      <point x="1406.3999999999999" y="285.82"/>
      <point x="1209.5500000000002" y="87.02"/>
    </contour>
  </outline>
</glyph>
<glyph name="P" format="2">
  <advance width="1518.9499999999998"/>
  <unicode hex="0050"/>
  <anchor x="759.7099999999999" y="0.0" name="bottom"/>
  <anchor x="759.7099999999999" y="1278.0" name="top"/>
  <outline>
    <contour>
      <point x="308.93" y="447.42999999999995" type="line"/>
      <point x="931.6800000000001" y="447.42999999999995" type="line" smooth="yes"/>
      <point x="1260.6000000000001" y="447.42999999999995"/>
      <point x="1411.9099999999999" y="606.6099999999999"/>
      <point x="1411.9099999999999" y="852.51" type="curve" smooth="yes"/>
      <point x="1411.9099999999999" y="872.86" type="line" smooth="yes"/>
      <point x="1411.9099999999999" y="1120.3500000000001"/>
      <point x="1260.6000000000001" y="1278.0"/>
      <point x="931.68" y="1278.0" type="curve" smooth="yes"/>
      <point x="300.58000000000004" y="1278.0" type="line"/>
      <point x="300.58000000000004" y="1166.62" type="line"/>
      <point x="930.74" y="1166.62" type="line" smooth="yes"/>
      <point x="1168.64" y="1166.62"/>
      <point x="1271.21" y="1053.5900000000001"/>
      <point x="1271.21" y="871.92" type="curve" smooth="yes"/>
      <point x="1271.21" y="853.51" type="line" smooth="yes"/>
      <point x="1271.21" y="671.8399999999999"/>
      <point x="1168.6399999999999" y="559.34"/>
      <point x="930.74" y="559.34" type="curve" smooth="yes"/>
      <point x="308.93" y="559.34" type="line"/>
    </contour>
    <contour>
      <point x="208.97" y="0.0" type="line"/>
      <point x="344.37" y="0.0" type="line"/>
      <point x="344.37" y="467.09" type="line"/>
      <point x="344.37" y="523.9" type="line"/>
      <point x="344.37" y="1278.0" type="line"/>
      <point x="208.97" y="1278.0" type="line"/>
    </contour>
  </outline>
</glyph>
<glyph name="Q" format="2">
  <advance width="1676.2"/>
  <unicode hex="0051"/>
  <anchor x="838.6" y="0.0" name="bottom"/>
  <anchor x="838.6" y="1278.0" name="top"/>
  <outline>
    <contour>
      <point x="1662.39" y="-42.72" type="line"/>
      <point x="1662.39" y="78.43" type="line"/>
      <point x="1047.3899999999999" y="74.60000000000001" type="line"/>
      <point x="1050.6799999999998" y="77.67" type="line"/>
      <point x="1317.1000000000001" y="106.33000000000001"/>
      <point x="1548.6299999999999" y="279.48"/>
      <point x="1548.6299999999999" y="636.42" type="curve" smooth="yes"/>
      <point x="1548.6299999999999" y="654.24" type="line" smooth="yes"/>
      <point x="1548.6299999999999" y="1066.0"/>
      <point x="1296.68" y="1305.36"/>
      <point x="837.13" y="1305.36" type="curve" smooth="yes"/>
      <point x="379.11" y="1305.36"/>
      <point x="126.1" y="1068.65"/>
      <point x="126.1" y="649.47" type="curve" smooth="yes"/>
      <point x="126.1" y="632.53" type="line" smooth="yes"/>
      <point x="126.1" y="216.29"/>
      <point x="383.75" y="-15.77"/>
      <point x="893.91" y="-26.48" type="curve" smooth="yes"/>
    </contour>
    <contour>
      <point x="876.95" y="87.55" type="line" smooth="yes"/>
      <point x="497.24" y="91.79"/>
      <point x="268.33000000000004" y="288.11"/>
      <point x="268.33000000000004" y="630.5899999999999" type="curve" smooth="yes"/>
      <point x="268.33000000000004" y="649.47" type="line" smooth="yes"/>
      <point x="268.33000000000004" y="993.1199999999999"/>
      <point x="465.18" y="1190.98"/>
      <point x="836.6" y="1190.98" type="curve" smooth="yes"/>
      <point x="1209.02" y="1190.98"/>
      <point x="1406.3999999999999" y="993.1199999999999"/>
      <point x="1406.3999999999999" y="649.47" type="curve" smooth="yes"/>
      <point x="1406.3999999999999" y="631.1199999999999" type="line" smooth="yes"/>
      <point x="1406.3999999999999" y="274.13"/>
      <point x="1160.9199999999998" y="121.25999999999999"/>
      <point x="907.14" y="87.02" type="curve"/>
    </contour>
  </outline>
</glyph>
<glyph name="R" format="2">
  <advance width="1572.71"/>
  <unicode hex="0052"/>
  <anchor x="797.1199999999999" y="0.0" name="bottom"/>
  <anchor x="787.12" y="1278.0" name="top"/>
  <outline>
    <contour>
      <point x="1302.8" y="0.0" type="line"/>
      <point x="1447.68" y="0.0" type="line"/>
      <point x="1393.2100000000003" y="254.7" type="line" smooth="yes"/>
      <point x="1349.0300000000002" y="461.95000000000005"/>
      <point x="1281.2700000000002" y="595.7"/>
      <point x="1022.27" y="602.59" type="curve"/>
      <point x="1098.6100000000001" y="583.22" type="line"/>
      <point x="1098.6100000000001" y="593.77" type="line"/>
      <point x="1326.51" y="608.08"/>
      <point x="1428.6100000000001" y="729.41"/>
      <point x="1428.6100000000001" y="911.99" type="curve" smooth="yes"/>
      <point x="1428.6100000000001" y="927.87" type="line" smooth="yes"/>
      <point x="1428.6100000000001" y="1142.59"/>
      <point x="1291.42" y="1278.0"/>
      <point x="989.2099999999999" y="1278.0" type="curve" smooth="yes"/>
      <point x="297.4" y="1278.0" type="line"/>
      <point x="297.4" y="1167.6799999999998" type="line"/>
      <point x="974.49" y="1167.6799999999998" type="line" smooth="yes"/>
      <point x="1194.81" y="1167.6799999999998"/>
      <point x="1290.03" y="1067.82"/>
      <point x="1290.03" y="908.38" type="curve" smooth="yes"/>
      <point x="1290.03" y="895.97" type="line" smooth="yes"/>
      <point x="1290.03" y="737.88"/>
      <point x="1191.75" y="628.5500000000001"/>
      <point x="976.0699999999999" y="628.5500000000001" type="curve" smooth="yes"/>
      <point x="297.4" y="628.02" type="line"/>
      <point x="297.4" y="520.88" type="line"/>
      <point x="924.49" y="520.35" type="line" smooth="yes"/>
      <point x="1162.5200000000002" y="520.3499999999999"/>
      <point x="1219.63" y="405.78999999999996"/>
      <point x="1256.04" y="228.21" type="curve" smooth="yes"/>
    </contour>
    <contour>
      <point x="208.97" y="0.0" type="line"/>
      <point x="343.84000000000003" y="0.0" type="line"/>
      <point x="343.84000000000003" y="537.71" type="line"/>
      <point x="343.84" y="589.63" type="line"/>
      <point x="343.84" y="1278.0" type="line"/>
      <point x="208.97" y="1278.0" type="line"/>
    </contour>
  </outline>
</glyph>
<glyph name="S" format="2">
  <advance width="1456.24"/>
  <unicode hex="0053"/>
  <anchor x="724.59" y="0.0" name="bottom"/>
  <anchor x="724.59" y="1278.0" name="top"/>
  <outline>
    <contour>
      <point x="732.6999999999999" y="-25.24" type="curve" smooth="yes"/>
      <point x="1127.08" y="-25.24"/>
      <point x="1328.3799999999999" y="96.41"/>
      <point x="1328.3799999999999" y="348.25" type="curve" smooth="yes"/>
      <point x="1328.3799999999999" y="350.9" type="line" smooth="yes"/>
      <point x="1328.3799999999999" y="607.74"/>
      <point x="1177.59" y="685.97"/>
      <point x="742.08" y="717.33" type="curve" smooth="yes"/>
      <point x="350.25" y="745.04"/>
      <point x="268.56" y="812.14"/>
      <point x="268.56" y="957.69" type="curve" smooth="yes"/>
      <point x="268.56" y="958.22" type="line" smooth="yes"/>
      <point x="268.56" y="1101.18"/>
      <point x="383.94" y="1187.92"/>
      <point x="687.96" y="1187.92" type="curve" smooth="yes"/>
      <point x="939.0" y="1187.92"/>
      <point x="1131.8899999999999" y="1125.8100000000002"/>
      <point x="1267.0800000000002" y="1052.87" type="curve"/>
      <point x="1251.48" y="1176.49" type="line"/>
      <point x="1141.82" y="1235.31"/>
      <point x="951.53" y="1301.77"/>
      <point x="678.83" y="1301.77" type="curve" smooth="yes"/>
      <point x="299.17" y="1301.77"/>
      <point x="126.86" y="1178.18"/>
      <point x="126.86" y="958.22" type="curve" smooth="yes"/>
      <point x="126.86" y="956.1" type="line" smooth="yes"/>
      <point x="126.86" y="733.37"/>
      <point x="258.65000000000003" y="634.4300000000001"/>
      <point x="704.22" y="605.6" type="curve" smooth="yes"/>
      <point x="1076.99" y="581.95"/>
      <point x="1186.15" y="527.2"/>
      <point x="1186.15" y="348.31" type="curve" smooth="yes"/>
      <point x="1186.15" y="347.25" type="line" smooth="yes"/>
      <point x="1186.15" y="176.53"/>
      <point x="1036.48" y="92.85000000000001"/>
      <point x="733.64" y="92.85000000000001" type="curve" smooth="yes"/>
      <point x="472.89000000000004" y="92.85000000000001"/>
      <point x="260.17" y="173.61"/>
      <point x="118.34" y="255.77999999999997" type="curve"/>
      <point x="133.41" y="119.74" type="line"/>
      <point x="246.48" y="58.56999999999999"/>
      <point x="451.53999999999996" y="-25.24"/>
    </contour>
  </outline>
</glyph>
<glyph name="T" format="2">
  <advance width="1475.37"/>
  <unicode hex="0054"/>
  <anchor x="737.95" y="0.0" name="bottom"/>
  <anchor x="737.95" y="639.0" name="center"/>
  <anchor x="737.95" y="1278.0" name="top"/>
  <outline>
    <contour>
      <point x="669.1899999999999" y="0.0" type="line"/>
      <point x="806.1800000000001" y="0.0" type="line"/>
      <point x="806.1800000000001" y="1240.3700000000001" type="line"/>
      <point x="669.1899999999999" y="1240.3700000000001" type="line"/>
    </contour>
    <contour>
      <point x="93.39999999999999" y="1166.09" type="line"/>
      <point x="1381.9699999999998" y="1166.09" type="line"/>
      <point x="1381.9699999999998" y="1278.0" type="line"/>
      <point x="93.39999999999999" y="1278.0" type="line"/>
    </contour>
  </outline>
</glyph>
<glyph name="U" format="2">
  <advance width="1646.43"/>
  <unicode hex="0055"/>
  <anchor x="823.48" y="0.0" name="bottom"/>
  <anchor x="1114.8899999999999" y="2.6500000000000004" name="ogonek"/>
  <anchor x="823.48" y="1278.0" name="top"/>
  <anchor x="1604.3799999999999" y="1278.0" name="topright"/>
  <outline>
    <contour>
      <point x="823.48" y="-27.360000000000003" type="curve" smooth="yes"/>
      <point x="1251.57" y="-27.360000000000003"/>
      <point x="1450.93" y="187.17"/>
      <point x="1450.93" y="586.4200000000001" type="curve" smooth="yes"/>
      <point x="1450.93" y="1278.0" type="line"/>
      <point x="1313.94" y="1278.0" type="line"/>
      <point x="1313.94" y="588.42" type="line" smooth="yes"/>
      <point x="1313.94" y="265.7"/>
      <point x="1162.79" y="88.61"/>
      <point x="823.48" y="88.61" type="curve" smooth="yes"/>
      <point x="484.17" y="88.61"/>
      <point x="332.49" y="265.7"/>
      <point x="332.49" y="588.42" type="curve" smooth="yes"/>
      <point x="332.49" y="1278.0" type="line"/>
      <point x="195.5" y="1278.0" type="line"/>
      <point x="195.5" y="586.4200000000001" type="line" smooth="yes"/>
      <point x="195.5" y="187.17"/>
      <point x="395.45" y="-27.360000000000003"/>
    </contour>
  </outline>
</glyph>
<glyph name="V" format="2">
  <advance width="1541.97"/>
  <unicode hex="0056"/>
  <anchor x="771.25" y="0.0" name="bottom"/>
  <anchor x="771.25" y="1278.0" name="top"/>
  <outline>
    <contour>
      <point x="662.47" y="0.0" type="line"/>
      <point x="880.5600000000001" y="0.0" type="line"/>
      <point x="1478.52" y="1278.0" type="line"/>
      <point x="1331.05" y="1278.0" type="line"/>
      <point x="785.1899999999999" y="105.67" type="line"/>
      <point x="756.7800000000001" y="105.67" type="line"/>
      <point x="210.92000000000002" y="1278.0" type="line"/>
      <point x="63.449999999999996" y="1278.0" type="line"/>
    </contour>
  </outline>
</glyph>
<glyph name="W" format="2">
  <advance width="2196.59"/>
  <unicode hex="0057"/>
  <anchor x="1098.53" y="0.0" name="bottom"/>
  <anchor x="1098.53" y="1278.0" name="top"/>
  <outline>
    <contour>
      <point x="509.11" y="0.0" type="line"/>
      <point x="723.61" y="0.0" type="line"/>
      <point x="984.21" y="805.67" type="line"/>
      <point x="1088.59" y="1128.0900000000001" type="line"/>
      <point x="1108.0" y="1128.0900000000001" type="line"/>
      <point x="1212.3799999999999" y="805.67" type="line"/>
      <point x="1472.98" y="0.0" type="line"/>
      <point x="1687.48" y="0.0" type="line"/>
      <point x="2111.14" y="1278.0" type="line"/>
      <point x="1965.26" y="1278.0" type="line"/>
      <point x="1610.17" y="185.58" type="line"/>
      <point x="1588.52" y="115.09" type="line"/>
      <point x="1566.64" y="115.09" type="line"/>
      <point x="1544.46" y="185.11" type="line"/>
      <point x="1199.19" y="1240.0600000000002" type="line"/>
      <point x="996.46" y="1240.0600000000002" type="line"/>
      <point x="651.66" y="185.17000000000002" type="line"/>
      <point x="629.95" y="115.09" type="line"/>
      <point x="608.5400000000001" y="115.09" type="line"/>
      <point x="586.36" y="185.17000000000002" type="line"/>
      <point x="232.33" y="1278.0" type="line"/>
      <point x="85.45" y="1278.0" type="line"/>
    </contour>
  </outline>
</glyph>
<glyph name="X" format="2">
  <advance width="1557.1399999999999"/>
  <unicode hex="0058"/>
  <anchor x="779.0699999999999" y="0.0" name="bottom"/>
  <anchor x="779.0699999999999" y="1278.0" name="top"/>
  <outline>
    <contour>
      <point x="73.74" y="0.0" type="line"/>
      <point x="237.69" y="0.0" type="line"/>
      <point x="771.01" y="575.6500000000001" type="line"/>
      <point x="786.6" y="575.6500000000001" type="line"/>
      <point x="1319.45" y="0.0" type="line"/>
      <point x="1483.4" y="0.0" type="line"/>
      <point x="873.4399999999999" y="667.6600000000001" type="line"/>
      <point x="873.97" y="644.76" type="line"/>
      <point x="1473.75" y="1278.0" type="line"/>
      <point x="1311.39" y="1278.0" type="line"/>
      <point x="786.6" y="728.88" type="line"/>
      <point x="771.01" y="728.88" type="line"/>
      <point x="245.75000000000003" y="1278.0" type="line"/>
      <point x="83.39" y="1278.0" type="line"/>
      <point x="683.17" y="644.76" type="line"/>
      <point x="683.7" y="667.6600000000001" type="line"/>
    </contour>
  </outline>
</glyph>
<glyph name="Y" format="2">
  <advance width="1501.73"/>
  <unicode hex="0059"/>
  <anchor x="751.13" y="0.0" name="bottom"/>
  <anchor x="751.13" y="1278.0" name="top"/>
  <anchor x="20.0" y="1278.0" name="topleft"/>
  <outline>
    <contour>
      <point x="691.73" y="383.27000000000004" type="line"/>
      <point x="810.53" y="383.27000000000004" type="line"/>
      <point x="1444.4" y="1278.0" type="line"/>
      <point x="1288.75" y="1278.0" type="line"/>
      <point x="897.12" y="723.4300000000001" type="line"/>
      <point x="757.66" y="526.14" type="line"/>
      <point x="744.07" y="526.14" type="line"/>
      <point x="604.5500000000001" y="724.49" type="line"/>
      <point x="212.98000000000002" y="1278.0" type="line"/>
      <point x="57.33" y="1278.0" type="line"/>
    </contour>
    <contour>
      <point x="683.37" y="0.0" type="line"/>
      <point x="818.89" y="0.0" type="line"/>
      <point x="818.89" y="498.95" type="line"/>
      <point x="683.37" y="498.95" type="line"/>
    </contour>
  </outline>
</glyph>
<glyph name="Z" format="2">
  <advance width="1441.0"/>
  <unicode hex="005A"/>
  <anchor x="721.0" y="0.0" name="bottom"/>
  <anchor x="721.0" y="639.0" name="center"/>
  <anchor x="721.0" y="1278.0" name="top"/>
  <outline>
    <contour>
      <point x="1320.0800000000002" y="112.44000000000001" type="line"/>
      <point x="300.71000000000004" y="112.44000000000001" type="line"/>
      <point x="1311.49" y="1172.21" type="line"/>
      <point x="1311.49" y="1278.0" type="line"/>
      <point x="126.1" y="1278.0" type="line"/>
      <point x="126.1" y="1166.09" type="line"/>
      <point x="1129.64" y="1166.09" type="line"/>
      <point x="120.92" y="105.26" type="line"/>
      <point x="120.92" y="0.0" type="line"/>
      <point x="1320.0800000000002" y="0.0" type="line"/>
    </contour>
  </outline>
</glyph>
<glyph name="bracketleft" format="2">
  <advance width="783.76"/>
  <unicode hex="005B"/>
  <outline>
    <contour>
      <point x="208.97" y="-240.01000000000002" type="line"/>
      <point x="699.1800000000001" y="-240.01000000000002" type="line"/>
      <point x="699.1800000000001" y="-134.98999999999998" type="line"/>
      <point x="336.01" y="-134.98999999999998" type="line"/>
      <point x="336.01" y="1243.04" type="line"/>
      <point x="699.1800000000001" y="1243.04" type="line"/>
      <point x="699.1800000000001" y="1347.53" type="line"/>
      <point x="208.97" y="1347.53" type="line"/>
    </contour>
  </outline>
</glyph>
<glyph name="backslash" format="2">
  <advance width="1113.36"/>
  <unicode hex="005C"/>
  <outline>
    <contour>
      <point x="1065.81" y="-232.66000000000003" type="line"/>
      <point x="183.76999999999998" y="1325.48" type="line"/>
      <point x="47.55" y="1325.48" type="line"/>
      <point x="929.06" y="-232.66000000000003" type="line"/>
    </contour>
  </outline>
</glyph>
<glyph name="bracketright" format="2">
  <advance width="783.76"/>
  <unicode hex="005D"/>
  <outline>
    <contour>
      <point x="574.79" y="-240.01000000000002" type="line"/>
      <point x="574.79" y="1347.53" type="line"/>
      <point x="84.58" y="1347.53" type="line"/>
      <point x="84.58" y="1243.04" type="line"/>
      <point x="447.75" y="1243.04" type="line"/>
      <point x="447.75" y="-134.98999999999998" type="line"/>
      <point x="84.58" y="-134.98999999999998" type="line"/>
      <point x="84.58" y="-240.01000000000002" type="line"/>
    </contour>
  </outline>
</glyph>
<glyph name="asciicircum" format="2">
  <advance width="1105.68"/>
  <unicode hex="005E"/>
  <outline>
    <contour>
      <point x="460.65999999999997" y="1278.0" type="line"/>
      <point x="75.45" y="602.88" type="line"/>
      <point x="203.07" y="602.88" type="line"/>
      <point x="541.96" y="1196.71" type="line"/>
      <point x="564.25" y="1196.71" type="line"/>
      <point x="903.1400000000001" y="602.88" type="line"/>
      <point x="1030.23" y="602.88" type="line"/>
      <point x="645.5500000000001" y="1278.0" type="line"/>
    </contour>
  </outline>
</glyph>
<glyph name="underscore" format="2">
  <advance width="1234.49"/>
  <unicode hex="005F"/>
  <outline>
    <contour>
      <point x="77.28" y="-207.17000000000002" type="line"/>
      <point x="1157.74" y="-207.17000000000002" type="line"/>
      <point x="1157.74" y="-103.62" type="line"/>
      <point x="77.28" y="-103.62" type="line"/>
    </contour>
  </outline>
</glyph>
<glyph name="grave" format="2">
  <advance width="632.85"/>
  <unicode hex="0060"/>
  <anchor x="477.51" y="955.1800000000001" name="_top"/>
  <anchor x="477.51" y="1335.3100000000002" name="top"/>
  <outline>
    <contour>
      <point x="257.34999999999997" y="1387.47" type="line"/>
      <point x="97.88" y="1387.47" type="line"/>
      <point x="97.88" y="1382.88" type="line"/>
      <point x="408.29" y="1103.4" type="line"/>
      <point x="537.09" y="1103.4" type="line"/>
      <point x="537.09" y="1106.99" type="line"/>
    </contour>
  </outline>
</glyph>
<glyph name="a" format="2">
  <advance width="1311.25"/>
  <unicode hex="0061"/>
  <anchor x="644.83" y="0.0" name="bottom"/>
  <anchor x="1199.27" y="2.6500000000000004" name="ogonek"/>
  <anchor x="644.83" y="955.1800000000001" name="top"/>
  <outline>
    <contour>
      <point x="1020.52" y="0.0" type="line"/>
      <point x="1153.9199999999998" y="0.0" type="line"/>
      <point x="1153.9199999999998" y="569.6899999999999" type="line" smooth="yes"/>
      <point x="1153.9199999999998" y="813.69"/>
      <point x="1014.46" y="983.36"/>
      <point x="659.53" y="983.36" type="curve" smooth="yes"/>
      <point x="423.78000000000003" y="983.36"/>
      <point x="262.13" y="909.55"/>
      <point x="170.35" y="854.14" type="curve"/>
      <point x="155.27999999999997" y="739.4699999999999" type="line"/>
      <point x="269.99999999999994" y="805.11"/>
      <point x="431.35" y="873.0400000000001"/>
      <point x="642.5699999999999" y="873.0400000000001" type="curve" smooth="yes"/>
      <point x="902.01" y="873.0400000000001"/>
      <point x="1023.11" y="766.9499999999999"/>
      <point x="1023.11" y="578.17" type="curve"/>
      <point x="1022.58" y="555.51" type="line"/>
      <point x="1022.58" y="327.17" type="line"/>
      <point x="1027.17" y="297.27" type="line"/>
    </contour>
    <contour>
      <point x="510.56" y="-27.12" type="curve" smooth="yes"/>
      <point x="837.06" y="-27.12"/>
      <point x="996.0799999999999" y="133.37"/>
      <point x="1027.45" y="302.28" type="curve"/>
      <point x="1054.8799999999999" y="302.28" type="line"/>
      <point x="1029.99" y="398.59000000000003" type="line"/>
      <point x="993.87" y="225.05"/>
      <point x="820.02" y="83.2"/>
      <point x="544.1199999999999" y="83.2" type="curve" smooth="yes"/>
      <point x="349.99" y="83.2"/>
      <point x="235.5" y="145.24"/>
      <point x="235.5" y="263.08" type="curve" smooth="yes"/>
      <point x="235.5" y="271.96" type="line" smooth="yes"/>
      <point x="235.5" y="397.39"/>
      <point x="332.7" y="443.49"/>
      <point x="599.75" y="463.31" type="curve" smooth="yes"/>
      <point x="1042.94" y="496.24999999999994" type="line"/>
      <point x="1040.82" y="588.26" type="line"/>
      <point x="588.92" y="556.3199999999999" type="line" smooth="yes"/>
      <point x="251.57999999999998" y="532.32"/>
      <point x="102.1" y="455.96000000000004"/>
      <point x="102.1" y="262.3" type="curve" smooth="yes"/>
      <point x="102.1" y="250.48000000000002" type="line" smooth="yes"/>
      <point x="102.1" y="70.24000000000001"/>
      <point x="255.73999999999998" y="-27.12"/>
    </contour>
  </outline>
</glyph>
<glyph name="b" format="2">
  <advance width="1453.19"/>
  <unicode hex="0062"/>
  <anchor x="726.8299999999999" y="0.0" name="bottom"/>
  <anchor x="726.8299999999999" y="1321.35" name="top"/>
  <outline>
    <contour>
      <point x="801.28" y="-27.12" type="curve" smooth="yes"/>
      <point x="1137.5" y="-27.12"/>
      <point x="1335.62" y="143.06"/>
      <point x="1335.62" y="466.18" type="curve" smooth="yes"/>
      <point x="1335.62" y="489.94" type="line" smooth="yes"/>
      <point x="1335.62" y="811.18"/>
      <point x="1138.56" y="982.3"/>
      <point x="807.8100000000001" y="982.3" type="curve" smooth="yes"/>
      <point x="508.66" y="982.3"/>
      <point x="338.05" y="825.6899999999999"/>
      <point x="306.8" y="651.96" type="curve"/>
      <point x="264.53000000000003" y="651.96" type="line"/>
      <point x="300.55" y="548.6999999999999" type="line"/>
      <point x="339.20000000000005" y="732.72"/>
      <point x="519.11" y="874.63"/>
      <point x="767.89" y="874.63" type="curve" smooth="yes"/>
      <point x="1041.6599999999999" y="874.63"/>
      <point x="1201.16" y="742.89"/>
      <point x="1201.16" y="491.59000000000003" type="curve" smooth="yes"/>
      <point x="1201.16" y="469.77000000000004" type="line" smooth="yes"/>
      <point x="1201.16" y="217.35000000000002"/>
      <point x="1041.13" y="83.2"/>
      <point x="771.36" y="83.2" type="curve" smooth="yes"/>
      <point x="529.57" y="83.2"/>
      <point x="322.90000000000003" y="199.77"/>
      <point x="308.08" y="451.68" type="curve"/>
      <point x="261.88" y="314.96999999999997" type="line"/>
      <point x="308.09000000000003" y="314.96999999999997" type="line"/>
      <point x="334.59000000000003" y="100.32000000000001"/>
      <point x="529.5999999999999" y="-27.12"/>
    </contour>
    <contour>
      <point x="179.74" y="0.0" type="line"/>
      <point x="313.14" y="0.0" type="line"/>
      <point x="305.55" y="302.03" type="line"/>
      <point x="308.08" y="344.12" type="line"/>
      <point x="308.08" y="618.42" type="line"/>
      <point x="306.61" y="652.7900000000001" type="line"/>
      <point x="312.08000000000004" y="954.6500000000001" type="line"/>
      <point x="312.08000000000004" y="1321.35" type="line"/>
      <point x="179.74" y="1321.35" type="line"/>
    </contour>
  </outline>
</glyph>
<glyph name="c" format="2">
  <advance width="1236.5200000000002"/>
  <unicode hex="0063"/>
  <anchor x="666.58" y="0.0" name="bottom"/>
  <anchor x="666.58" y="955.1800000000001" name="top"/>
  <outline>
    <contour>
      <point x="684.8299999999999" y="-28.71" type="curve" smooth="yes"/>
      <point x="901.63" y="-28.71"/>
      <point x="1041.34" y="32.1"/>
      <point x="1124.2299999999998" y="86.86" type="curve"/>
      <point x="1138.18" y="209.3" type="line"/>
      <point x="1041.1699999999998" y="143.60000000000002"/>
      <point x="908.41" y="83.2"/>
      <point x="705.38" y="83.2" type="curve" smooth="yes"/>
      <point x="410.23999999999995" y="83.2"/>
      <point x="250.97000000000003" y="221.88"/>
      <point x="250.97000000000003" y="471.3" type="curve" smooth="yes"/>
      <point x="250.97000000000003" y="491.59" type="line" smooth="yes"/>
      <point x="250.97000000000003" y="739.95"/>
      <point x="409.06" y="874.63"/>
      <point x="699.26" y="874.63" type="curve" smooth="yes"/>
      <point x="897.1800000000001" y="874.63"/>
      <point x="1031.0" y="816.11"/>
      <point x="1125.71" y="750.0" type="curve"/>
      <point x="1112.2299999999998" y="870.91" type="line"/>
      <point x="1034.28" y="921.26"/>
      <point x="896.63" y="984.95"/>
      <point x="683.77" y="984.95" type="curve" smooth="yes"/>
      <point x="316.34" y="984.95"/>
      <point x="116.50999999999999" y="810.65"/>
      <point x="116.50999999999999" y="492.12" type="curve" smooth="yes"/>
      <point x="116.50999999999999" y="470.77" type="line" smooth="yes"/>
      <point x="116.50999999999999" y="147.59"/>
      <point x="315.87" y="-28.71"/>
    </contour>
  </outline>
</glyph>
<glyph name="d" format="2">
  <advance width="1453.19"/>
  <unicode hex="0064"/>
  <anchor x="726.8299999999999" y="0.0" name="bottom"/>
  <anchor x="726.8299999999999" y="477.59000000000003" name="center"/>
  <anchor x="726.8299999999999" y="1321.35" name="top"/>
  <anchor x="1480.23" y="1321.35" name="topright"/>
  <outline>
    <contour>
      <point x="648.4399999999999" y="-27.12" type="curve" smooth="yes"/>
      <point x="948.18" y="-27.12"/>
      <point x="1115.67" y="129.96"/>
      <point x="1147.4500000000003" y="303.21999999999997" type="curve"/>
      <point x="1188.78" y="303.21999999999997" type="line"/>
      <point x="1152.64" y="407.48" type="line"/>
      <point x="1114.93" y="224.52"/>
      <point x="933.14" y="83.2"/>
      <point x="685.77" y="83.2" type="curve" smooth="yes"/>
      <point x="411.06" y="83.2"/>
      <point x="252.03" y="217.35000000000002"/>
      <point x="252.03" y="467.77" type="curve" smooth="yes"/>
      <point x="252.03" y="489.59000000000003" type="line" smooth="yes"/>
      <point x="252.03" y="741.01"/>
      <point x="411.12" y="874.63"/>
      <point x="682.48" y="874.63" type="curve" smooth="yes"/>
      <point x="926.8100000000001" y="874.63"/>
      <point x="1130.2900000000002" y="758.6999999999999"/>
      <point x="1145.11" y="506.15000000000003" type="curve"/>
      <point x="1189.3100000000002" y="640.21" type="line"/>
      <point x="1144.04" y="640.21" type="line"/>
      <point x="1118.07" y="854.8599999999999"/>
      <point x="923.18" y="982.3"/>
      <point x="651.5000000000001" y="982.3" type="curve" smooth="yes"/>
      <point x="315.28000000000003" y="982.3"/>
      <point x="117.57" y="812.1199999999999"/>
      <point x="117.57" y="489.46999999999997" type="curve" smooth="yes"/>
      <point x="117.57" y="465.24" type="line" smooth="yes"/>
      <point x="117.57" y="144.94"/>
      <point x="312.44999999999993" y="-27.12"/>
    </contour>
    <contour>
      <point x="1140.05" y="0.0" type="line"/>
      <point x="1273.4499999999998" y="0.0" type="line"/>
      <point x="1273.4499999999998" y="1321.35" type="line"/>
      <point x="1141.1100000000001" y="1321.35" type="line"/>
      <point x="1141.1100000000001" y="954.6500000000001" type="line"/>
      <point x="1146.11" y="652.7900000000001" type="line"/>
      <point x="1145.11" y="618.42" type="line"/>
      <point x="1145.11" y="344.12" type="line"/>
      <point x="1147.17" y="302.03" type="line"/>
    </contour>
  </outline>
</glyph>
<glyph name="e" format="2">
  <advance width="1331.48"/>
  <unicode hex="0065"/>
  <anchor x="673.4200000000001" y="0.0" name="bottom"/>
  <anchor x="1022.25" y="2.65" name="ogonek"/>
  <anchor x="673.42" y="955.1800000000001" name="top"/>
  <outline>
    <contour>
      <point x="702.19" y="-28.71" type="curve" smooth="yes"/>
      <point x="902.3100000000001" y="-28.71"/>
      <point x="1059.49" y="18.110000000000003"/>
      <point x="1183.96" y="100.45" type="curve"/>
      <point x="1199.03" y="217.12" type="line"/>
      <point x="1057.5" y="127.08"/>
      <point x="905.1999999999999" y="81.61"/>
      <point x="720.6800000000001" y="81.61" type="curve" smooth="yes"/>
      <point x="391.1" y="81.61"/>
      <point x="249.37999999999997" y="227.82"/>
      <point x="249.37999999999997" y="452.93" type="curve" smooth="yes"/>
      <point x="249.37999999999997" y="478.18" type="line"/>
      <point x="249.38" y="492.72" type="line"/>
      <point x="249.38" y="505.9" type="line" smooth="yes"/>
      <point x="249.38" y="736.96"/>
      <point x="393.7" y="877.28"/>
      <point x="670.1199999999999" y="877.28" type="curve" smooth="yes"/>
      <point x="948.6600000000001" y="877.28"/>
      <point x="1094.6899999999998" y="734.4399999999999"/>
      <point x="1094.6899999999998" y="517.6" type="curve" smooth="yes"/>
      <point x="1094.6899999999998" y="489.82000000000005"/>
      <point x="1093.6299999999999" y="458.33"/>
      <point x="1090.51" y="434.08000000000004" type="curve"/>
      <point x="1215.55" y="434.08000000000004" type="line"/>
      <point x="1219.67" y="457.03000000000003"/>
      <point x="1222.3200000000002" y="484.4"/>
      <point x="1222.3200000000002" y="509.24" type="curve" smooth="yes"/>
      <point x="1222.3200000000002" y="514.3000000000001" type="line" smooth="yes"/>
      <point x="1222.3200000000002" y="794.0699999999999"/>
      <point x="1033.61" y="983.89"/>
      <point x="670.1199999999999" y="983.89" type="curve" smooth="yes"/>
      <point x="311.46" y="983.89"/>
      <point x="116.50999999999999" y="801.3000000000001"/>
      <point x="116.50999999999999" y="490.53" type="curve" smooth="yes"/>
      <point x="116.50999999999999" y="465.65000000000003" type="line" smooth="yes"/>
      <point x="116.50999999999999" y="151.29000000000002"/>
      <point x="314.40000000000003" y="-28.71"/>
    </contour>
    <contour>
      <point x="177.44" y="434.08000000000004" type="line"/>
      <point x="1187.71" y="434.08000000000004" type="line"/>
      <point x="1187.71" y="534.98" type="line"/>
      <point x="177.44" y="534.98" type="line"/>
    </contour>
  </outline>
</glyph>
<glyph name="f" format="2">
  <advance width="1013.1"/>
  <unicode hex="0066"/>
  <anchor x="507.04999999999995" y="0.0" name="bottom"/>
  <anchor x="507.04999999999995" y="1291.0" name="top"/>
  <outline>
    <contour>
      <point x="616.4599999999999" y="1350.0" type="curve" smooth="yes"/>
      <point x="320.51" y="1350.0"/>
      <point x="206.38" y="1239.59"/>
      <point x="206.38" y="1074.5400000000002" type="curve" smooth="yes"/>
      <point x="206.38" y="1070.6000000000001" type="line" smooth="yes"/>
      <point x="206.38" y="995.23"/>
      <point x="240.57" y="938.76"/>
      <point x="278.71000000000004" y="903.94" type="curve"/>
      <point x="278.71000000000004" y="888.46" type="line"/>
      <point x="368.47999999999996" y="893.99" type="line"/>
      <point x="353.01" y="927.22"/>
      <point x="337.13" y="972.68"/>
      <point x="337.13" y="1025.73" type="curve" smooth="yes"/>
      <point x="337.13" y="1030.2" type="line" smooth="yes"/>
      <point x="337.13" y="1160.5800000000002"/>
      <point x="411.17" y="1240.21"/>
      <point x="642.43" y="1240.21" type="curve" smooth="yes"/>
      <point x="766.31" y="1240.21"/>
      <point x="861.72" y="1218.3899999999999"/>
      <point x="966.59" y="1182.75" type="curve"/>
      <point x="951.52" y="1288.77" type="line"/>
      <point x="852.7" y="1325.59"/>
      <point x="752.22" y="1350.0"/>
    </contour>
    <contour>
      <point x="243.97" y="0.0" type="line"/>
      <point x="375.84" y="0.0" type="line"/>
      <point x="375.84" y="858.6700000000001" type="line"/>
      <point x="243.97" y="858.6700000000001" type="line"/>
    </contour>
    <contour>
      <point x="19.76" y="798.4399999999999" type="line"/>
      <point x="943.6999999999999" y="798.4399999999999" type="line"/>
      <point x="957.71" y="903.05" type="line"/>
      <point x="346.76" y="903.05" type="line"/>
      <point x="298.36999999999995" y="901.99" type="line"/>
      <point x="19.76" y="903.05" type="line"/>
    </contour>
  </outline>
</glyph>
<glyph name="g" format="2">
  <advance width="1373.5900000000001"/>
  <unicode hex="0067"/>
  <anchor x="685.4699999999999" y="-338.0" name="bottom"/>
  <anchor x="685.47" y="955.1800000000001" name="top"/>
  <outline>
    <contour>
      <point x="687.47" y="335.70000000000005" type="curve"/>
      <point x="1049.1899999999998" y="335.70000000000005"/>
      <point x="1231.6599999999999" y="436.4"/>
      <point x="1231.6599999999999" y="634.63" type="curve" smooth="yes"/>
      <point x="1231.6599999999999" y="645.39" type="line" smooth="yes"/>
      <point x="1231.6599999999999" y="773.13"/>
      <point x="1147.21" y="865.87"/>
      <point x="925.6" y="891.4000000000001" type="curve"/>
      <point x="923.72" y="894.8199999999999" type="line"/>
      <point x="1340.4299999999998" y="889.2900000000001" type="line"/>
      <point x="1340.4299999999998" y="994.19" type="line"/>
      <point x="644.27" y="975.71" type="line" smooth="yes"/>
      <point x="305.15" y="967.0"/>
      <point x="135.27" y="866.8299999999999"/>
      <point x="135.27" y="663.3499999999999" type="curve" smooth="yes"/>
      <point x="135.27" y="651.5899999999999" type="line" smooth="yes"/>
      <point x="135.27" y="447.0"/>
      <point x="323.45" y="335.70000000000005"/>
    </contour>
    <contour>
      <point x="676.5899999999999" y="-275.69" type="line" smooth="yes"/>
      <point x="405.03999999999996" y="-275.69"/>
      <point x="223.97000000000003" y="-238.4"/>
      <point x="223.97000000000003" y="-100.44" type="curve" smooth="yes"/>
      <point x="223.97000000000003" y="-98.44" type="line" smooth="yes"/>
      <point x="223.97000000000003" y="21.29"/>
      <point x="355.34" y="62.34"/>
      <point x="525.05" y="76.68999999999998" type="curve"/>
      <point x="465.15" y="72.51" type="line"/>
      <point x="889.03" y="48.449999999999996" type="line" smooth="yes"/>
      <point x="1076.57" y="38.04"/>
      <point x="1153.3200000000002" y="-6.059999999999998"/>
      <point x="1153.3200000000002" y="-101.15" type="curve" smooth="yes"/>
      <point x="1153.3200000000002" y="-105.15" type="line" smooth="yes"/>
      <point x="1153.3200000000002" y="-237.57999999999998"/>
      <point x="967.02" y="-275.69"/>
      <point x="695.06" y="-275.69" type="curve" smooth="yes"/>
    </contour>
    <contour>
      <point x="668.11" y="-381.77" type="curve" smooth="yes"/>
      <point x="694.0" y="-381.77" type="line" smooth="yes"/>
      <point x="1045.49" y="-381.77"/>
      <point x="1283.6" y="-318.58"/>
      <point x="1283.6" y="-107.44999999999999" type="curve" smooth="yes"/>
      <point x="1283.6" y="-104.45" type="line" smooth="yes"/>
      <point x="1283.6" y="56.519999999999996"/>
      <point x="1167.47" y="132.51999999999998"/>
      <point x="905.4" y="147.7" type="curve" smooth="yes"/>
      <point x="555.83" y="167.82" type="line" smooth="yes"/>
      <point x="356.65000000000003" y="178.76"/>
      <point x="292.43" y="206.22"/>
      <point x="292.43" y="266.66999999999996" type="curve" smooth="yes"/>
      <point x="292.43" y="267.2" type="line" smooth="yes"/>
      <point x="292.43" y="319.83000000000004"/>
      <point x="334.66" y="347.76"/>
      <point x="481.84" y="349.34999999999997" type="curve"/>
      <point x="567.79" y="347.76" type="line"/>
      <point x="376.05" y="398.95" type="line"/>
      <point x="376.05" y="373.17999999999995" type="line"/>
      <point x="219.04" y="368.76"/>
      <point x="168.39000000000001" y="318.40999999999997"/>
      <point x="168.39000000000001" y="237.57999999999998" type="curve" smooth="yes"/>
      <point x="168.39000000000001" y="237.04999999999998" type="line" smooth="yes"/>
      <point x="168.39000000000001" y="152.41"/>
      <point x="234.32" y="103.94"/>
      <point x="382.31" y="89.82000000000001" type="curve"/>
      <point x="386.54" y="89.68999999999998" type="line"/>
      <point x="229.76" y="78.98"/>
      <point x="94.81" y="20.03"/>
      <point x="94.81" y="-124.82" type="curve" smooth="yes"/>
      <point x="94.81" y="-127.82" type="line" smooth="yes"/>
      <point x="94.81" y="-325.23"/>
      <point x="321.33" y="-381.77"/>
    </contour>
    <contour>
      <point x="685.3499999999999" y="434.36" type="curve" smooth="yes"/>
      <point x="401.39" y="434.36"/>
      <point x="265.55" y="514.4"/>
      <point x="265.55" y="653.71" type="curve" smooth="yes"/>
      <point x="265.55" y="666.0" type="line" smooth="yes"/>
      <point x="265.55" y="804.72"/>
      <point x="401.39" y="882.11"/>
      <point x="684.8199999999999" y="882.11" type="curve" smooth="yes"/>
      <point x="695.23" y="882.11" type="line" smooth="yes"/>
      <point x="972.6" y="882.11"/>
      <point x="1106.09" y="801.19"/>
      <point x="1106.09" y="664.94" type="curve" smooth="yes"/>
      <point x="1106.09" y="652.65" type="line" smooth="yes"/>
      <point x="1106.09" y="512.28"/>
      <point x="971.25" y="434.36"/>
    </contour>
  </outline>
</glyph>
<glyph name="h" format="2">
  <advance width="1399.8400000000001"/>
  <unicode hex="0068"/>
  <anchor x="700.4200000000001" y="0.0" name="bottom"/>
  <anchor x="700.4200000000001" y="646.0" name="center"/>
  <anchor x="245.91" y="1321.35" name="top"/>
  <outline>
    <contour>
      <point x="1105.52" y="0.0" type="line"/>
      <point x="1238.92" y="0.0" type="line"/>
      <point x="1238.92" y="528.29" type="line" smooth="yes"/>
      <point x="1238.92" y="808.54"/>
      <point x="1118.5" y="982.3"/>
      <point x="785.05" y="982.3" type="curve" smooth="yes"/>
      <point x="500.78999999999996" y="982.3"/>
      <point x="339.10999999999996" y="825.69"/>
      <point x="306.8" y="653.8399999999999" type="curve"/>
      <point x="276.84000000000003" y="653.8399999999999" type="line"/>
      <point x="303.73" y="552.76" type="line"/>
      <point x="339.44" y="731.07"/>
      <point x="496.99" y="870.92"/>
      <point x="742.42" y="870.92" type="curve" smooth="yes"/>
      <point x="1012.6" y="870.92"/>
      <point x="1105.52" y="726.9399999999999"/>
      <point x="1105.52" y="512.4" type="curve" smooth="yes"/>
    </contour>
    <contour>
      <point x="179.74" y="0.0" type="line"/>
      <point x="313.14" y="0.0" type="line"/>
      <point x="313.14" y="638.37" type="line"/>
      <point x="307.55" y="649.3100000000001" type="line"/>
      <point x="312.08000000000004" y="957.06" type="line"/>
      <point x="312.08000000000004" y="1321.35" type="line"/>
      <point x="179.74" y="1321.35" type="line"/>
    </contour>
  </outline>
</glyph>
<glyph name="i" format="2">
  <advance width="498.23"/>
  <unicode hex="0069"/>
  <anchor x="249.38" y="0.0" name="bottom"/>
  <anchor x="361.43" y="2.6500000000000004" name="ogonek"/>
  <outline>
    <contour>
      <point x="182.67999999999998" y="0.0" type="line"/>
      <point x="315.55" y="0.0" type="line"/>
      <point x="315.55" y="955.1800000000001" type="line"/>
      <point x="182.67999999999998" y="955.1800000000001" type="line"/>
    </contour>
    <contour>
      <point x="248.38" y="1158.78" type="curve" smooth="yes"/>
      <point x="314.47" y="1158.78"/>
      <point x="347.13" y="1188.97"/>
      <point x="347.13" y="1242.0500000000002" type="curve" smooth="yes"/>
      <point x="347.13" y="1245.58" type="line" smooth="yes"/>
      <point x="347.13" y="1296.66"/>
      <point x="314.47" y="1327.38"/>
      <point x="248.38" y="1327.38" type="curve" smooth="yes"/>
      <point x="184.23" y="1327.38"/>
      <point x="151.63" y="1296.66"/>
      <point x="151.63" y="1245.58" type="curve" smooth="yes"/>
      <point x="151.63" y="1242.0500000000002" type="line" smooth="yes"/>
      <point x="151.63" y="1189.5"/>
      <point x="184.23" y="1158.78"/>
    </contour>
  </outline>
</glyph>
<glyph name="j" format="2">
  <advance width="555.51"/>
  <unicode hex="006A"/>
  <outline>
    <contour>
      <point x="239.96" y="172.0" type="line"/>
      <point x="372.83" y="172.0" type="line"/>
      <point x="372.83" y="955.1800000000001" type="line"/>
      <point x="239.96" y="955.1800000000001" type="line"/>
    </contour>
    <contour>
      <point x="305.65999999999997" y="1148.18" type="curve" smooth="yes"/>
      <point x="371.75" y="1148.18"/>
      <point x="404.41" y="1178.3700000000001"/>
      <point x="404.41" y="1231.45" type="curve" smooth="yes"/>
      <point x="404.41" y="1234.98" type="line" smooth="yes"/>
      <point x="404.41" y="1286.06"/>
      <point x="371.75" y="1316.78"/>
      <point x="305.65999999999997" y="1316.78" type="curve" smooth="yes"/>
      <point x="241.51" y="1316.78"/>
      <point x="208.91" y="1286.06"/>
      <point x="208.91" y="1234.98" type="curve" smooth="yes"/>
      <point x="208.91" y="1231.45" type="line" smooth="yes"/>
      <point x="208.91" y="1178.9"/>
      <point x="241.51" y="1148.18"/>
    </contour>
    <component base="jbottom"/>
  </outline>
</glyph>
<glyph name="k" format="2">
  <advance width="1296.0399999999997"/>
  <unicode hex="006B"/>
  <anchor x="662.72" y="0.0" name="bottom"/>
  <anchor x="662.72" y="1321.35" name="top"/>
  <outline>
    <contour>
      <point x="1058.46" y="0.0" type="line"/>
      <point x="1247.89" y="0.0" type="line"/>
      <point x="549.67" y="532.95" type="line"/>
      <point x="549.67" y="497.34999999999997" type="line"/>
      <point x="1223.0100000000002" y="955.1800000000001" type="line"/>
      <point x="1036.82" y="955.1800000000001" type="line"/>
      <point x="453.41" y="566.1" type="line"/>
      <point x="286.24" y="566.1" type="line"/>
      <point x="286.24" y="455.25" type="line"/>
      <point x="452.34999999999997" y="455.25" type="line"/>
    </contour>
    <contour>
      <point x="179.74" y="0.0" type="line"/>
      <point x="313.14000000000004" y="0.0" type="line"/>
      <point x="313.14000000000004" y="1321.35" type="line"/>
      <point x="179.74" y="1321.35" type="line"/>
    </contour>
  </outline>
</glyph>
<glyph name="l" format="2">
  <advance width="498.76"/>
  <unicode hex="006C"/>
  <anchor x="249.38" y="0.0" name="bottom"/>
  <anchor x="249.38" y="646.0" name="center"/>
  <anchor x="249.38" y="1321.35" name="top"/>
  <anchor x="522.86" y="1321.35" name="topright"/>
  <outline>
    <contour>
      <point x="182.68" y="0.0" type="line"/>
      <point x="316.08" y="0.0" type="line"/>
      <point x="316.08" y="1321.35" type="line"/>
      <point x="182.68" y="1321.35" type="line"/>
    </contour>
  </outline>
</glyph>
<glyph name="m" format="2">
  <advance width="2182.8199999999997"/>
  <unicode hex="006D"/>
  <anchor x="1091.41" y="0.0" name="bottom"/>
  <anchor x="1091.41" y="955.1800000000001" name="top"/>
  <outline>
    <contour>
      <point x="1888.5" y="0.0" type="line"/>
      <point x="2021.8999999999999" y="0.0" type="line"/>
      <point x="2021.8999999999999" y="526.88" type="line" smooth="yes"/>
      <point x="2021.8999999999999" y="812.7700000000001"/>
      <point x="1907.6599999999999" y="982.3"/>
      <point x="1604.2" y="982.3" type="curve" smooth="yes"/>
      <point x="1333.28" y="982.3"/>
      <point x="1187.7199999999998" y="826.63"/>
      <point x="1152.23" y="655.25" type="curve"/>
      <point x="1132.3400000000001" y="655.25" type="line"/>
      <point x="1158.0500000000002" y="554.88" type="line"/>
      <point x="1190.29" y="732.13"/>
      <point x="1335.43" y="870.92"/>
      <point x="1560.04" y="870.92" type="curve" smooth="yes"/>
      <point x="1804.52" y="870.92"/>
      <point x="1888.5" y="726.94"/>
      <point x="1888.5" y="512.4" type="curve" smooth="yes"/>
    </contour>
    <contour>
      <point x="179.74" y="0.0" type="line"/>
      <point x="313.14" y="0.0" type="line"/>
      <point x="313.14" y="640.48" type="line"/>
      <point x="306.49" y="656.91" type="line"/>
      <point x="313.14" y="955.1800000000001" type="line"/>
      <point x="179.74" y="955.1800000000001" type="line"/>
    </contour>
    <contour>
      <point x="1034.12" y="0.0" type="line"/>
      <point x="1167.5200000000002" y="0.0" type="line"/>
      <point x="1167.5200000000002" y="539.95" type="line" smooth="yes"/>
      <point x="1167.5200000000002" y="570.01"/>
      <point x="1164.93" y="606.9"/>
      <point x="1159.8700000000001" y="639.66" type="curve"/>
      <point x="1127.8700000000001" y="865.12"/>
      <point x="1000.11" y="982.3"/>
      <point x="749.82" y="982.3" type="curve" smooth="yes"/>
      <point x="485.73" y="982.3"/>
      <point x="336.05" y="825.69"/>
      <point x="306.27" y="653.8399999999999" type="curve"/>
      <point x="282.14" y="653.8399999999999" type="line"/>
      <point x="303.2" y="552.76" type="line"/>
      <point x="336.38" y="731.07"/>
      <point x="481.05" y="870.92"/>
      <point x="705.1899999999999" y="870.92" type="curve" smooth="yes"/>
      <point x="949.6700000000001" y="870.92"/>
      <point x="1034.12" y="726.94"/>
      <point x="1034.12" y="512.4000000000001" type="curve" smooth="yes"/>
    </contour>
  </outline>
</glyph>
<glyph name="n" format="2">
  <advance width="1399.8400000000001"/>
  <unicode hex="006E"/>
  <anchor x="700.4200000000001" y="0.0" name="bottom"/>
  <anchor x="700.4200000000001" y="955.1800000000001" name="top"/>
  <outline>
    <contour>
      <point x="1105.52" y="0.0" type="line"/>
      <point x="1238.92" y="0.0" type="line"/>
      <point x="1238.92" y="528.29" type="line" smooth="yes"/>
      <point x="1238.92" y="808.54"/>
      <point x="1118.5" y="982.3"/>
      <point x="785.05" y="982.3" type="curve" smooth="yes"/>
      <point x="499.2" y="982.3"/>
      <point x="338.05" y="825.69"/>
      <point x="305.74" y="653.8399999999999" type="curve"/>
      <point x="279.25000000000006" y="653.8399999999999" type="line"/>
      <point x="303.2" y="552.76" type="line"/>
      <point x="338.90999999999997" y="731.07"/>
      <point x="496.46000000000004" y="870.92"/>
      <point x="741.3599999999999" y="870.92" type="curve" smooth="yes"/>
      <point x="1012.6" y="870.92"/>
      <point x="1105.52" y="726.9399999999999"/>
      <point x="1105.52" y="512.4" type="curve" smooth="yes"/>
    </contour>
    <contour>
      <point x="179.74" y="0.0" type="line"/>
      <point x="313.14" y="0.0" type="line"/>
      <point x="313.14" y="642.6" type="line"/>
      <point x="306.49" y="656.9100000000001" type="line"/>
      <point x="313.14" y="955.1800000000001" type="line"/>
      <point x="179.74" y="955.1800000000001" type="line"/>
    </contour>
  </outline>
</glyph>
<glyph name="o" format="2">
  <advance width="1401.01"/>
  <unicode hex="006F"/>
  <anchor x="700.77" y="0.0" name="bottom"/>
  <anchor x="700.7700000000001" y="477.59000000000003" name="center"/>
  <anchor x="986.92" y="2.6500000000000004" name="ogonek"/>
  <anchor x="700.77" y="955.1800000000001" name="top"/>
  <anchor x="1193.66" y="955.1800000000001" name="topright"/>
  <outline>
    <contour>
      <point x="700.7099999999999" y="-27.65" type="curve" smooth="yes"/>
      <point x="1080.49" y="-27.65"/>
      <point x="1284.5" y="144.12"/>
      <point x="1284.5" y="465.65" type="curve"/>
      <point x="1284.5" y="492.06000000000006" type="line"/>
      <point x="1284.5" y="811.59"/>
      <point x="1080.49" y="983.89"/>
      <point x="700.7099999999999" y="983.89" type="curve" smooth="yes"/>
      <point x="320.99" y="983.89"/>
      <point x="116.50999999999999" y="811.59"/>
      <point x="116.50999999999999" y="492.06000000000006" type="curve"/>
      <point x="116.50999999999999" y="465.65" type="line"/>
      <point x="116.50999999999999" y="145.59"/>
      <point x="319.52" y="-27.65"/>
    </contour>
    <contour>
      <point x="700.7099999999999" y="80.02" type="curve" smooth="yes"/>
      <point x="410.53" y="80.02"/>
      <point x="250.44000000000003" y="215.76000000000002"/>
      <point x="250.44000000000003" y="465.65000000000003" type="curve" smooth="yes"/>
      <point x="250.44000000000003" y="492.06000000000006" type="line" smooth="yes"/>
      <point x="250.44000000000003" y="741.9499999999999"/>
      <point x="410.53" y="876.22"/>
      <point x="700.7099999999999" y="876.22" type="curve" smooth="yes"/>
      <point x="991.95" y="876.22"/>
      <point x="1150.57" y="741.9499999999999"/>
      <point x="1150.57" y="492.06000000000006" type="curve" smooth="yes"/>
      <point x="1150.57" y="465.65000000000003" type="line" smooth="yes"/>
      <point x="1150.57" y="215.76000000000002"/>
      <point x="990.48" y="80.02"/>
    </contour>
  </outline>
</glyph>
<glyph name="q" format="2">
  <advance width="1453.19"/>
  <unicode hex="0071"/>
  <anchor x="726.8299999999999" y="0.0" name="bottom"/>
  <anchor x="726.8299999999999" y="955.1800000000001" name="top"/>
  <outline>
    <contour>
      <point x="648.4399999999999" y="-27.12" type="curve" smooth="yes"/>
      <point x="947.65" y="-27.12"/>
      <point x="1114.6100000000001" y="129.96"/>
      <point x="1146.39" y="303.21999999999997" type="curve"/>
      <point x="1189.72" y="303.21999999999997" type="line"/>
      <point x="1152.64" y="408.54" type="line"/>
      <point x="1114.93" y="225.58"/>
      <point x="933.14" y="84.26"/>
      <point x="685.77" y="84.26" type="curve" smooth="yes"/>
      <point x="411.06" y="84.26"/>
      <point x="252.03" y="217.41"/>
      <point x="252.03" y="467.77" type="curve" smooth="yes"/>
      <point x="252.03" y="489.59" type="line" smooth="yes"/>
      <point x="252.03" y="741.01"/>
      <point x="411.59000000000003" y="874.63"/>
      <point x="684.3599999999999" y="874.63" type="curve" smooth="yes"/>
      <point x="927.75" y="874.63"/>
      <point x="1130.29" y="760.29"/>
      <point x="1145.11" y="511.45000000000005" type="curve"/>
      <point x="1187.43" y="639.68" type="line"/>
      <point x="1145.1" y="639.68" type="line"/>
      <point x="1119.13" y="854.8599999999999"/>
      <point x="924.65" y="982.3"/>
      <point x="652.9100000000001" y="982.3" type="curve" smooth="yes"/>
      <point x="316.21999999999997" y="982.3"/>
      <point x="117.57" y="812.1199999999999"/>
      <point x="117.57" y="489.46999999999997" type="curve" smooth="yes"/>
      <point x="117.57" y="465.24" type="line" smooth="yes"/>
      <point x="117.57" y="144.0"/>
      <point x="312.44999999999993" y="-27.12"/>
    </contour>
    <contour>
      <point x="1141.1100000000001" y="-338.0" type="line"/>
      <point x="1273.4499999999998" y="-338.0" type="line"/>
      <point x="1273.4499999999998" y="955.1800000000001" type="line"/>
      <point x="1140.05" y="955.1800000000001" type="line"/>
      <point x="1147.17" y="653.09" type="line"/>
      <point x="1145.11" y="600.9300000000001" type="line"/>
      <point x="1145.11" y="344.65" type="line"/>
      <point x="1146.1100000000001" y="302.39" type="line"/>
      <point x="1141.1100000000001" y="1.0599999999999987" type="line"/>
    </contour>
  </outline>
</glyph>
<glyph name="r" format="2">
  <advance width="1013.41"/>
  <unicode hex="0072"/>
  <anchor x="247.44" y="0.0" name="bottom"/>
  <anchor x="538.17" y="955.1800000000001" name="top"/>
  <outline>
    <contour>
      <point x="304.61" y="534.22" type="line"/>
      <point x="387.41999999999996" y="744.5200000000001"/>
      <point x="556.5699999999999" y="853.38"/>
      <point x="765.26" y="853.38" type="curve" smooth="yes"/>
      <point x="847.13" y="853.38"/>
      <point x="916.36" y="837.09"/>
      <point x="970.18" y="816.33" type="curve"/>
      <point x="959.6999999999999" y="940.1899999999999" type="line"/>
      <point x="915.0" y="958.48"/>
      <point x="854.54" y="974.77"/>
      <point x="771.85" y="974.77" type="curve" smooth="yes"/>
      <point x="541.34" y="974.77"/>
      <point x="374.37" y="845.26"/>
      <point x="307.15000000000003" y="634.2900000000001" type="curve"/>
      <point x="274.6" y="628.1800000000001" type="line"/>
    </contour>
    <contour>
      <point x="179.74" y="0.0" type="line"/>
      <point x="313.14" y="0.0" type="line"/>
      <point x="313.14" y="608.78" type="line"/>
      <point x="306.49" y="614.08" type="line"/>
      <point x="313.14000000000004" y="955.1800000000001" type="line"/>
      <point x="179.74" y="955.1800000000001" type="line"/>
    </contour>
  </outline>
</glyph>
<glyph name="s" format="2">
  <advance width="1209.6000000000001"/>
  <unicode hex="0073"/>
  <anchor x="605.3000000000001" y="0.0" name="bottom"/>
  <anchor x="605.3000000000001" y="955.1800000000001" name="top"/>
  <outline>
    <contour>
      <point x="624.7700000000001" y="-28.71" type="curve" smooth="yes"/>
      <point x="950.55" y="-28.71"/>
      <point x="1118.32" y="62.88"/>
      <point x="1118.32" y="260.84000000000003" type="curve" smooth="yes"/>
      <point x="1118.32" y="260.84" type="line" smooth="yes"/>
      <point x="1118.32" y="463.79"/>
      <point x="993.19" y="519.91"/>
      <point x="618.5500000000001" y="545.21" type="curve" smooth="yes"/>
      <point x="312.06" y="564.86"/>
      <point x="232.91" y="596.5"/>
      <point x="232.91" y="714.3399999999999" type="curve" smooth="yes"/>
      <point x="232.91" y="714.34" type="line" smooth="yes"/>
      <point x="232.91" y="814.0100000000001"/>
      <point x="324.47" y="875.75"/>
      <point x="572.54" y="875.75" type="curve" smooth="yes"/>
      <point x="784.65" y="875.75"/>
      <point x="949.01" y="824.17"/>
      <point x="1069.02" y="760.47" type="curve"/>
      <point x="1053.01" y="874.73" type="line"/>
      <point x="953.4699999999999" y="929.96"/>
      <point x="787.41" y="983.48"/>
      <point x="563.94" y="983.48" type="curve" smooth="yes"/>
      <point x="248.7" y="983.48"/>
      <point x="102.1" y="891.89"/>
      <point x="102.1" y="716.46" type="curve" smooth="yes"/>
      <point x="102.1" y="715.4" type="line" smooth="yes"/>
      <point x="102.1" y="533.6899999999999"/>
      <point x="215.16" y="466.08"/>
      <point x="583.22" y="442.31" type="curve" smooth="yes"/>
      <point x="888.76" y="423.25"/>
      <point x="986.45" y="392.73"/>
      <point x="986.45" y="260.84" type="curve" smooth="yes"/>
      <point x="986.45" y="260.84" type="line" smooth="yes"/>
      <point x="986.45" y="136.47"/>
      <point x="860.48" y="81.61"/>
      <point x="619.88" y="81.61" type="curve" smooth="yes"/>
      <point x="394.65" y="81.61"/>
      <point x="228.7" y="138.49"/>
      <point x="93.11" y="208.13000000000002" type="curve"/>
      <point x="108.64999999999999" y="82.98" type="line"/>
      <point x="219.48000000000002" y="28.279999999999998"/>
      <point x="386.59999999999997" y="-28.71"/>
    </contour>
  </outline>
</glyph>
<glyph name="t" format="2">
  <advance width="1101.51"/>
  <unicode hex="0074"/>
  <anchor x="606.16" y="0.0" name="bottom"/>
  <anchor x="551.52" y="477.59000000000003" name="center"/>
  <anchor x="302.32" y="1203.0" name="top"/>
  <anchor x="843.36" y="1409.42" name="topright"/>
  <outline>
    <contour>
      <point x="646.11" y="-26.06" type="curve" smooth="yes"/>
      <point x="780.41" y="-26.06"/>
      <point x="906.7" y="3.17"/>
      <point x="1001.52" y="50.34" type="curve"/>
      <point x="1015.53" y="167.66000000000003" type="line"/>
      <point x="911.25" y="112.79"/>
      <point x="793.02" y="85.85000000000001"/>
      <point x="673.67" y="85.85000000000001" type="curve" smooth="yes"/>
      <point x="447.18" y="85.85000000000001"/>
      <point x="365.96" y="175.07"/>
      <point x="365.96" y="363.98" type="curve" smooth="yes"/>
      <point x="365.96" y="866.6700000000001" type="line"/>
      <point x="234.09" y="866.6700000000001" type="line"/>
      <point x="234.09" y="351.78999999999996" type="line" smooth="yes"/>
      <point x="234.09" y="95.6"/>
      <point x="346.44" y="-26.06"/>
    </contour>
    <contour>
      <point x="9.879999999999999" y="827.58" type="line"/>
      <point x="999.93" y="827.58" type="line"/>
      <point x="1014.47" y="931.66" type="line"/>
      <point x="9.879999999999999" y="931.66" type="line"/>
    </contour>
    <contour>
      <point x="235.68" y="916.83" type="line"/>
      <point x="362.31" y="916.83" type="line"/>
      <point x="367.96000000000004" y="1231.94" type="line"/>
      <point x="235.14999999999998" y="1213.76" type="line"/>
    </contour>
  </outline>
</glyph>
<glyph name="u" format="2">
  <advance width="1399.8400000000001"/>
  <unicode hex="0075"/>
  <anchor x="700.42" y="0.0" name="bottom"/>
  <anchor x="1265.98" y="2.6500000000000004" name="ogonek"/>
  <anchor x="700.42" y="955.1800000000001" name="top"/>
  <anchor x="1379.31" y="955.1800000000001" name="topright"/>
  <outline>
    <contour>
      <point x="294.32000000000005" y="955.1800000000001" type="line"/>
      <point x="160.92" y="955.1800000000001" type="line"/>
      <point x="160.92" y="426.89" type="line" smooth="yes"/>
      <point x="160.92" y="146.64"/>
      <point x="281.34000000000003" y="-27.12"/>
      <point x="614.79" y="-27.12" type="curve" smooth="yes"/>
      <point x="900.64" y="-27.12"/>
      <point x="1061.79" y="129.49"/>
      <point x="1094.1" y="301.34" type="curve"/>
      <point x="1120.5900000000001" y="301.34" type="line"/>
      <point x="1096.6399999999999" y="402.42" type="line"/>
      <point x="1060.93" y="224.11"/>
      <point x="903.38" y="84.26"/>
      <point x="658.48" y="84.26" type="curve" smooth="yes"/>
      <point x="387.24" y="84.26"/>
      <point x="294.32000000000005" y="228.23999999999998"/>
      <point x="294.32000000000005" y="442.78" type="curve" smooth="yes"/>
    </contour>
    <contour>
      <point x="1220.1" y="955.1800000000001" type="line"/>
      <point x="1086.7" y="955.1800000000001" type="line"/>
      <point x="1086.7" y="312.58000000000004" type="line"/>
      <point x="1093.35" y="298.27" type="line"/>
      <point x="1086.7" y="0.0" type="line"/>
      <point x="1220.1" y="0.0" type="line"/>
    </contour>
  </outline>
</glyph>
<glyph name="v" format="2">
  <advance width="1300.7800000000002"/>
  <unicode hex="0076"/>
  <anchor x="650.8900000000001" y="0.0" name="bottom"/>
  <anchor x="650.8900000000001" y="955.1800000000001" name="top"/>
  <outline>
    <contour>
      <point x="667.9499999999999" y="95.07" type="line"/>
      <point x="635.95" y="95.07" type="line"/>
      <point x="198.21" y="955.1800000000001" type="line"/>
      <point x="53.98" y="955.1800000000001" type="line"/>
      <point x="542.99" y="0.0" type="line"/>
      <point x="760.38" y="0.0" type="line"/>
      <point x="1246.8000000000002" y="955.1800000000001" type="line"/>
      <point x="1103.63" y="955.1800000000001" type="line"/>
    </contour>
  </outline>
</glyph>
<glyph name="w" format="2">
  <advance width="1960.8799999999999"/>
  <unicode hex="0077"/>
  <anchor x="980.9399999999999" y="0.0" name="bottom"/>
  <anchor x="980.9399999999999" y="955.1800000000001" name="top"/>
  <outline>
    <contour>
      <point x="451.34000000000003" y="0.0" type="line"/>
      <point x="652.02" y="0.0" type="line"/>
      <point x="901.0600000000001" y="636.55" type="line"/>
      <point x="972.4100000000001" y="829.46" type="line"/>
      <point x="987.47" y="829.46" type="line"/>
      <point x="1059.82" y="636.08" type="line"/>
      <point x="1308.39" y="0.0" type="line"/>
      <point x="1509.54" y="0.0" type="line"/>
      <point x="1887.1399999999999" y="955.1800000000001" type="line"/>
      <point x="1743.97" y="955.1800000000001" type="line"/>
      <point x="1415.52" y="97.72000000000001" type="line"/>
      <point x="1395.52" y="97.72000000000001" type="line"/>
      <point x="1073.48" y="927.18" type="line"/>
      <point x="885.87" y="927.18" type="line"/>
      <point x="565.9499999999999" y="97.72000000000001" type="line"/>
      <point x="545.89" y="97.72000000000001" type="line"/>
      <point x="216.91" y="955.1800000000001" type="line"/>
      <point x="73.74" y="955.1800000000001" type="line"/>
    </contour>
  </outline>
</glyph>
<glyph name="x" format="2">
  <advance width="1290.74"/>
  <unicode hex="0078"/>
  <anchor x="645.37" y="0.0" name="bottom"/>
  <anchor x="645.37" y="955.1800000000001" name="top"/>
  <outline>
    <contour>
      <point x="72.14999999999999" y="0.0" type="line"/>
      <point x="233.45000000000002" y="0.0" type="line"/>
      <point x="636.7800000000001" y="423.25" type="line"/>
      <point x="653.96" y="423.25" type="line"/>
      <point x="1057.82" y="0.0" type="line"/>
      <point x="1218.59" y="0.0" type="line"/>
      <point x="740.86" y="507.8399999999999" type="line"/>
      <point x="740.86" y="479.52" type="line"/>
      <point x="1209.9999999999998" y="955.1800000000001" type="line"/>
      <point x="1049.76" y="955.1800000000001" type="line"/>
      <point x="653.96" y="554.8100000000001" type="line"/>
      <point x="636.7800000000001" y="554.8100000000001" type="line"/>
      <point x="241.51000000000002" y="955.1800000000001" type="line"/>
      <point x="81.27" y="955.1800000000001" type="line"/>
      <point x="549.88" y="478.05" type="line"/>
      <point x="549.88" y="506.90000000000003" type="line"/>
    </contour>
  </outline>
</glyph>
<glyph name="y" format="2">
  <advance width="1303.7199999999998"/>
  <unicode hex="0079"/>
  <anchor x="955.44" y="16.959999999999994" name="bottom"/>
  <anchor x="652.36" y="955.1800000000001" name="top"/>
  <outline>
    <contour>
      <point x="719.58" y="125.78" type="line"/>
      <point x="634.24" y="125.78" type="line"/>
      <point x="199.27" y="955.1800000000001" type="line"/>
      <point x="53.98" y="955.1800000000001" type="line"/>
      <point x="543.9300000000001" y="33.36000000000001" type="line"/>
      <point x="689.8000000000001" y="33.36000000000001" type="line"/>
      <point x="641.46" y="87.88" type="line"/>
      <point x="414.92" y="-338.0" type="line"/>
      <point x="558.62" y="-338.0" type="line"/>
      <point x="1249.74" y="955.1800000000001" type="line"/>
      <point x="1104.45" y="955.1800000000001" type="line"/>
      <point x="643.28" y="80.74000000000001" type="line"/>
    </contour>
  </outline>
</glyph>
<glyph name="z" format="2">
  <advance width="1232.3"/>
  <unicode hex="007A"/>
  <anchor x="616.65" y="0.0" name="bottom"/>
  <anchor x="616.65" y="477.59000000000003" name="center"/>
  <anchor x="616.65" y="955.1800000000001" name="top"/>
  <outline>
    <contour>
      <point x="1124.25" y="105.67" type="line"/>
      <point x="287.25" y="105.67" type="line"/>
      <point x="1117.72" y="856.8100000000001" type="line"/>
      <point x="1117.72" y="954.6500000000001" type="line"/>
      <point x="112.05000000000001" y="954.6500000000001" type="line"/>
      <point x="112.05000000000001" y="848.98" type="line"/>
      <point x="937.52" y="848.98" type="line"/>
      <point x="108.05000000000001" y="98.37" type="line"/>
      <point x="108.05000000000001" y="0.0" type="line"/>
      <point x="1124.25" y="0.0" type="line"/>
    </contour>
  </outline>
</glyph>
<glyph name="braceleft" format="2">
  <advance width="849.64"/>
  <unicode hex="007B"/>
  <outline>
    <contour>
      <point x="766.12" y="1318.8300000000002" type="line"/>
      <point x="718.53" y="1335.7099999999998"/>
      <point x="645.4100000000001" y="1349.6499999999999"/>
      <point x="567.8800000000001" y="1349.6499999999999" type="curve" smooth="yes"/>
      <point x="364.98" y="1349.6499999999999"/>
      <point x="277.44000000000005" y="1266.47"/>
      <point x="277.44000000000005" y="1072.16" type="curve" smooth="yes"/>
      <point x="277.44000000000005" y="997.9300000000001"/>
      <point x="293.84999999999997" y="876.11"/>
      <point x="293.84999999999997" y="792.59" type="curve" smooth="yes"/>
      <point x="293.84999999999997" y="683.37"/>
      <point x="253.91" y="618.4399999999999"/>
      <point x="85.64" y="611.09" type="curve"/>
      <point x="85.64" y="504.25" type="line"/>
      <point x="253.91" y="493.96000000000004"/>
      <point x="293.84999999999997" y="427.09"/>
      <point x="293.84999999999997" y="315.46000000000004" type="curve" smooth="yes"/>
      <point x="293.84999999999997" y="232.41"/>
      <point x="277.44000000000005" y="110.59"/>
      <point x="277.44000000000005" y="35.36" type="curve" smooth="yes"/>
      <point x="277.44000000000005" y="-159.48"/>
      <point x="364.98" y="-243.19000000000003"/>
      <point x="567.8800000000001" y="-243.19000000000003" type="curve" smooth="yes"/>
      <point x="645.4100000000001" y="-243.19000000000003"/>
      <point x="718.53" y="-228.77999999999997"/>
      <point x="766.12" y="-211.36999999999998" type="curve"/>
      <point x="766.12" y="-109.53" type="line"/>
      <point x="723.9499999999999" y="-124.82"/>
      <point x="667.49" y="-138.17"/>
      <point x="598.6800000000001" y="-138.17" type="curve" smooth="yes"/>
      <point x="458.94" y="-138.17"/>
      <point x="403.41999999999996" y="-86.77"/>
      <point x="403.41999999999996" y="52.080000000000005" type="curve" smooth="yes"/>
      <point x="403.41999999999996" y="120.37"/>
      <point x="418.83" y="236.54"/>
      <point x="418.83" y="327.53000000000003" type="curve" smooth="yes"/>
      <point x="418.83" y="453.05"/>
      <point x="373.25" y="547.87"/>
      <point x="197.31" y="556.11" type="curve"/>
      <point x="210.32" y="533.39" type="line"/>
      <point x="210.32" y="560.82" type="line"/>
      <point x="379.77" y="575.0600000000001"/>
      <point x="418.83" y="666.46"/>
      <point x="418.83" y="781.52" type="curve" smooth="yes"/>
      <point x="418.83" y="871.51"/>
      <point x="403.41999999999996" y="987.15"/>
      <point x="403.41999999999996" y="1056.44" type="curve" smooth="yes"/>
      <point x="403.41999999999996" y="1194.29"/>
      <point x="458.41" y="1245.6899999999998"/>
      <point x="596.56" y="1245.6899999999998" type="curve" smooth="yes"/>
      <point x="666.4300000000001" y="1245.6899999999998"/>
      <point x="723.42" y="1233.34"/>
      <point x="766.12" y="1218.0500000000002" type="curve"/>
    </contour>
  </outline>
</glyph>
<glyph name="bar" format="2">
  <advance width="591.0799999999999"/>
  <unicode hex="007C"/>
  <outline>
    <contour>
      <point x="354.35" y="-454.40000000000003" type="line"/>
      <point x="354.35" y="1415.0" type="line"/>
      <point x="236.73" y="1415.0" type="line"/>
      <point x="236.73" y="-454.40000000000003" type="line"/>
    </contour>
  </outline>
</glyph>
<glyph name="braceright" format="2">
  <advance width="849.64"/>
  <unicode hex="007D"/>
  <outline>
    <contour>
      <point x="83.52" y="1318.8300000000002" type="curve"/>
      <point x="83.52" y="1218.0500000000002" type="line"/>
      <point x="126.22" y="1233.34"/>
      <point x="183.20999999999998" y="1245.6899999999998"/>
      <point x="253.08" y="1245.6899999999998" type="curve" smooth="yes"/>
      <point x="391.23" y="1245.6899999999998"/>
      <point x="446.22" y="1194.29"/>
      <point x="446.22" y="1056.44" type="curve" smooth="yes"/>
      <point x="446.22" y="987.15"/>
      <point x="430.81" y="871.51"/>
      <point x="430.81" y="781.52" type="curve" smooth="yes"/>
      <point x="430.81" y="666.46"/>
      <point x="469.87" y="575.0600000000001"/>
      <point x="639.32" y="560.82" type="curve"/>
      <point x="639.32" y="533.39" type="line"/>
      <point x="652.33" y="556.11" type="line"/>
      <point x="476.39" y="547.87"/>
      <point x="430.81" y="453.05"/>
      <point x="430.81" y="327.53000000000003" type="curve" smooth="yes"/>
      <point x="430.81" y="236.54"/>
      <point x="446.22" y="120.37"/>
      <point x="446.22" y="52.080000000000005" type="curve" smooth="yes"/>
      <point x="446.22" y="-86.77"/>
      <point x="390.70000000000005" y="-138.17"/>
      <point x="250.96" y="-138.17" type="curve" smooth="yes"/>
      <point x="182.14999999999998" y="-138.17"/>
      <point x="125.69" y="-124.82"/>
      <point x="83.52" y="-109.53" type="curve"/>
      <point x="83.52" y="-211.36999999999998" type="line"/>
      <point x="131.11" y="-228.77999999999997"/>
      <point x="204.23" y="-243.19000000000003"/>
      <point x="281.76000000000005" y="-243.19000000000003" type="curve" smooth="yes"/>
      <point x="484.66" y="-243.19000000000003"/>
      <point x="572.1999999999999" y="-159.48"/>
      <point x="572.1999999999999" y="35.36" type="curve" smooth="yes"/>
      <point x="572.1999999999999" y="110.59"/>
      <point x="555.79" y="232.41"/>
      <point x="555.79" y="315.46000000000004" type="curve" smooth="yes"/>
      <point x="555.79" y="427.09"/>
      <point x="595.7299999999999" y="493.96000000000004"/>
      <point x="764.0" y="504.25" type="curve"/>
      <point x="764.0" y="611.09" type="line"/>
      <point x="595.7299999999999" y="618.4399999999999"/>
      <point x="555.79" y="683.37"/>
      <point x="555.79" y="792.59" type="curve" smooth="yes"/>
      <point x="555.79" y="876.11"/>
      <point x="572.1999999999999" y="997.9300000000001"/>
      <point x="572.1999999999999" y="1072.16" type="curve" smooth="yes"/>
      <point x="572.1999999999999" y="1266.47"/>
      <point x="484.65999999999997" y="1349.6499999999999"/>
      <point x="281.76000000000005" y="1349.6499999999999" type="curve" smooth="yes"/>
      <point x="204.23" y="1349.6499999999999"/>
      <point x="131.11" y="1335.7099999999998"/>
    </contour>
  </outline>
</glyph>
<glyph name="asciitilde" format="2">
  <advance width="1373.35"/>
  <unicode hex="007E"/>
  <outline>
    <contour>
      <point x="964.16" y="426.94" type="curve" smooth="yes"/>
      <point x="1137.25" y="426.94"/>
      <point x="1206.9" y="522.49"/>
      <point x="1206.9" y="700.5" type="curve" smooth="yes"/>
      <point x="1206.9" y="731.6899999999999" type="line"/>
      <point x="1107.06" y="731.6899999999999" type="line"/>
      <point x="1107.06" y="715.16" type="line" smooth="yes"/>
      <point x="1107.06" y="594.6"/>
      <point x="1063.31" y="535.08"/>
      <point x="957.39" y="535.08" type="curve" smooth="yes"/>
      <point x="787.76" y="535.08"/>
      <point x="608.3700000000001" y="703.3399999999999"/>
      <point x="409.65999999999997" y="703.3399999999999" type="curve" smooth="yes"/>
      <point x="235.57" y="703.3399999999999"/>
      <point x="166.45" y="605.7299999999999"/>
      <point x="166.45" y="428.37" type="curve" smooth="yes"/>
      <point x="166.45" y="398.59000000000003" type="line"/>
      <point x="266.22999999999996" y="398.59000000000003" type="line"/>
      <point x="266.22999999999996" y="415.12" type="line" smooth="yes"/>
      <point x="266.22999999999996" y="534.62"/>
      <point x="312.1" y="593.61"/>
      <point x="415.96" y="593.61" type="curve" smooth="yes"/>
      <point x="584.1200000000001" y="593.61"/>
      <point x="765.6899999999999" y="426.94"/>
    </contour>
  </outline>
</glyph>
<glyph name="exclamdown" format="2">
  <advance width="546.74"/>
  <unicode hex="00A1"/>
  <outline>
    <contour>
      <point x="330.77" y="570.16" type="line"/>
      <point x="216.03" y="570.16" type="line"/>
      <point x="200.95999999999998" y="-322.82" type="line"/>
      <point x="345.31" y="-322.82" type="line"/>
    </contour>
    <contour>
      <point x="272.9" y="974.48" type="curve" smooth="yes"/>
      <point x="207.16" y="974.48"/>
      <point x="172.44" y="941.11"/>
      <point x="172.44" y="883.85" type="curve" smooth="yes"/>
      <point x="172.44" y="879.85" type="line" smooth="yes"/>
      <point x="172.44" y="823.06"/>
      <point x="207.16" y="790.16"/>
      <point x="272.9" y="790.16" type="curve" smooth="yes"/>
      <point x="341.11" y="790.16"/>
      <point x="374.83" y="823.06"/>
      <point x="374.83" y="879.85" type="curve" smooth="yes"/>
      <point x="374.83" y="883.85" type="line" smooth="yes"/>
      <point x="374.83" y="941.11"/>
      <point x="341.11" y="974.48"/>
    </contour>
  </outline>
</glyph>
<glyph name="cent" format="2">
  <advance width="1236.5200000000002"/>
  <unicode hex="00A2"/>
  <anchor x="666.58" y="0.0" name="bottom"/>
  <anchor x="666.58" y="955.1800000000001" name="top"/>
  <outline>
    <contour>
      <point x="751.35" y="914.01" type="line"/>
      <point x="751.35" y="1220.23" type="line"/>
      <point x="627.37" y="1220.23" type="line"/>
      <point x="627.37" y="914.01" type="line"/>
    </contour>
    <contour>
      <point x="751.35" y="-260.99000000000007" type="line"/>
      <point x="751.35" y="48.300000000000004" type="line"/>
      <point x="627.37" y="48.300000000000004" type="line"/>
      <point x="627.37" y="-260.99000000000007" type="line"/>
    </contour>
    <component base="c"/>
  </outline>
</glyph>
<glyph name="sterling" format="2">
  <advance width="1511.63"/>
  <unicode hex="00A3"/>
  <outline>
    <contour>
      <point x="111.52" y="591.55" type="line"/>
      <point x="1265.3500000000001" y="591.55" type="line"/>
      <point x="1276.59" y="694.4499999999999" type="line"/>
      <point x="122.76" y="694.4499999999999" type="line"/>
    </contour>
    <contour>
      <point x="356.67" y="112.97000000000001" type="line"/>
      <point x="356.67" y="119.09" type="line"/>
      <point x="464.92" y="159.20999999999998"/>
      <point x="538.02" y="247.61"/>
      <point x="538.02" y="397.88" type="curve" smooth="yes"/>
      <point x="538.02" y="599.01"/>
      <point x="436.56" y="732.54"/>
      <point x="436.56" y="918.09" type="curve" smooth="yes"/>
      <point x="436.56" y="1099.64"/>
      <point x="577.0500000000001" y="1188.39"/>
      <point x="868.85" y="1188.39" type="curve" smooth="yes"/>
      <point x="1025.43" y="1188.39"/>
      <point x="1178.8899999999999" y="1163.04"/>
      <point x="1321.65" y="1115.99" type="curve"/>
      <point x="1309.23" y="1232.72" type="line"/>
      <point x="1179.17" y="1274.48"/>
      <point x="1012.11" y="1302.24"/>
      <point x="845.41" y="1302.24" type="curve" smooth="yes"/>
      <point x="471.51000000000005" y="1302.24"/>
      <point x="292.68" y="1179.0"/>
      <point x="292.68" y="932.81" type="curve" smooth="yes"/>
      <point x="292.68" y="716.3100000000001"/>
      <point x="398.32" y="577.41"/>
      <point x="397.32" y="385.68" type="curve" smooth="yes"/>
      <point x="396.84999999999997" y="238.82999999999998"/>
      <point x="320.81" y="135.86"/>
      <point x="174.95" y="114.68" type="curve" smooth="yes"/>
      <point x="120.99" y="105.91" type="line"/>
      <point x="120.99" y="0.0" type="line"/>
      <point x="1429.58" y="0.0" type="line"/>
      <point x="1429.58" y="112.97000000000001" type="line"/>
    </contour>
  </outline>
</glyph>
<glyph name="currency" format="2">
  <advance width="1273.32"/>
  <unicode hex="00A4"/>
  <outline>
    <contour>
      <point x="636.13" y="226.62" type="curve" smooth="yes"/>
      <point x="921.5" y="226.62"/>
      <point x="1084.8" y="368.45"/>
      <point x="1084.8" y="620.4" type="curve" smooth="yes"/>
      <point x="1084.8" y="627.46" type="line" smooth="yes"/>
      <point x="1084.8" y="878.9399999999999"/>
      <point x="921.97" y="1019.3000000000001"/>
      <point x="636.6" y="1019.3000000000001" type="curve" smooth="yes"/>
      <point x="351.76" y="1019.3000000000001"/>
      <point x="188.45999999999998" y="878.9399999999999"/>
      <point x="188.45999999999998" y="627.46" type="curve" smooth="yes"/>
      <point x="188.45999999999998" y="620.4" type="line" smooth="yes"/>
      <point x="188.45999999999998" y="368.45"/>
      <point x="351.29" y="226.62"/>
    </contour>
    <contour>
      <point x="636.6" y="330.58" type="curve" smooth="yes"/>
      <point x="429.88" y="330.58"/>
      <point x="310.72999999999996" y="432.5"/>
      <point x="310.72999999999996" y="620.4" type="curve" smooth="yes"/>
      <point x="310.72999999999996" y="627.46" type="line" smooth="yes"/>
      <point x="310.72999999999996" y="813.89"/>
      <point x="429.88" y="915.3399999999999"/>
      <point x="636.6" y="915.3399999999999" type="curve" smooth="yes"/>
      <point x="842.3800000000001" y="915.3399999999999"/>
      <point x="962.5300000000001" y="813.89"/>
      <point x="962.5300000000001" y="627.46" type="curve" smooth="yes"/>
      <point x="962.53" y="620.4" type="line" smooth="yes"/>
      <point x="962.53" y="432.5"/>
      <point x="842.3800000000001" y="330.58"/>
    </contour>
    <contour>
      <point x="947.08" y="394.68" type="line"/>
      <point x="870.3199999999999" y="330.21999999999997" type="line"/>
      <point x="1089.1599999999999" y="122.02999999999999" type="line"/>
      <point x="1160.3300000000002" y="192.07999999999998" type="line"/>
    </contour>
    <contour>
      <point x="397.88" y="325.1" type="line"/>
      <point x="328.89" y="397.33" type="line"/>
      <point x="112.99000000000001" y="192.07999999999998" type="line"/>
      <point x="184.16" y="122.02999999999999" type="line"/>
    </contour>
    <contour>
      <point x="318.0" y="857.42" type="line"/>
      <point x="396.88" y="919.76" type="line"/>
      <point x="184.16" y="1122.36" type="line"/>
      <point x="112.99000000000001" y="1052.31" type="line"/>
    </contour>
    <contour>
      <point x="875.03" y="918.35" type="line"/>
      <point x="951.14" y="853.24" type="line"/>
      <point x="1160.33" y="1052.31" type="line"/>
      <point x="1089.1599999999999" y="1122.36" type="line"/>
    </contour>
  </outline>
</glyph>
<glyph name="yen" format="2">
  <advance width="1507.61"/>
  <unicode hex="00A5"/>
  <anchor x="751.13" y="0.0" name="bottom"/>
  <anchor x="751.13" y="1278.0" name="top"/>
  <anchor x="20.0" y="1278.0" name="topleft"/>
  <outline>
    <contour>
      <point x="889.22" y="585.3" type="line"/>
      <point x="1349.32" y="585.3" type="line"/>
      <point x="1360.03" y="680.9" type="line"/>
      <point x="922.35" y="680.9" type="line"/>
    </contour>
    <contour>
      <point x="160.88000000000002" y="359.91999999999996" type="line"/>
      <point x="149.64000000000001" y="264.32" type="line"/>
      <point x="1349.32" y="264.32" type="line"/>
      <point x="1360.03" y="359.91999999999996" type="line"/>
    </contour>
    <contour>
      <point x="586.62" y="680.9" type="line"/>
      <point x="160.88000000000002" y="680.9" type="line"/>
      <point x="149.64000000000001" y="585.3" type="line"/>
      <point x="619.7499999999999" y="585.3" type="line"/>
    </contour>
    <component base="Y"/>
  </outline>
</glyph>
<glyph name="brokenbar" format="2">
  <advance width="593.1999999999999"/>
  <unicode hex="00A6"/>
  <outline>
    <contour>
      <point x="356.47" y="589.7" type="line"/>
      <point x="356.47" y="1415.0" type="line"/>
      <point x="236.73" y="1415.0" type="line"/>
      <point x="236.73" y="589.7" type="line"/>
    </contour>
    <contour>
      <point x="356.47" y="-454.40000000000003" type="line"/>
      <point x="356.47" y="370.90000000000003" type="line"/>
      <point x="236.73" y="370.90000000000003" type="line"/>
      <point x="236.73" y="-454.40000000000003" type="line"/>
    </contour>
  </outline>
</glyph>
<glyph name="section" format="2">
  <advance width="1300.23"/>
  <unicode hex="00A7"/>
  <outline>
    <contour>
      <point x="802.73" y="409.44" type="curve"/>
      <point x="942.1899999999999" y="370.37" type="line"/>
      <point x="942.1899999999999" y="405.03" type="line"/>
      <point x="1073.9599999999998" y="421.2"/>
      <point x="1155.31" y="492.73"/>
      <point x="1155.31" y="610.79" type="curve" smooth="yes"/>
      <point x="1155.31" y="610.7900000000001" type="line" smooth="yes"/>
      <point x="1153.84" y="784.79"/>
      <point x="1020.95" y="844.96"/>
      <point x="659.25" y="871.38" type="curve" smooth="yes"/>
      <point x="356.47" y="893.09"/>
      <point x="276.26" y="923.7299999999999"/>
      <point x="276.26" y="1039.98" type="curve" smooth="yes"/>
      <point x="276.26" y="1039.98" type="line" smooth="yes"/>
      <point x="276.26" y="1136.83"/>
      <point x="366.23" y="1197.22"/>
      <point x="613.24" y="1197.22" type="curve" smooth="yes"/>
      <point x="823.76" y="1197.22"/>
      <point x="989.1800000000001" y="1144.05"/>
      <point x="1108.6599999999999" y="1077.7" type="curve"/>
      <point x="1092.6499999999999" y="1193.02" type="line"/>
      <point x="992.58" y="1248.25"/>
      <point x="824.9300000000001" y="1301.77"/>
      <point x="604.64" y="1301.77" type="curve" smooth="yes"/>
      <point x="289.93" y="1301.77"/>
      <point x="145.45" y="1212.59"/>
      <point x="145.45" y="1041.57" type="curve" smooth="yes"/>
      <point x="145.45" y="1040.51" type="line" smooth="yes"/>
      <point x="145.45" y="851.91"/>
      <point x="271.76" y="794.9000000000001"/>
      <point x="623.92" y="771.66" type="curve" smooth="yes"/>
      <point x="924.58" y="752.0699999999999"/>
      <point x="1027.68" y="710.9699999999999"/>
      <point x="1027.68" y="583.76" type="curve" smooth="yes"/>
      <point x="1027.68" y="583.76" type="line" smooth="yes"/>
      <point x="1027.68" y="490.96"/>
      <point x="942.2299999999999" y="429.74"/>
    </contour>
    <contour>
      <point x="494.27000000000004" y="803.49" type="curve"/>
      <point x="343.98" y="830.38" type="line"/>
      <point x="343.98" y="803.37" type="line"/>
      <point x="215.99" y="780.0799999999999"/>
      <point x="146.51" y="709.03"/>
      <point x="146.51" y="599.91" type="curve" smooth="yes"/>
      <point x="146.51" y="598.85" type="line" smooth="yes"/>
      <point x="146.51" y="430.38"/>
      <point x="276.40000000000003" y="365.03000000000003"/>
      <point x="635.05" y="336.96" type="curve" smooth="yes"/>
      <point x="927.3399999999999" y="315.25"/>
      <point x="1024.5" y="284.2"/>
      <point x="1024.5" y="156.55" type="curve" smooth="yes"/>
      <point x="1024.5" y="156.55" type="line" smooth="yes"/>
      <point x="1024.5" y="38.120000000000005"/>
      <point x="901.1800000000001" y="-14.27"/>
      <point x="660.58" y="-14.27" type="curve" smooth="yes"/>
      <point x="439.59" y="-14.27"/>
      <point x="266.22" y="42.080000000000005"/>
      <point x="134.34" y="111.19" type="curve"/>
      <point x="149.88" y="-11.840000000000003" type="line"/>
      <point x="258.06" y="-65.48"/>
      <point x="433.65999999999997" y="-121.41000000000001"/>
      <point x="669.18" y="-121.41000000000001" type="curve" smooth="yes"/>
      <point x="994.43" y="-121.41000000000001"/>
      <point x="1156.37" y="-30.17"/>
      <point x="1156.37" y="154.96" type="curve" smooth="yes"/>
      <point x="1156.37" y="154.96" type="line" smooth="yes"/>
      <point x="1156.37" y="352.61"/>
      <point x="1030.71" y="410.84999999999997"/>
      <point x="670.3799999999999" y="436.68" type="curve" smooth="yes"/>
      <point x="372.24" y="457.39"/>
      <point x="272.55000000000007" y="506.26"/>
      <point x="272.55000000000007" y="623.76" type="curve" smooth="yes"/>
      <point x="272.55000000000007" y="623.76" type="line"/>
      <point x="272.55000000000007" y="714.5600000000001"/>
      <point x="341.65000000000003" y="776.7199999999999"/>
    </contour>
  </outline>
</glyph>
<glyph name="copyright" format="2">
  <advance width="1669.26"/>
  <unicode hex="00A9"/>
  <outline>
    <contour>
      <point x="834.13" y="-27.360000000000003" type="curve" smooth="yes"/>
      <point x="1287.44" y="-27.360000000000003"/>
      <point x="1543.1599999999999" y="211.94"/>
      <point x="1543.1599999999999" y="631.65" type="curve" smooth="yes"/>
      <point x="1543.1599999999999" y="651.0600000000001" type="line" smooth="yes"/>
      <point x="1543.6299999999999" y="1068.6499999999999"/>
      <point x="1287.44" y="1305.36"/>
      <point x="834.13" y="1305.36" type="curve" smooth="yes"/>
      <point x="381.82" y="1305.36"/>
      <point x="126.1" y="1068.6499999999999"/>
      <point x="126.1" y="651.0600000000001" type="curve" smooth="yes"/>
      <point x="126.1" y="631.65" type="line" smooth="yes"/>
      <point x="126.1" y="211.94"/>
      <point x="381.82" y="-27.360000000000003"/>
    </contour>
    <contour>
      <point x="865.25" y="313.88" type="curve" smooth="yes"/>
      <point x="1004.41" y="313.88"/>
      <point x="1093.53" y="352.4"/>
      <point x="1147.24" y="388.22" type="curve"/>
      <point x="1155.54" y="479.09999999999997" type="line"/>
      <point x="1093.71" y="436.81"/>
      <point x="1008.42" y="398.23"/>
      <point x="878.4399999999999" y="398.23" type="curve" smooth="yes"/>
      <point x="697.23" y="398.23"/>
      <point x="600.0699999999999" y="481.74"/>
      <point x="600.0699999999999" y="634.53" type="curve" smooth="yes"/>
      <point x="600.0699999999999" y="647.88" type="line" smooth="yes"/>
      <point x="600.0699999999999" y="799.67"/>
      <point x="697.11" y="880.7099999999999"/>
      <point x="873.85" y="880.7099999999999" type="curve" smooth="yes"/>
      <point x="1001.13" y="880.7099999999999"/>
      <point x="1086.95" y="842.54"/>
      <point x="1148.07" y="800.31" type="curve"/>
      <point x="1139.24" y="891.13" type="line"/>
      <point x="1089.47" y="923.54"/>
      <point x="1000.94" y="964.0"/>
      <point x="864.7199999999999" y="964.0" type="curve" smooth="yes"/>
      <point x="628.7099999999999" y="964.0"/>
      <point x="500.59" y="852.35"/>
      <point x="500.59" y="647.94" type="curve" smooth="yes"/>
      <point x="500.59" y="634.53" type="line" smooth="yes"/>
      <point x="500.59" y="427.0"/>
      <point x="628.24" y="313.88"/>
    </contour>
    <contour>
      <point x="834.13" y="53.81" type="curve" smooth="yes"/>
      <point x="439.92" y="53.81"/>
      <point x="221.87" y="262.62"/>
      <point x="221.87" y="632.18" type="curve" smooth="yes"/>
      <point x="221.87" y="650.53" type="line" smooth="yes"/>
      <point x="221.87" y="1018.97"/>
      <point x="439.92" y="1224.19"/>
      <point x="834.13" y="1224.19" type="curve" smooth="yes"/>
      <point x="1229.34" y="1224.19"/>
      <point x="1447.39" y="1018.97"/>
      <point x="1447.39" y="650.53" type="curve" smooth="yes"/>
      <point x="1447.39" y="632.18" type="line" smooth="yes"/>
      <point x="1447.39" y="262.62"/>
      <point x="1229.34" y="53.81"/>
    </contour>
  </outline>
</glyph>
<glyph name="ordfeminine" format="2">
  <advance width="900.8"/>
  <unicode hex="00AA"/>
  <outline>
    <contour>
      <point x="658.7" y="646.35" type="line"/>
      <point x="756.77" y="646.35" type="line"/>
      <point x="756.77" y="1035.16" type="line" smooth="yes"/>
      <point x="756.77" y="1183.45"/>
      <point x="673.1899999999999" y="1294.94"/>
      <point x="451.22" y="1294.94" type="curve" smooth="yes"/>
      <point x="304.35" y="1294.94"/>
      <point x="204.35" y="1247.8899999999999"/>
      <point x="144.39999999999998" y="1212.36" type="curve"/>
      <point x="134.57" y="1127.54" type="line"/>
      <point x="206.93" y="1167.89"/>
      <point x="306.69000000000005" y="1213.06"/>
      <point x="435.5" y="1213.06" type="curve" smooth="yes"/>
      <point x="592.0699999999999" y="1213.06"/>
      <point x="661.82" y="1149.9"/>
      <point x="661.82" y="1038.22" type="curve"/>
      <point x="661.82" y="989.75" type="line"/>
      <point x="661.82" y="843.99" type="line"/>
      <point x="663.2900000000001" y="829.69" type="line"/>
    </contour>
    <contour>
      <point x="347.15" y="629.8199999999999" type="curve" smooth="yes"/>
      <point x="541.77" y="629.8199999999999"/>
      <point x="639.4999999999999" y="719.5"/>
      <point x="664.28" y="826.5400000000001" type="curve"/>
      <point x="683.88" y="826.5400000000001" type="line"/>
      <point x="667.35" y="899.36" type="line"/>
      <point x="642.1100000000001" y="795.5600000000001"/>
      <point x="533.48" y="713.2900000000001"/>
      <point x="376.35" y="713.2900000000001" type="curve" smooth="yes"/>
      <point x="265.85" y="713.2900000000001"/>
      <point x="201.64" y="750.51"/>
      <point x="201.64" y="820.66" type="curve" smooth="yes"/>
      <point x="201.64" y="826.07" type="line" smooth="yes"/>
      <point x="201.64" y="908.98"/>
      <point x="267.91" y="935.38"/>
      <point x="408.63" y="946.26" type="curve" smooth="yes"/>
      <point x="675.0" y="966.73" type="line"/>
      <point x="672.4100000000001" y="1036.6" type="line"/>
      <point x="394.5" y="1015.6600000000001" type="line" smooth="yes"/>
      <point x="199.22" y="1000.66"/>
      <point x="100.39" y="950.5999999999999"/>
      <point x="100.39" y="818.71" type="curve" smooth="yes"/>
      <point x="100.39" y="811.71" type="line" smooth="yes"/>
      <point x="100.39" y="694.59"/>
      <point x="193.67999999999998" y="629.8199999999999"/>
    </contour>
  </outline>
</glyph>
<glyph name="logicalnot" format="2">
  <advance width="1358.2800000000002"/>
  <unicode hex="00AC"/>
  <outline>
    <contour>
      <point x="1190.83" y="94.99000000000001" type="line"/>
      <point x="1190.83" y="621.13" type="line"/>
      <point x="1077.45" y="621.13" type="line"/>
      <point x="1077.45" y="94.99000000000001" type="line"/>
    </contour>
    <contour>
      <point x="152.75" y="556.78" type="line"/>
      <point x="1190.83" y="556.78" type="line"/>
      <point x="1190.83" y="661.8" type="line"/>
      <point x="152.75" y="661.8" type="line"/>
    </contour>
  </outline>
</glyph>
<glyph name="registered" format="2">
  <advance width="1025.63"/>
  <unicode hex="00AE"/>
  <outline>
    <contour>
      <point x="513.58" y="535.51" type="curve" smooth="yes"/>
      <point x="784.59" y="535.51"/>
      <point x="946.8299999999999" y="672.87"/>
      <point x="946.8299999999999" y="915.5200000000001" type="curve" smooth="yes"/>
      <point x="946.8299999999999" y="920.52" type="line" smooth="yes"/>
      <point x="946.8299999999999" y="1162.7"/>
      <point x="784.59" y="1299.53"/>
      <point x="513.58" y="1299.53" type="curve" smooth="yes"/>
      <point x="241.57" y="1299.53"/>
      <point x="78.8" y="1162.7"/>
      <point x="78.8" y="920.52" type="curve" smooth="yes"/>
      <point x="78.8" y="915.5200000000001" type="line" smooth="yes"/>
      <point x="78.8" y="672.87"/>
      <point x="241.57" y="535.51"/>
    </contour>
    <contour>
      <point x="513.58" y="595.5400000000001" type="curve" smooth="yes"/>
      <point x="281.12" y="595.5400000000001"/>
      <point x="148.72" y="706.3599999999999"/>
      <point x="148.72" y="916.52" type="curve" smooth="yes"/>
      <point x="148.72" y="921.05" type="line" smooth="yes"/>
      <point x="148.72" y="1130.15"/>
      <point x="280.65000000000003" y="1239.5"/>
      <point x="513.58" y="1239.5" type="curve" smooth="yes"/>
      <point x="745.0400000000001" y="1239.5"/>
      <point x="876.9100000000001" y="1130.15"/>
      <point x="876.9100000000001" y="921.05" type="curve" smooth="yes"/>
      <point x="876.9100000000001" y="916.52" type="line" smooth="yes"/>
      <point x="876.9100000000001" y="706.8299999999999"/>
      <point x="745.51" y="595.5400000000001"/>
    </contour>
    <contour>
      <point x="648.55" y="734.76" type="line"/>
      <point x="716.4100000000001" y="734.76" type="line"/>
      <point x="700.47" y="802.0500000000001" type="line" smooth="yes"/>
      <point x="686.4699999999999" y="860.58"/>
      <point x="666.4699999999999" y="901.34"/>
      <point x="588.77" y="904.46" type="curve"/>
      <point x="607.59" y="895.93" type="line"/>
      <point x="607.59" y="903.23" type="line"/>
      <point x="676.82" y="906.23"/>
      <point x="710.76" y="942.0500000000001"/>
      <point x="710.76" y="997.11" type="curve" smooth="yes"/>
      <point x="710.76" y="1001.5799999999999" type="line" smooth="yes"/>
      <point x="710.76" y="1066.7"/>
      <point x="667.58" y="1106.64"/>
      <point x="572.63" y="1106.64" type="curve" smooth="yes"/>
      <point x="387.65" y="1106.64" type="line"/>
      <point x="387.65" y="1055.97" type="line"/>
      <point x="562.0899999999999" y="1055.97" type="line" smooth="yes"/>
      <point x="619.67" y="1055.97"/>
      <point x="644.4300000000001" y="1031.74"/>
      <point x="644.4300000000001" y="992.16" type="curve" smooth="yes"/>
      <point x="644.4300000000001" y="988.6899999999999" type="line" smooth="yes"/>
      <point x="644.4300000000001" y="948.58"/>
      <point x="619.67" y="921.94"/>
      <point x="563.56" y="921.94" type="curve" smooth="yes"/>
      <point x="387.65000000000003" y="921.41" type="line"/>
      <point x="387.65000000000003" y="872.27" type="line"/>
      <point x="541.27" y="872.27" type="line" smooth="yes"/>
      <point x="604.3799999999999" y="872.27"/>
      <point x="622.73" y="848.1"/>
      <point x="635.1999999999999" y="793.22" type="curve" smooth="yes"/>
    </contour>
    <contour>
      <point x="347.1" y="734.76" type="line"/>
      <point x="411.84" y="734.76" type="line"/>
      <point x="411.84" y="879.8" type="line"/>
      <point x="411.84" y="900.8100000000001" type="line"/>
      <point x="411.84" y="1106.64" type="line"/>
      <point x="347.1" y="1106.64" type="line"/>
    </contour>
  </outline>
</glyph>
<glyph name="degree" format="2">
  <advance width="797.6"/>
  <unicode hex="00B0"/>
  <outline>
    <contour>
      <point x="398.29999999999995" y="763.5" type="curve" smooth="yes"/>
      <point x="582.1999999999999" y="763.5"/>
      <point x="687.6199999999999" y="871.8"/>
      <point x="687.6199999999999" y="1032.3999999999999" type="curve" smooth="yes"/>
      <point x="687.6199999999999" y="1037.46" type="line" smooth="yes"/>
      <point x="687.6199999999999" y="1198.06"/>
      <point x="582.1999999999999" y="1305.36"/>
      <point x="398.29999999999995" y="1305.36" type="curve" smooth="yes"/>
      <point x="215.4" y="1305.36"/>
      <point x="109.98" y="1198.06"/>
      <point x="109.98" y="1037.46" type="curve" smooth="yes"/>
      <point x="109.98" y="1032.3999999999999" type="line" smooth="yes"/>
      <point x="109.98" y="871.8"/>
      <point x="215.4" y="763.5"/>
    </contour>
    <contour>
      <point x="398.29999999999995" y="854.74" type="curve" smooth="yes"/>
      <point x="281.33000000000004" y="854.74"/>
      <point x="213.76" y="925.3100000000001"/>
      <point x="213.76" y="1032.3999999999999" type="curve" smooth="yes"/>
      <point x="213.76" y="1036.93" type="line" smooth="yes"/>
      <point x="213.76" y="1144.55"/>
      <point x="281.33000000000004" y="1214.1200000000001"/>
      <point x="398.29999999999995" y="1214.1200000000001" type="curve" smooth="yes"/>
      <point x="515.8" y="1214.1200000000001"/>
      <point x="583.37" y="1144.55"/>
      <point x="583.37" y="1036.93" type="curve" smooth="yes"/>
      <point x="583.37" y="1032.3999999999999" type="line" smooth="yes"/>
      <point x="583.37" y="925.3100000000001"/>
      <point x="515.8" y="854.74"/>
    </contour>
  </outline>
</glyph>
<glyph name="plusminus" format="2">
  <advance width="1376.28"/>
  <unicode hex="00B1"/>
  <outline>
    <contour>
      <point x="169.1" y="97.55" type="line"/>
      <point x="1207.18" y="97.55" type="line"/>
      <point x="1207.18" y="201.1" type="line"/>
      <point x="169.1" y="201.1" type="line"/>
    </contour>
    <contour>
      <point x="745.86" y="363.01" type="line"/>
      <point x="745.86" y="1183.01" type="line"/>
      <point x="630.89" y="1183.01" type="line"/>
      <point x="630.89" y="363.01" type="line"/>
    </contour>
    <contour>
      <point x="169.1" y="721.5" type="line"/>
      <point x="1207.18" y="721.5" type="line"/>
      <point x="1207.18" y="824.52" type="line"/>
      <point x="169.1" y="824.52" type="line"/>
    </contour>
  </outline>
</glyph>
<glyph name="twosuperior" format="2">
  <advance width="829.34"/>
  <unicode hex="00B2"/>
  <outline>
    <contour>
      <point x="57.93" y="750.53" type="line"/>
      <point x="763.41" y="750.53" type="line"/>
      <point x="763.41" y="839.71" type="line"/>
      <point x="171.60999999999999" y="838.24" type="line"/>
      <point x="238.61" y="819.58" type="line"/>
      <point x="238.61" y="841.83" type="line"/>
      <point x="443.70000000000005" y="933.73" type="line" smooth="yes"/>
      <point x="640.15" y="1021.1300000000001"/>
      <point x="745.59" y="1090.6000000000001"/>
      <point x="745.59" y="1223.3500000000001" type="curve" smooth="yes"/>
      <point x="745.59" y="1229.41" type="line" smooth="yes"/>
      <point x="745.59" y="1364.59"/>
      <point x="624.94" y="1438.77"/>
      <point x="411.87" y="1438.77" type="curve" smooth="yes"/>
      <point x="288.52" y="1438.77"/>
      <point x="150.7" y="1403.95"/>
      <point x="73.28999999999999" y="1358.43" type="curve"/>
      <point x="62.93" y="1268.37" type="line"/>
      <point x="164.16" y="1317.77"/>
      <point x="279.62" y="1351.71"/>
      <point x="402.39000000000004" y="1351.71" type="curve" smooth="yes"/>
      <point x="556.48" y="1351.71"/>
      <point x="635.45" y="1308.9"/>
      <point x="635.45" y="1218.34" type="curve" smooth="yes"/>
      <point x="635.45" y="1215.87" type="line" smooth="yes"/>
      <point x="635.45" y="1114.02"/>
      <point x="517.35" y="1054.85"/>
      <point x="363.92" y="984.93" type="curve" smooth="yes"/>
      <point x="57.93" y="846.9399999999999" type="line"/>
    </contour>
  </outline>
</glyph>
<glyph name="threesuperior" format="2">
  <advance width="875.51"/>
  <unicode hex="00B3"/>
  <outline>
    <contour>
      <point x="424.75" y="735.23" type="curve" smooth="yes"/>
      <point x="678.05" y="735.23"/>
      <point x="800.17" y="810.82"/>
      <point x="800.17" y="934.77" type="curve" smooth="yes"/>
      <point x="800.17" y="943.24" type="line" smooth="yes"/>
      <point x="800.17" y="1036.5300000000002"/>
      <point x="735.71" y="1093.05"/>
      <point x="583.99" y="1102.53" type="curve"/>
      <point x="590.8100000000001" y="1091.0" type="line"/>
      <point x="590.81" y="1102.36" type="line"/>
      <point x="727.89" y="1110.19"/>
      <point x="791.29" y="1167.3"/>
      <point x="791.29" y="1254.0" type="curve" smooth="yes"/>
      <point x="791.29" y="1260.47" type="line" smooth="yes"/>
      <point x="791.29" y="1372.89"/>
      <point x="678.87" y="1437.77"/>
      <point x="440.04" y="1437.77" type="curve" smooth="yes"/>
      <point x="275.82" y="1437.77"/>
      <point x="153.94" y="1403.6599999999999"/>
      <point x="84.52" y="1372.25" type="curve"/>
      <point x="73.69" y="1286.9" type="line"/>
      <point x="153.69" y="1319.54"/>
      <point x="272.87" y="1352.3"/>
      <point x="429.68" y="1352.3" type="curve" smooth="yes"/>
      <point x="611.12" y="1352.3"/>
      <point x="679.5600000000001" y="1313.61"/>
      <point x="679.5600000000001" y="1247.28" type="curve" smooth="yes"/>
      <point x="679.5600000000001" y="1244.34" type="line" smooth="yes"/>
      <point x="679.5600000000001" y="1181.8899999999999"/>
      <point x="622.9300000000001" y="1139.38"/>
      <point x="465.75" y="1137.8500000000001" type="curve" smooth="yes"/>
      <point x="230.38" y="1134.73" type="line"/>
      <point x="230.38" y="1058.56" type="line"/>
      <point x="465.28000000000003" y="1055.5" type="line" smooth="yes"/>
      <point x="668.38" y="1053.5"/>
      <point x="687.38" y="993.24"/>
      <point x="687.38" y="948.01" type="curve" smooth="yes"/>
      <point x="687.38" y="944.07" type="line" smooth="yes"/>
      <point x="687.38" y="868.51"/>
      <point x="611.18" y="821.23"/>
      <point x="415.09000000000003" y="821.23" type="curve" smooth="yes"/>
      <point x="277.63000000000005" y="821.23"/>
      <point x="149.80999999999997" y="852.52"/>
      <point x="69.69000000000001" y="881.81" type="curve"/>
      <point x="80.05" y="790.75" type="line"/>
      <point x="142.35" y="769.87"/>
      <point x="265.64" y="735.23"/>
    </contour>
  </outline>
</glyph>
<glyph name="micro" format="2">
  <advance width="1418.6599999999999"/>
  <unicode hex="00B5"/>
  <outline>
    <contour>
      <point x="1238.92" y="955.1800000000001" type="line"/>
      <point x="1105.52" y="955.1800000000001" type="line"/>
      <point x="1105.52" y="312.58000000000004" type="line"/>
      <point x="1112.1699999999998" y="298.27" type="line"/>
      <point x="1105.52" y="0.0" type="line"/>
      <point x="1238.92" y="0.0" type="line"/>
    </contour>
    <contour>
      <point x="311.26" y="451.90999999999997" type="curve" smooth="yes"/>
      <point x="313.14" y="955.1800000000001" type="line"/>
      <point x="179.74" y="955.1800000000001" type="line"/>
      <point x="179.74" y="-338.0" type="line"/>
      <point x="312.08" y="-338.0" type="line"/>
      <point x="312.08" y="-189.68" type="line"/>
      <point x="303.02000000000004" y="217.34" type="line"/>
      <point x="306.84999999999997" y="217.34" type="line"/>
      <point x="357.62" y="55.73"/>
      <point x="498.28" y="-27.119999999999997"/>
      <point x="689.54" y="-27.119999999999997" type="curve" smooth="yes"/>
      <point x="938.54" y="-27.119999999999997"/>
      <point x="1084.8500000000001" y="129.48999999999998"/>
      <point x="1112.92" y="301.34" type="curve"/>
      <point x="1139.4099999999999" y="301.34" type="line"/>
      <point x="1115.46" y="402.42" type="line"/>
      <point x="1081.3400000000001" y="224.64000000000001"/>
      <point x="923.79" y="84.26"/>
      <point x="694.01" y="84.26" type="curve" smooth="yes"/>
      <point x="485.9" y="84.26"/>
      <point x="311.26" y="196.19"/>
    </contour>
  </outline>
</glyph>
<glyph name="paragraph" format="2">
  <advance width="887.9399999999999"/>
  <unicode hex="00B6"/>
  <outline>
    <contour>
      <point x="458.89" y="663.87" type="curve"/>
      <point x="578.7" y="663.87" type="line"/>
      <point x="577.23" y="1278.0" type="line"/>
      <point x="458.89" y="1278.0" type="line" smooth="yes"/>
      <point x="220.58" y="1278.0"/>
      <point x="109.69" y="1161.06"/>
      <point x="109.69" y="979.11" type="curve" smooth="yes"/>
      <point x="109.69" y="963.23" type="line" smooth="yes"/>
      <point x="109.69" y="781.87"/>
      <point x="220.58" y="663.87"/>
    </contour>
    <contour>
      <point x="678.97" y="0.0" type="line"/>
      <point x="678.97" y="1278.0" type="line"/>
      <point x="544.63" y="1278.0" type="line"/>
      <point x="544.63" y="0.0" type="line"/>
    </contour>
  </outline>
</glyph>
<glyph name="onesuperior" format="2">
  <advance width="536.83"/>
  <unicode hex="00B9"/>
  <outline>
    <contour>
      <point x="310.19" y="750.53" type="line"/>
      <point x="415.15000000000003" y="750.53" type="line"/>
      <point x="415.15000000000003" y="1423.06" type="line"/>
      <point x="307.5" y="1423.06" type="line"/>
      <point x="50.58" y="1299.79" type="line"/>
      <point x="45.93" y="1205.02" type="line"/>
      <point x="302.65999999999997" y="1326.9299999999998" type="line"/>
      <point x="310.19" y="1326.9299999999998" type="line"/>
    </contour>
  </outline>
</glyph>
<glyph name="ordmasculine" format="2">
  <advance width="905.99"/>
  <unicode hex="00BA"/>
  <outline>
    <contour>
      <point x="453.22999999999996" y="630.8199999999999" type="curve" smooth="yes"/>
      <point x="688.18" y="630.8199999999999"/>
      <point x="820.8299999999999" y="742.94"/>
      <point x="820.8299999999999" y="952.4699999999999" type="curve" smooth="yes"/>
      <point x="820.8299999999999" y="974.2900000000001" type="line" smooth="yes"/>
      <point x="820.8299999999999" y="1182.82"/>
      <point x="689.1800000000001" y="1295.47"/>
      <point x="453.22999999999996" y="1295.47" type="curve" smooth="yes"/>
      <point x="217.81" y="1295.47"/>
      <point x="85.16" y="1182.82"/>
      <point x="85.16" y="974.2900000000001" type="curve" smooth="yes"/>
      <point x="85.16" y="952.4699999999999" type="line" smooth="yes"/>
      <point x="85.16" y="743.94"/>
      <point x="216.81" y="630.8199999999999"/>
    </contour>
    <contour>
      <point x="453.22999999999996" y="714.82" type="curve" smooth="yes"/>
      <point x="284.33" y="714.82"/>
      <point x="189.06" y="797.8"/>
      <point x="189.06" y="953.53" type="curve" smooth="yes"/>
      <point x="189.06" y="973.76" type="line" smooth="yes"/>
      <point x="189.06" y="1128.96"/>
      <point x="284.33" y="1211.47"/>
      <point x="453.22999999999996" y="1211.47" type="curve" smooth="yes"/>
      <point x="622.1300000000001" y="1211.47"/>
      <point x="716.93" y="1128.96"/>
      <point x="716.93" y="973.76" type="curve" smooth="yes"/>
      <point x="716.93" y="953.53" type="line" smooth="yes"/>
      <point x="716.93" y="797.8"/>
      <point x="620.6600000000001" y="714.82"/>
    </contour>
  </outline>
</glyph>
<glyph name="guillemetright" format="2">
  <advance width="1301.45"/>
  <unicode hex="00BB"/>
  <outline>
    <contour>
      <point x="497.27" y="474.53000000000003" type="line"/>
      <point x="60.089999999999996" y="82.52" type="line"/>
      <point x="213.02" y="82.52" type="line"/>
      <point x="632.62" y="454.23999999999995" type="line"/>
      <point x="632.62" y="501.18" type="line"/>
      <point x="213.02" y="866.5400000000001" type="line"/>
      <point x="60.089999999999996" y="866.5400000000001" type="line"/>
    </contour>
    <contour>
      <point x="1071.77" y="474.53000000000003" type="line"/>
      <point x="634.59" y="82.52" type="line"/>
      <point x="787.52" y="82.52" type="line"/>
      <point x="1207.12" y="454.23999999999995" type="line"/>
      <point x="1207.12" y="501.18" type="line"/>
      <point x="787.52" y="866.5400000000001" type="line"/>
      <point x="634.59" y="866.5400000000001" type="line"/>
    </contour>
  </outline>
</glyph>
<glyph name="questiondown" format="2">
  <advance width="1287.17"/>
  <unicode hex="00BF"/>
  <outline>
    <contour>
      <point x="841.04" y="516.85" type="line"/>
      <point x="731.68" y="508.91" type="line" smooth="yes"/>
      <point x="328.77" y="479.62"/>
      <point x="116.51" y="337.39"/>
      <point x="116.51" y="64.53999999999999" type="curve" smooth="yes"/>
      <point x="116.51" y="49.66" type="line" smooth="yes"/>
      <point x="116.51" y="-204.06"/>
      <point x="283.06" y="-345.12"/>
      <point x="651.25" y="-345.12" type="curve" smooth="yes"/>
      <point x="899.0" y="-345.12"/>
      <point x="1088.5299999999997" y="-264.84000000000003"/>
      <point x="1189.0600000000002" y="-201.91" type="curve"/>
      <point x="1205.19" y="-80.41" type="line"/>
      <point x="1070.41" y="-160.4"/>
      <point x="877.18" y="-231.73999999999998"/>
      <point x="659.2" y="-231.73999999999998" type="curve" smooth="yes"/>
      <point x="363.42" y="-231.73999999999998"/>
      <point x="253.15000000000003" y="-125.41"/>
      <point x="253.15000000000003" y="51.78" type="curve" smooth="yes"/>
      <point x="253.15000000000003" y="64.6" type="line" smooth="yes"/>
      <point x="253.15000000000003" y="264.68"/>
      <point x="415.0" y="373.29999999999995"/>
      <point x="740.8000000000001" y="399.65000000000003" type="curve" smooth="yes"/>
      <point x="841.04" y="407.65000000000003" type="line"/>
    </contour>
    <contour>
      <point x="764.0" y="973.95" type="curve" smooth="yes"/>
      <point x="695.7900000000001" y="973.95"/>
      <point x="662.0699999999999" y="940.58"/>
      <point x="662.0699999999999" y="883.32" type="curve" smooth="yes"/>
      <point x="662.0699999999999" y="879.32" type="line" smooth="yes"/>
      <point x="662.0699999999999" y="822.53"/>
      <point x="695.7900000000001" y="789.63"/>
      <point x="764.0" y="789.63" type="curve" smooth="yes"/>
      <point x="829.74" y="789.63"/>
      <point x="864.4599999999999" y="822.53"/>
      <point x="864.4599999999999" y="879.32" type="curve" smooth="yes"/>
      <point x="864.4599999999999" y="883.32" type="line" smooth="yes"/>
      <point x="864.4599999999999" y="940.58"/>
      <point x="829.74" y="973.95"/>
    </contour>
  </outline>
</glyph>
<glyph name="AE" format="2">
  <advance width="2474.86"/>
  <unicode hex="00C6"/>
  <anchor x="1237.96" y="0.0" name="bottom"/>
  <anchor x="1237.96" y="1278.0" name="top"/>
  <outline>
    <contour>
      <point x="69.74" y="0.0" type="line"/>
      <point x="225.45000000000002" y="0.0" type="line"/>
      <point x="1149.4799999999998" y="1188.76" type="line"/>
      <point x="1256.14" y="1188.76" type="line"/>
      <point x="1257.2" y="1278.0" type="line"/>
      <point x="1061.8799999999999" y="1278.0" type="line"/>
    </contour>
    <contour>
      <point x="487.10999999999996" y="403.65" type="line"/>
      <point x="1227.06" y="403.65" type="line"/>
      <point x="1227.06" y="515.03" type="line"/>
      <point x="487.10999999999996" y="515.03" type="line"/>
    </contour>
    <contour>
      <point x="1232.1699999999998" y="0.0" type="line"/>
      <point x="2335.17" y="0.0" type="line"/>
      <point x="2335.17" y="111.91000000000001" type="line"/>
      <point x="1232.1699999999998" y="111.91000000000001" type="line"/>
    </contour>
    <contour>
      <point x="1216.0" y="0.0" type="line"/>
      <point x="1350.4" y="0.0" type="line"/>
      <point x="1350.4" y="1278.0" type="line"/>
      <point x="1216.0" y="1278.0" type="line"/>
    </contour>
    <contour>
      <point x="1286.76" y="595.72" type="line"/>
      <point x="2299.1099999999997" y="595.72" type="line"/>
      <point x="2299.1099999999997" y="706.0400000000001" type="line"/>
      <point x="1286.76" y="706.0400000000001" type="line"/>
    </contour>
    <contour>
      <point x="1232.17" y="1166.09" type="line"/>
      <point x="2323.0499999999997" y="1166.09" type="line"/>
      <point x="2323.0499999999997" y="1278.0" type="line"/>
      <point x="1232.17" y="1278.0" type="line"/>
    </contour>
  </outline>
</glyph>
<glyph name="Eth" format="2">
  <advance width="1626.07"/>
  <unicode hex="00D0"/>
  <anchor x="796.12" y="0.0" name="bottom"/>
  <anchor x="813.3" y="639.0" name="center"/>
  <anchor x="796.12" y="1278.0" name="top"/>
  <outline>
    <contour>
      <point x="-4.409999999999999" y="603.3100000000001" type="line"/>
      <point x="854.65" y="602.78" type="line"/>
      <point x="854.65" y="705.6800000000001" type="line"/>
      <point x="-4.409999999999999" y="706.21" type="line"/>
    </contour>
    <component base="D"/>
  </outline>
</glyph>
<glyph name="multiply" format="2">
  <advance width="1344.17"/>
  <unicode hex="00D7"/>
  <outline>
    <contour>
      <point x="1149.3799999999999" y="217.38000000000002" type="line"/>
      <point x="276.32" y="1070.7200000000003" type="line"/>
      <point x="198.85" y="995.37" type="line"/>
      <point x="1071.9099999999999" y="142.03" type="line"/>
    </contour>
    <contour>
      <point x="194.79" y="217.38000000000002" type="line"/>
      <point x="272.26000000000005" y="142.03" type="line"/>
      <point x="1145.32" y="995.37" type="line"/>
      <point x="1067.8500000000001" y="1070.7200000000003" type="line"/>
    </contour>
  </outline>
</glyph>
<glyph name="Oslash" format="2">
  <advance width="1674.73"/>
  <unicode hex="00D8"/>
  <anchor x="837.6" y="0.0" name="bottom"/>
  <anchor x="837.6" y="639.53" name="center"/>
  <anchor x="1507.6100000000001" y="10.53" name="ogonek"/>
  <anchor x="837.6" y="1278.0" name="top"/>
  <anchor x="20.0" y="1278.53" name="topleft"/>
  <anchor x="1654.73" y="1278.53" name="topright"/>
  <outline>
    <contour>
      <point x="837.13" y="-27.360000000000003" type="curve" smooth="yes"/>
      <point x="1297.74" y="-27.360000000000003"/>
      <point x="1548.6299999999999" y="210.88"/>
      <point x="1548.6299999999999" y="630.59" type="curve" smooth="yes"/>
      <point x="1548.6299999999999" y="649.47" type="line" smooth="yes"/>
      <point x="1549.1" y="1059.94"/>
      <point x="1289.0300000000002" y="1305.36"/>
      <point x="837.13" y="1305.36" type="curve" smooth="yes"/>
      <point x="376.99" y="1305.36"/>
      <point x="126.1" y="1068.6499999999999"/>
      <point x="126.1" y="649.47" type="curve" smooth="yes"/>
      <point x="126.1" y="630.59" type="line" smooth="yes"/>
      <point x="126.1" y="219.58999999999997"/>
      <point x="385.7" y="-27.360000000000003"/>
    </contour>
    <contour>
      <point x="137.03" y="-52.95" type="line"/>
      <point x="284.49" y="-52.95" type="line"/>
      <point x="434.59999999999997" y="112.93" type="line"/>
      <point x="453.96000000000004" y="134.35" type="line"/>
      <point x="1297.29" y="1062.88" type="line"/>
      <point x="1331.9599999999998" y="1101.73" type="line"/>
      <point x="1538.17" y="1330.48" type="line"/>
      <point x="1392.3" y="1330.48" type="line"/>
      <point x="1247.78" y="1171.25" type="line"/>
      <point x="1227.89" y="1148.77" type="line"/>
      <point x="379.90999999999997" y="216.18" type="line"/>
      <point x="342.59" y="174.15" type="line"/>
    </contour>
    <contour>
      <point x="837.13" y="87.55" type="curve" smooth="yes"/>
      <point x="472.3" y="87.55"/>
      <point x="268.33000000000004" y="288.7"/>
      <point x="268.33000000000004" y="630.06" type="curve" smooth="yes"/>
      <point x="268.33000000000004" y="650.0" type="line" smooth="yes"/>
      <point x="268.33000000000004" y="996.8300000000002"/>
      <point x="467.3" y="1192.04"/>
      <point x="837.13" y="1192.04" type="curve" smooth="yes"/>
      <point x="1201.9" y="1192.04"/>
      <point x="1406.3999999999999" y="991.8300000000002"/>
      <point x="1406.3999999999999" y="650.0" type="curve" smooth="yes"/>
      <point x="1406.3999999999999" y="630.06" type="line" smooth="yes"/>
      <point x="1406.3999999999999" y="283.7"/>
      <point x="1206.9" y="87.55"/>
    </contour>
  </outline>
</glyph>
<glyph name="Thorn" format="2">
  <advance width="1518.9499999999998"/>
  <unicode hex="00DE"/>
  <anchor x="759.7099999999999" y="0.0" name="bottom"/>
  <anchor x="759.7099999999999" y="1278.0" name="top"/>
  <outline>
    <contour>
      <point x="308.93" y="226.45" type="line"/>
      <point x="931.6800000000001" y="226.45" type="line" smooth="yes"/>
      <point x="1260.6000000000001" y="226.45"/>
      <point x="1411.9099999999999" y="385.63"/>
      <point x="1411.9099999999999" y="631.53" type="curve" smooth="yes"/>
      <point x="1411.9099999999999" y="651.88" type="line" smooth="yes"/>
      <point x="1411.9099999999999" y="899.37"/>
      <point x="1260.6000000000001" y="1057.02"/>
      <point x="931.68" y="1057.02" type="curve" smooth="yes"/>
      <point x="300.58000000000004" y="1057.02" type="line"/>
      <point x="300.58000000000004" y="945.64" type="line"/>
      <point x="930.74" y="945.64" type="line" smooth="yes"/>
      <point x="1168.64" y="945.64"/>
      <point x="1271.21" y="832.61"/>
      <point x="1271.21" y="650.94" type="curve" smooth="yes"/>
      <point x="1271.21" y="632.53" type="line" smooth="yes"/>
      <point x="1271.21" y="450.85999999999996"/>
      <point x="1168.6399999999999" y="338.36"/>
      <point x="930.74" y="338.36" type="curve" smooth="yes"/>
      <point x="308.93" y="338.36" type="line"/>
    </contour>
    <contour>
      <point x="208.97" y="0.0" type="line"/>
      <point x="344.37" y="0.0" type="line"/>
      <point x="344.37" y="257.18" type="line"/>
      <point x="344.37" y="303.33000000000004" type="line"/>
      <point x="344.37" y="976.9" type="line"/>
      <point x="344.37" y="1024.76" type="line"/>
      <point x="344.37" y="1278.0" type="line"/>
      <point x="208.97" y="1278.0" type="line"/>
    </contour>
  </outline>
</glyph>
<glyph name="germandbls" format="2">
  <advance width="1456.25"/>
  <unicode hex="00DF"/>
  <anchor x="696.01" y="0.0" name="bottom"/>
  <anchor x="696.01" y="955.1800000000001" name="top"/>
  <outline>
    <contour>
      <point x="179.74" y="924.9300000000001" type="curve" smooth="yes"/>
      <point x="179.74" y="0.0" type="line"/>
      <point x="312.14000000000004" y="0.0" type="line"/>
      <point x="312.14000000000004" y="920.87" type="line" smooth="yes"/>
      <point x="312.14000000000004" y="1122.1200000000001"/>
      <point x="382.66" y="1243.92"/>
      <point x="636.5400000000001" y="1243.92" type="curve" smooth="yes"/>
      <point x="829.96" y="1243.92"/>
      <point x="925.24" y="1174.18"/>
      <point x="925.24" y="1078.03" type="curve" smooth="yes"/>
      <point x="925.24" y="918.7199999999999"/>
      <point x="622.87" y="890.69"/>
      <point x="621.87" y="688.99" type="curve" smooth="yes"/>
      <point x="621.87" y="679.58" type="line" smooth="yes"/>
      <point x="621.87" y="536.22"/>
      <point x="714.58" y="483.03"/>
      <point x="942.52" y="448.2" type="curve" smooth="yes"/>
      <point x="1138.42" y="418.73"/>
      <point x="1219.46" y="385.98"/>
      <point x="1219.46" y="267.08" type="curve" smooth="yes"/>
      <point x="1219.46" y="258.26" type="line" smooth="yes"/>
      <point x="1219.46" y="145.06"/>
      <point x="1121.8899999999999" y="84.26"/>
      <point x="935.4499999999999" y="84.26" type="curve" smooth="yes"/>
      <point x="797.3" y="84.26"/>
      <point x="698.82" y="110.67"/>
      <point x="588.24" y="151.9" type="curve"/>
      <point x="603.25" y="33.46" type="line"/>
      <point x="693.6600000000001" y="2.23"/>
      <point x="798.49" y="-23.41"/>
      <point x="948.1700000000001" y="-23.41" type="curve" smooth="yes"/>
      <point x="1202.0099999999998" y="-23.41"/>
      <point x="1350.27" y="73.06"/>
      <point x="1350.27" y="259.78999999999996" type="curve" smooth="yes"/>
      <point x="1350.27" y="268.67" type="line" smooth="yes"/>
      <point x="1350.27" y="449.62"/>
      <point x="1243.7299999999998" y="507.68"/>
      <point x="995.87" y="547.86" type="curve" smooth="yes"/>
      <point x="819.7199999999999" y="576.39"/>
      <point x="753.8" y="599.62"/>
      <point x="753.8" y="688.5899999999999" type="curve" smooth="yes"/>
      <point x="753.8" y="694.82" type="line" smooth="yes"/>
      <point x="753.8" y="837.5400000000001"/>
      <point x="1057.58" y="866.92"/>
      <point x="1057.58" y="1077.97" type="curve"/>
      <point x="1057.58" y="1251.3"/>
      <point x="891.48" y="1350.0"/>
      <point x="636.01" y="1350.0" type="curve" smooth="yes"/>
      <point x="289.35" y="1350.0"/>
      <point x="179.74" y="1189.71"/>
    </contour>
  </outline>
</glyph>
<glyph name="ae" format="2">
  <advance width="2237.08"/>
  <unicode hex="00E6"/>
  <anchor x="1116.9199999999998" y="0.0" name="bottom"/>
  <anchor x="1116.9199999999998" y="955.1800000000001" name="top"/>
  <outline>
    <contour>
      <point x="1606.73" y="-28.71" type="curve" smooth="yes"/>
      <point x="1807.38" y="-28.71"/>
      <point x="1964.56" y="18.110000000000003"/>
      <point x="2089.56" y="100.45" type="curve"/>
      <point x="2104.63" y="217.12" type="line"/>
      <point x="1963.1" y="127.08"/>
      <point x="1810.8" y="81.61"/>
      <point x="1626.28" y="81.61" type="curve" smooth="yes"/>
      <point x="1297.64" y="81.61"/>
      <point x="1154.9800000000002" y="227.29"/>
      <point x="1154.9800000000002" y="447.63" type="curve" smooth="yes"/>
      <point x="1154.9800000000002" y="478.17999999999995" type="line"/>
      <point x="1154.9800000000002" y="489.01" type="line"/>
      <point x="1154.9800000000002" y="505.9" type="line" smooth="yes"/>
      <point x="1154.9800000000002" y="733.25"/>
      <point x="1300.3600000000001" y="877.28"/>
      <point x="1575.72" y="877.28" type="curve" smooth="yes"/>
      <point x="1854.26" y="877.28"/>
      <point x="2000.2900000000002" y="734.4399999999999"/>
      <point x="2000.2900000000002" y="517.6" type="curve" smooth="yes"/>
      <point x="2000.2900000000002" y="489.82"/>
      <point x="1999.2299999999998" y="458.33"/>
      <point x="1996.11" y="434.08000000000004" type="curve"/>
      <point x="2121.15" y="434.08000000000004" type="line"/>
      <point x="2125.27" y="457.03000000000003"/>
      <point x="2127.92" y="484.4"/>
      <point x="2127.92" y="509.24" type="curve" smooth="yes"/>
      <point x="2127.92" y="514.3000000000001" type="line" smooth="yes"/>
      <point x="2127.92" y="793.54"/>
      <point x="1938.68" y="983.89"/>
      <point x="1585.79" y="983.89" type="curve" smooth="yes"/>
      <point x="1313.93" y="983.89"/>
      <point x="1144.8200000000002" y="872.97"/>
      <point x="1090.46" y="679.48" type="curve"/>
      <point x="1091.27" y="681.36" type="line"/>
      <point x="1061.31" y="863.8499999999999"/>
      <point x="928.03" y="983.36"/>
      <point x="647.87" y="983.36" type="curve" smooth="yes"/>
      <point x="416.89000000000004" y="983.36"/>
      <point x="258.95" y="909.55"/>
      <point x="170.35" y="854.14" type="curve"/>
      <point x="155.27999999999997" y="739.4699999999999" type="line"/>
      <point x="270.0" y="805.11"/>
      <point x="431.35" y="873.0400000000001"/>
      <point x="642.5699999999999" y="873.0400000000001" type="curve" smooth="yes"/>
      <point x="901.4799999999999" y="873.0400000000001"/>
      <point x="1022.58" y="766.9499999999999"/>
      <point x="1022.58" y="578.1700000000001" type="curve"/>
      <point x="1023.64" y="492.94" type="line"/>
      <point x="1022.6400000000001" y="441.17999999999995"/>
      <point x="1025.64" y="371.80999999999995"/>
      <point x="1037.88" y="327.39000000000004" type="curve"/>
      <point x="1046.71" y="307.68" type="line"/>
      <point x="1103.01" y="99.7"/>
      <point x="1285.07" y="-28.71"/>
    </contour>
    <contour>
      <point x="510.55999999999995" y="-27.12" type="curve" smooth="yes"/>
      <point x="848.19" y="-27.12"/>
      <point x="1003.5699999999999" y="120.72"/>
      <point x="1064.72" y="272.62" type="curve"/>
      <point x="1094.27" y="272.62" type="line"/>
      <point x="1041.59" y="368.93" type="line"/>
      <point x="989.11" y="211.75"/>
      <point x="819.2" y="83.2"/>
      <point x="544.12" y="83.2" type="curve" smooth="yes"/>
      <point x="349.99" y="83.2"/>
      <point x="235.5" y="145.24"/>
      <point x="235.5" y="263.08" type="curve" smooth="yes"/>
      <point x="235.5" y="271.96" type="line" smooth="yes"/>
      <point x="235.5" y="397.39"/>
      <point x="332.7" y="443.49"/>
      <point x="599.75" y="463.31" type="curve" smooth="yes"/>
      <point x="1042.94" y="496.24999999999994" type="line"/>
      <point x="1040.82" y="588.26" type="line"/>
      <point x="588.92" y="556.3199999999999" type="line" smooth="yes"/>
      <point x="251.57999999999998" y="532.32"/>
      <point x="102.1" y="455.96000000000004"/>
      <point x="102.1" y="262.3" type="curve" smooth="yes"/>
      <point x="102.1" y="250.48000000000002" type="line" smooth="yes"/>
      <point x="102.1" y="70.24"/>
      <point x="255.73999999999998" y="-27.12"/>
    </contour>
    <contour>
      <point x="1085.16" y="434.08000000000004" type="line"/>
      <point x="2093.31" y="434.08000000000004" type="line"/>
      <point x="2093.31" y="534.9799999999999" type="line"/>
      <point x="1085.16" y="534.9799999999999" type="line"/>
    </contour>
  </outline>
</glyph>
<glyph name="eth" format="2">
  <advance width="1397.1899999999998"/>
  <unicode hex="00F0"/>
  <outline>
    <contour>
      <point x="698.8299999999999" y="-27.65" type="curve" smooth="yes"/>
      <point x="1069.85" y="-27.65"/>
      <point x="1280.68" y="143.18"/>
      <point x="1280.68" y="452.82" type="curve"/>
      <point x="1280.68" y="481.16999999999996" type="line"/>
      <point x="1280.68" y="907.25"/>
      <point x="940.38" y="1124.27"/>
      <point x="543.17" y="1321.35" type="curve"/>
      <point x="346.8" y="1321.35" type="line"/>
      <point x="346.8" y="1319.82" type="line"/>
      <point x="789.35" y="1105.57"/>
      <point x="1104.6299999999999" y="897.1899999999999"/>
      <point x="1138.92" y="593.5699999999999" type="curve"/>
      <point x="1141.0400000000002" y="560.07"/>
      <point x="1144.1599999999999" y="538.82"/>
      <point x="1146.28" y="492.6000000000001" type="curve"/>
      <point x="1146.28" y="477.19999999999993"/>
      <point x="1146.28" y="461.86"/>
      <point x="1146.28" y="446.46000000000004" type="curve" smooth="yes"/>
      <point x="1146.28" y="207.4"/>
      <point x="978.78" y="80.02"/>
      <point x="698.8299999999999" y="80.02" type="curve" smooth="yes"/>
      <point x="417.40999999999997" y="80.02"/>
      <point x="250.44000000000003" y="205.46"/>
      <point x="250.44000000000003" y="442.23" type="curve" smooth="yes"/>
      <point x="250.44000000000003" y="462.35" type="line" smooth="yes"/>
      <point x="250.44000000000003" y="699.59"/>
      <point x="417.76" y="820.32"/>
      <point x="692.13" y="820.32" type="curve" smooth="yes"/>
      <point x="926.1700000000001" y="820.32"/>
      <point x="1131.99" y="718.28"/>
      <point x="1146.28" y="465.34000000000003" type="curve"/>
      <point x="1152.3799999999999" y="650.04" type="line"/>
      <point x="1112.94" y="635.4399999999999" type="line"/>
      <point x="1072.66" y="825.51"/>
      <point x="892.8599999999999" y="926.93"/>
      <point x="651.61" y="926.93" type="curve" smooth="yes"/>
      <point x="320.86" y="926.93"/>
      <point x="116.50999999999999" y="764.34"/>
      <point x="116.50999999999999" y="463.82" type="curve" smooth="yes"/>
      <point x="116.50999999999999" y="442.76" type="line" smooth="yes"/>
      <point x="116.50999999999999" y="135.82"/>
      <point x="326.4" y="-27.65"/>
    </contour>
    <contour>
      <point x="280.81" y="1011.31" type="line"/>
      <point x="1194.91" y="1195.19" type="line"/>
      <point x="1194.91" y="1282.25" type="line"/>
      <point x="280.81" y="1098.9" type="line"/>
    </contour>
  </outline>
</glyph>
<glyph name="divide" format="2">
  <advance width="1343.5800000000002"/>
  <unicode hex="00F7"/>
  <outline>
    <contour>
      <point x="152.75" y="555.72" type="line"/>
      <point x="1190.83" y="555.72" type="line"/>
      <point x="1190.83" y="662.86" type="line"/>
      <point x="152.75" y="662.86" type="line"/>
    </contour>
    <contour>
      <point x="674.6999999999999" y="95.2" type="curve" smooth="yes"/>
      <point x="741.85" y="95.2"/>
      <point x="775.0400000000001" y="128.57"/>
      <point x="775.0400000000001" y="184.76999999999998" type="curve" smooth="yes"/>
      <point x="775.0400000000001" y="188.77" type="line" smooth="yes"/>
      <point x="775.0400000000001" y="244.5"/>
      <point x="741.85" y="276.87"/>
      <point x="674.6999999999999" y="276.87" type="curve" smooth="yes"/>
      <point x="610.0200000000001" y="276.87"/>
      <point x="575.83" y="244.5"/>
      <point x="575.83" y="188.77" type="curve" smooth="yes"/>
      <point x="575.83" y="184.76999999999998" type="line" smooth="yes"/>
      <point x="575.83" y="128.57"/>
      <point x="610.0200000000001" y="95.2"/>
    </contour>
    <contour>
      <point x="674.6999999999999" y="946.4799999999999" type="curve" smooth="yes"/>
      <point x="741.85" y="946.4799999999999"/>
      <point x="775.0400000000001" y="979.85"/>
      <point x="775.0400000000001" y="1036.0499999999997" type="curve" smooth="yes"/>
      <point x="775.0400000000001" y="1040.0500000000002" type="line" smooth="yes"/>
      <point x="775.0400000000001" y="1095.78"/>
      <point x="741.85" y="1128.1499999999999"/>
      <point x="674.6999999999999" y="1128.1499999999999" type="curve" smooth="yes"/>
      <point x="610.0200000000001" y="1128.1499999999999"/>
      <point x="575.83" y="1095.78"/>
      <point x="575.83" y="1040.0500000000002" type="curve" smooth="yes"/>
      <point x="575.83" y="1036.0499999999997" type="line" smooth="yes"/>
      <point x="575.83" y="979.85"/>
      <point x="610.0200000000001" y="946.4799999999999"/>
    </contour>
  </outline>
</glyph>
<glyph name="oslash" format="2">
  <advance width="1401.01"/>
  <unicode hex="00F8"/>
  <anchor x="700.77" y="0.0" name="bottom"/>
  <anchor x="700.77" y="477.59000000000003" name="center"/>
  <anchor x="1260.95" y="10.0" name="ogonek"/>
  <anchor x="700.77" y="955.1800000000001" name="top"/>
  <anchor x="1381.01" y="955.1800000000001" name="topright"/>
  <outline>
    <contour>
      <point x="700.7099999999999" y="-27.119999999999997" type="curve" smooth="yes"/>
      <point x="1080.49" y="-27.119999999999997"/>
      <point x="1284.5" y="143.59"/>
      <point x="1284.5" y="465.65" type="curve"/>
      <point x="1284.5" y="490.47" type="line"/>
      <point x="1284.5" y="806.53"/>
      <point x="1068.54" y="982.8299999999999"/>
      <point x="700.7099999999999" y="982.8299999999999" type="curve" smooth="yes"/>
      <point x="321.52000000000004" y="982.8299999999999"/>
      <point x="116.50999999999999" y="811.59"/>
      <point x="116.50999999999999" y="492.06000000000006" type="curve"/>
      <point x="116.50999999999999" y="467.23999999999995" type="line"/>
      <point x="116.50999999999999" y="150.65"/>
      <point x="331.46999999999997" y="-27.119999999999997"/>
    </contour>
    <contour>
      <point x="125.14999999999999" y="-52.95" type="line"/>
      <point x="259.6" y="-52.95" type="line"/>
      <point x="385.01" y="78.29" type="line"/>
      <point x="409.78999999999996" y="105.19" type="line"/>
      <point x="1074.46" y="796.0699999999999" type="line"/>
      <point x="1105.42" y="829.15" type="line"/>
      <point x="1275.8600000000001" y="1008.1299999999999" type="line"/>
      <point x="1142.41" y="1008.1299999999999" type="line"/>
      <point x="1026.48" y="887.4300000000001" type="line"/>
      <point x="999.29" y="858.12" type="line"/>
      <point x="329.72999999999996" y="162.29" type="line"/>
      <point x="299.3" y="130.74" type="line"/>
    </contour>
    <contour>
      <point x="700.7099999999999" y="73.66" type="curve" smooth="yes"/>
      <point x="410.82" y="73.66"/>
      <point x="246.20000000000002" y="213.4"/>
      <point x="246.20000000000002" y="465.65000000000003" type="curve" smooth="yes"/>
      <point x="246.20000000000002" y="492.06000000000006" type="line" smooth="yes"/>
      <point x="246.20000000000002" y="747.25"/>
      <point x="407.88" y="882.5799999999999"/>
      <point x="700.7099999999999" y="882.5799999999999" type="curve" smooth="yes"/>
      <point x="991.66" y="882.5799999999999"/>
      <point x="1154.81" y="743.78"/>
      <point x="1154.81" y="492.06000000000006" type="curve" smooth="yes"/>
      <point x="1154.81" y="465.65000000000003" type="line" smooth="yes"/>
      <point x="1154.81" y="210.46"/>
      <point x="992.6" y="73.66"/>
    </contour>
  </outline>
</glyph>
<glyph name="thorn" format="2">
  <advance width="1453.19"/>
  <unicode hex="00FE"/>
  <anchor x="726.8299999999999" y="0.0" name="bottom"/>
  <anchor x="726.8299999999999" y="955.1800000000001" name="top"/>
  <outline>
    <contour>
      <point x="800.75" y="-27.12" type="curve" smooth="yes"/>
      <point x="1136.9699999999998" y="-27.12"/>
      <point x="1335.62" y="143.06"/>
      <point x="1335.62" y="466.71000000000004" type="curve" smooth="yes"/>
      <point x="1335.62" y="490.46999999999997" type="line" smooth="yes"/>
      <point x="1335.62" y="811.18"/>
      <point x="1141.21" y="982.3"/>
      <point x="804.6300000000001" y="982.3" type="curve" smooth="yes"/>
      <point x="507.01" y="982.3"/>
      <point x="339.52" y="825.6899999999999"/>
      <point x="307.74" y="651.96" type="curve"/>
      <point x="263.59" y="651.96" type="line"/>
      <point x="301.61" y="548.6999999999999" type="line"/>
      <point x="340.26000000000005" y="732.72"/>
      <point x="519.64" y="874.63"/>
      <point x="767.89" y="874.63" type="curve" smooth="yes"/>
      <point x="1041.6599999999999" y="874.63"/>
      <point x="1201.16" y="742.89"/>
      <point x="1201.16" y="491.59" type="curve" smooth="yes"/>
      <point x="1201.16" y="469.77" type="line" smooth="yes"/>
      <point x="1201.16" y="217.88"/>
      <point x="1041.13" y="84.26"/>
      <point x="770.8299999999999" y="84.26" type="curve" smooth="yes"/>
      <point x="529.5699999999999" y="84.26"/>
      <point x="322.9" y="198.18"/>
      <point x="308.08" y="447.44" type="curve"/>
      <point x="265.76000000000005" y="314.96999999999997" type="line"/>
      <point x="309.15000000000003" y="314.96999999999997" type="line"/>
      <point x="335.12" y="100.32000000000001"/>
      <point x="529.5999999999999" y="-27.12"/>
    </contour>
    <contour>
      <point x="179.74" y="-338.0" type="line"/>
      <point x="312.08000000000004" y="-338.0" type="line"/>
      <point x="312.08000000000004" y="1.0599999999999987" type="line"/>
      <point x="306.61" y="302.39000000000004" type="line"/>
      <point x="308.08" y="344.65" type="line"/>
      <point x="308.08" y="600.93" type="line"/>
      <point x="307.55" y="658.32" type="line"/>
      <point x="312.08000000000004" y="955.1800000000001" type="line"/>
      <point x="312.08000000000004" y="1321.35" type="line"/>
      <point x="179.74" y="1321.35" type="line"/>
    </contour>
  </outline>
</glyph>
<glyph name="idotless" format="2">
  <advance width="498.23"/>
  <unicode hex="0131"/>
  <anchor x="249.38000000000002" y="0.0" name="bottom"/>
  <anchor x="361.43" y="2.6500000000000004" name="ogonek"/>
  <anchor x="249.38000000000002" y="955.1800000000001" name="top"/>
  <outline>
    <contour>
      <point x="182.68" y="0.0" type="line"/>
      <point x="315.55" y="0.0" type="line"/>
      <point x="315.55" y="955.1800000000001" type="line"/>
      <point x="182.68" y="955.1800000000001" type="line"/>
    </contour>
  </outline>
</glyph>
